<?xml version="1.0" encoding="UTF-8"?>
<!DOCTYPE svg PUBLIC "-//W3C//DTD SVG 1.1//EN" "http://www.w3.org/Graphics/SVG/1.1/DTD/svg11.dtd">
<!-- Creator: CorelDRAW -->
<svg xmlns="http://www.w3.org/2000/svg" xml:space="preserve" width="4.2254in" height="0.861134in" version="1.1" style="shape-rendering:geometricPrecision; text-rendering:geometricPrecision; image-rendering:optimizeQuality; fill-rule:evenodd; clip-rule:evenodd"
viewBox="0 0 344.54 70.22"
 xmlns:xlink="http://www.w3.org/1999/xlink"
 xmlns:xodm="http://www.corel.com/coreldraw/odm/2003">
 <defs>
  <style type="text/css">
   <![CDATA[
    .fil1 {fill:#1F2937;fill-rule:nonzero}
    .fil0 {fill:#1F2937}
   ]]>
  </style>
 </defs>
 <g id="Capa_x0020_1">
  <metadata id="CorelCorpID_0Corel-Layer"/>
  <g id="_2544307109488">
   <path class="fil0" d="M-0 33.65l0 -33.64 18.28 0 0 51.93 51.93 0 0 18.28 -51.93 0 -18.28 0 0 -18.28 0 -18.28zm70.21 9.14l-42.79 0 0 -42.79 42.79 0 0 42.79z"/>
   <path class="fil1" d="M130.14 12.73l0 48.05 -8.48 0 0 -21.03 -25.35 0 0 21.03 -8.48 0 0 -48.92 8.48 0 0 20.28 25.35 0 0 -20.28 8.48 0 0 0.87zm-0.87 0l0 47.17 -6.74 0 0 -21.03 -27.09 0 0 21.03 -6.74 0 0 -47.17 6.74 0 0 20.28 27.09 0 0 -20.28 6.74 0zm41.12 29.52c0,0.25 -0.01,0.56 -0.04,0.92 -0.02,0.33 -0.06,0.71 -0.1,1.13l-0.09 0.78 -28.73 0c0.22,1.08 0.58,2.06 1.08,2.97 0.63,1.16 1.5,2.18 2.59,3.07 1.09,0.89 2.32,1.55 3.69,1.99 1.37,0.45 2.89,0.67 4.56,0.67 2.02,0 3.84,-0.34 5.44,-1.01 1.6,-0.67 3.01,-1.67 4.22,-3.01l0.66 -0.73 4.7 5.49 -0.48 0.57c-0.85,1 -1.81,1.88 -2.88,2.64 -1.06,0.76 -2.22,1.39 -3.48,1.91 -1.26,0.52 -2.59,0.91 -3.99,1.16 -1.4,0.26 -2.87,0.39 -4.39,0.39 -1.95,0 -3.79,-0.2 -5.53,-0.6 -1.75,-0.4 -3.39,-1.01 -4.91,-1.82 -1.53,-0.81 -2.89,-1.79 -4.08,-2.93 -1.19,-1.14 -2.21,-2.45 -3.04,-3.91 -0.84,-1.46 -1.46,-3.02 -1.88,-4.67 -0.42,-1.64 -0.63,-3.38 -0.63,-5.2 0,-1.79 0.2,-3.51 0.61,-5.14 0.41,-1.64 1.02,-3.18 1.83,-4.65 0.81,-1.46 1.78,-2.76 2.9,-3.9 1.12,-1.14 2.4,-2.12 3.83,-2.94 1.43,-0.81 2.95,-1.43 4.56,-1.83 1.6,-0.41 3.3,-0.61 5.07,-0.61 1.78,0 3.47,0.2 5.06,0.61 1.6,0.41 3.1,1.02 4.51,1.84 1.41,0.82 2.66,1.8 3.76,2.94 1.1,1.14 2.05,2.44 2.84,3.91 0.79,1.46 1.38,3.03 1.77,4.7 0.39,1.66 0.59,3.42 0.59,5.29zm-18.53 -12.07c-2.88,0 -5.28,0.87 -7.2,2.6 -0.96,0.87 -1.72,1.87 -2.29,3.01 -0.44,0.88 -0.75,1.84 -0.95,2.89l20.88 0c-0.2,-1.02 -0.52,-1.97 -0.95,-2.84 -0.57,-1.14 -1.33,-2.15 -2.29,-3.03 -0.96,-0.87 -2.03,-1.53 -3.23,-1.97 -1.2,-0.44 -2.52,-0.66 -3.97,-0.66zm22.5 -21.15l7.34 0 0 51.75 -8.22 0c0.01,-17.25 0.01,-34.5 0,-51.75l0.87 0zm47.83 33.22c0,0.25 -0.01,0.56 -0.04,0.92 -0.02,0.33 -0.06,0.71 -0.1,1.13l-0.09 0.78 -28.73 0c0.22,1.08 0.58,2.06 1.08,2.97 0.63,1.16 1.5,2.18 2.59,3.07 1.09,0.89 2.32,1.55 3.69,1.99 1.37,0.45 2.89,0.67 4.56,0.67 2.02,0 3.84,-0.34 5.44,-1.01 1.6,-0.67 3.01,-1.67 4.22,-3.01l0.66 -0.73 4.7 5.49 -0.48 0.57c-0.85,1 -1.81,1.88 -2.88,2.64 -1.06,0.76 -2.22,1.39 -3.48,1.91 -1.26,0.52 -2.59,0.91 -3.99,1.16 -1.4,0.26 -2.87,0.39 -4.39,0.39 -1.95,0 -3.79,-0.2 -5.53,-0.6 -1.75,-0.4 -3.39,-1.01 -4.91,-1.82 -1.53,-0.81 -2.89,-1.79 -4.08,-2.93 -1.19,-1.14 -2.21,-2.45 -3.04,-3.91 -0.84,-1.46 -1.46,-3.02 -1.88,-4.67 -0.42,-1.64 -0.63,-3.38 -0.63,-5.2 0,-1.79 0.2,-3.51 0.61,-5.14 0.41,-1.64 1.02,-3.18 1.83,-4.65 0.81,-1.46 1.78,-2.76 2.9,-3.9 1.12,-1.14 2.4,-2.12 3.83,-2.94 1.43,-0.81 2.95,-1.43 4.56,-1.83 1.6,-0.41 3.3,-0.61 5.07,-0.61 1.78,0 3.47,0.2 5.06,0.61 1.6,0.41 3.1,1.02 4.51,1.84 1.41,0.82 2.66,1.8 3.76,2.94 1.1,1.14 2.05,2.44 2.84,3.91 0.79,1.46 1.38,3.03 1.77,4.7 0.39,1.66 0.59,3.42 0.59,5.29zm-18.53 -12.07c-2.88,0 -5.28,0.87 -7.2,2.6 -0.96,0.87 -1.72,1.87 -2.29,3.01 -0.44,0.88 -0.75,1.84 -0.95,2.89l20.88 0c-0.2,-1.02 -0.52,-1.97 -0.95,-2.84 -0.57,-1.14 -1.33,-2.15 -2.29,-3.03 -0.96,-0.87 -2.03,-1.53 -3.23,-1.97 -1.2,-0.44 -2.52,-0.66 -3.97,-0.66zm42.55 -7.2c1.79,0 3.5,0.2 5.13,0.6 1.62,0.4 3.16,1 4.6,1.8 1.44,0.8 2.73,1.77 3.86,2.89 1.13,1.12 2.1,2.41 2.91,3.84 0.81,1.44 1.43,2.99 1.83,4.66 0.41,1.66 0.61,3.42 0.61,5.28 0,1.86 -0.2,3.62 -0.61,5.28 -0.41,1.67 -1.02,3.23 -1.83,4.68 -0.82,1.45 -1.79,2.75 -2.91,3.87 -1.13,1.13 -2.41,2.09 -3.86,2.9 -1.44,0.8 -2.97,1.4 -4.6,1.8 -1.62,0.4 -3.33,0.6 -5.13,0.6 -1.38,0 -2.71,-0.14 -3.99,-0.41 -1.27,-0.27 -2.49,-0.68 -3.66,-1.23 -1.17,-0.55 -2.24,-1.22 -3.2,-2.02 -0.35,-0.29 -0.69,-0.6 -1.01,-0.92l0 4.17 -7.95 0 0 -51.75 8.22 0 0 18.27c0.32,-0.31 0.66,-0.6 1.01,-0.88 0.95,-0.76 2.01,-1.39 3.15,-1.91 1.14,-0.51 2.33,-0.89 3.57,-1.14 1.25,-0.25 2.53,-0.38 3.86,-0.38zm-0.54 30.8c1.08,0 2.1,-0.12 3.05,-0.37 0.94,-0.24 1.84,-0.61 2.68,-1.1 0.84,-0.49 1.59,-1.07 2.26,-1.76 0.66,-0.68 1.24,-1.47 1.73,-2.36 0.49,-0.89 0.86,-1.84 1.11,-2.86 0.25,-1.02 0.37,-2.12 0.37,-3.29 0,-1.18 -0.12,-2.27 -0.37,-3.29 -0.25,-1.02 -0.61,-1.97 -1.11,-2.86 -0.49,-0.89 -1.07,-1.67 -1.73,-2.35 -0.66,-0.68 -1.41,-1.25 -2.25,-1.73 -0.84,-0.48 -1.74,-0.83 -2.69,-1.07 -0.96,-0.24 -1.97,-0.36 -3.05,-0.36 -2.1,0 -4,0.48 -5.71,1.44 -0.85,0.48 -1.6,1.05 -2.26,1.73 -0.66,0.68 -1.23,1.46 -1.71,2.34 -0.48,0.89 -0.84,1.84 -1.08,2.86 -0.24,1.03 -0.36,2.13 -0.36,3.3 0,1.17 0.12,2.27 0.36,3.3 0.24,1.02 0.6,1.97 1.08,2.86 0.48,0.89 1.05,1.67 1.71,2.35 0.66,0.68 1.42,1.26 2.27,1.75 0.86,0.49 1.76,0.86 2.7,1.1 0.94,0.24 1.94,0.37 3,0.37zm43.22 -30.8c1.79,0 3.5,0.2 5.13,0.6 1.62,0.4 3.16,1 4.6,1.8 1.44,0.8 2.73,1.77 3.86,2.89 1.13,1.12 2.1,2.41 2.91,3.84 0.81,1.44 1.43,2.99 1.83,4.66 0.41,1.66 0.61,3.42 0.61,5.28 0,1.86 -0.2,3.62 -0.61,5.28 -0.41,1.67 -1.02,3.23 -1.83,4.68 -0.82,1.45 -1.79,2.75 -2.91,3.87 -1.13,1.13 -2.41,2.09 -3.86,2.9 -1.44,0.8 -2.97,1.4 -4.6,1.8 -1.62,0.4 -3.33,0.6 -5.13,0.6 -1.38,0 -2.71,-0.14 -3.99,-0.41 -1.27,-0.27 -2.49,-0.68 -3.66,-1.23 -1.17,-0.55 -2.24,-1.22 -3.2,-2.02 -0.35,-0.29 -0.69,-0.6 -1.01,-0.92l0 4.17 -7.95 0c0,-17.25 0.01,-34.5 -0,-51.75l8.22 0 0 18.27c0.32,-0.31 0.66,-0.6 1.01,-0.88 0.95,-0.76 2.01,-1.39 3.15,-1.91 1.14,-0.51 2.33,-0.89 3.57,-1.14 1.25,-0.25 2.53,-0.38 3.86,-0.38zm-0.54 30.8c1.08,0 2.1,-0.12 3.05,-0.37 0.94,-0.24 1.84,-0.61 2.68,-1.1 0.84,-0.49 1.59,-1.07 2.26,-1.76 0.66,-0.68 1.24,-1.47 1.73,-2.36 0.49,-0.89 0.86,-1.84 1.11,-2.86 0.25,-1.02 0.37,-2.12 0.37,-3.29 0,-1.18 -0.12,-2.27 -0.37,-3.29 -0.25,-1.02 -0.61,-1.97 -1.11,-2.86 -0.49,-0.89 -1.07,-1.67 -1.73,-2.35 -0.66,-0.68 -1.41,-1.25 -2.25,-1.73 -0.84,-0.48 -1.74,-0.83 -2.69,-1.07 -0.96,-0.24 -1.97,-0.36 -3.05,-0.36 -2.1,0 -4,0.48 -5.71,1.44 -0.85,0.48 -1.6,1.05 -2.26,1.73 -0.66,0.68 -1.23,1.46 -1.71,2.34 -0.48,0.89 -0.84,1.84 -1.08,2.86 -0.24,1.03 -0.36,2.13 -0.36,3.3 0,1.17 0.12,2.27 0.36,3.3 0.24,1.02 0.6,1.97 1.08,2.86 0.48,0.89 1.05,1.67 1.71,2.35 0.66,0.68 1.42,1.26 2.27,1.75 0.86,0.49 1.76,0.86 2.7,1.1 0.94,0.24 1.94,0.37 3,0.37zm40.02 -30.8c2.56,0 4.83,0.32 6.81,0.95 2.02,0.65 3.73,1.62 5.13,2.92 1.42,1.31 2.48,2.93 3.19,4.88 0.69,1.91 1.04,4.11 1.04,6.61l0 22.44 -7.88 0 0 -3.19c-0.17,0.16 -0.35,0.32 -0.54,0.47 -0.83,0.69 -1.79,1.27 -2.86,1.74 -1.06,0.46 -2.21,0.81 -3.47,1.04 -1.25,0.23 -2.58,0.35 -3.99,0.35 -2.08,0 -3.97,-0.25 -5.65,-0.76 -1.71,-0.52 -3.21,-1.29 -4.5,-2.33 -1.31,-1.05 -2.29,-2.27 -2.95,-3.66 -0.66,-1.39 -0.99,-2.93 -0.99,-4.63 0,-3.41 1.25,-6.16 3.75,-8.25 1.24,-1.04 2.84,-1.81 4.79,-2.32 1.9,-0.5 4.13,-0.75 6.69,-0.75l9.37 0 0 -0.41c0,-1.29 -0.18,-2.42 -0.55,-3.38 -0.36,-0.94 -0.89,-1.73 -1.59,-2.38 -0.71,-0.65 -1.6,-1.14 -2.67,-1.48 -1.1,-0.34 -2.4,-0.52 -3.89,-0.52 -1.01,0 -2.01,0.08 -2.99,0.25 -0.98,0.17 -1.96,0.42 -2.93,0.75 -0.97,0.34 -1.86,0.72 -2.66,1.16 -0.8,0.43 -1.52,0.93 -2.18,1.48l-0.81 0.68 -3.56 -6.42 0.57 -0.46c0.97,-0.78 2.03,-1.46 3.18,-2.06 1.15,-0.59 2.38,-1.09 3.71,-1.5 1.33,-0.41 2.69,-0.71 4.09,-0.92 1.41,-0.2 2.85,-0.3 4.32,-0.3zm-1.48 31.47c1.17,0 2.25,-0.13 3.24,-0.38 0.98,-0.25 1.88,-0.63 2.71,-1.14 0.82,-0.5 1.52,-1.1 2.11,-1.81 0.56,-0.67 1.02,-1.43 1.38,-2.29l0 -3.95 -9.1 0c-4.9,0 -7.35,1.55 -7.35,4.65 0,1.51 0.58,2.69 1.73,3.55 0.61,0.45 1.34,0.79 2.2,1.02 0.89,0.24 1.92,0.36 3.08,0.36zm-157.37 -12.2c0,0.49 -0.04,1.15 -0.13,1.95l-28.98 0c0.4,3.14 1.79,5.67 4.14,7.58 2.36,1.91 5.29,2.86 8.79,2.86 4.27,0 7.7,-1.44 10.31,-4.31l3.57 4.18c-1.62,1.89 -3.63,3.33 -6.03,4.31 -2.4,0.99 -5.09,1.48 -8.05,1.48 -3.77,0 -7.12,-0.78 -10.04,-2.33 -2.92,-1.55 -5.18,-3.72 -6.77,-6.5 -1.59,-2.78 -2.39,-5.93 -2.39,-9.43 0,-3.46 0.78,-6.58 2.32,-9.37 1.55,-2.78 3.68,-4.95 6.4,-6.5 2.72,-1.55 5.78,-2.32 9.2,-2.32 3.41,0 6.46,0.77 9.13,2.32 2.67,1.55 4.76,3.72 6.27,6.5 1.5,2.78 2.26,5.98 2.26,9.57zm-17.66 -12.94c-3.1,0 -5.69,0.94 -7.78,2.83 -2.09,1.89 -3.31,4.36 -3.67,7.41l22.91 0c-0.36,-3.01 -1.59,-5.47 -3.67,-7.38 -2.09,-1.91 -4.68,-2.86 -7.78,-2.86zm22.5 -19.41l6.47 0 0 50 -6.47 0 0 -50zm46.96 32.35c0,0.49 -0.04,1.15 -0.13,1.95l-28.98 0c0.4,3.14 1.79,5.67 4.14,7.58 2.36,1.91 5.29,2.86 8.79,2.86 4.27,0 7.71,-1.44 10.31,-4.31l3.57 4.18c-1.62,1.89 -3.63,3.33 -6.03,4.31 -2.4,0.99 -5.09,1.48 -8.05,1.48 -3.77,0 -7.12,-0.78 -10.04,-2.33 -2.92,-1.55 -5.18,-3.72 -6.77,-6.5 -1.59,-2.78 -2.39,-5.93 -2.39,-9.43 0,-3.46 0.78,-6.58 2.32,-9.37 1.55,-2.78 3.68,-4.95 6.4,-6.5 2.72,-1.55 5.78,-2.32 9.2,-2.32 3.41,0 6.46,0.77 9.13,2.32 2.67,1.55 4.76,3.72 6.27,6.5 1.5,2.78 2.26,5.98 2.26,9.57zm-17.66 -12.94c-3.1,0 -5.69,0.94 -7.78,2.83 -2.09,1.89 -3.31,4.36 -3.67,7.41l22.91 0c-0.36,-3.01 -1.59,-5.47 -3.67,-7.38 -2.09,-1.91 -4.68,-2.86 -7.78,-2.86zm42.55 -5.46c3.46,0 6.56,0.76 9.3,2.29 2.74,1.53 4.89,3.66 6.44,6.4 1.55,2.74 2.33,5.91 2.33,9.5 0,3.59 -0.78,6.77 -2.33,9.54 -1.55,2.76 -3.7,4.91 -6.44,6.44 -2.74,1.53 -5.84,2.29 -9.3,2.29 -2.65,0 -5.08,-0.52 -7.28,-1.55 -2.2,-1.03 -4.02,-2.54 -5.46,-4.52l0 5.66 -6.2 0 0 -50 6.47 0 0 19.68c1.44,-1.89 3.24,-3.31 5.39,-4.28 2.16,-0.97 4.52,-1.45 7.08,-1.45zm-0.54 30.8c2.29,0 4.35,-0.53 6.17,-1.58 1.82,-1.06 3.26,-2.54 4.31,-4.45 1.05,-1.91 1.58,-4.1 1.58,-6.57 0,-2.47 -0.53,-4.66 -1.58,-6.57 -1.06,-1.91 -2.49,-3.38 -4.31,-4.41 -1.82,-1.03 -3.87,-1.55 -6.17,-1.55 -2.25,0 -4.29,0.52 -6.13,1.55 -1.84,1.03 -3.28,2.51 -4.31,4.41 -1.03,1.91 -1.55,4.1 -1.55,6.57 0,2.47 0.52,4.66 1.55,6.57 1.03,1.91 2.47,3.39 4.31,4.45 1.84,1.06 3.89,1.58 6.13,1.58zm43.22 -30.8c3.46,0 6.56,0.77 9.3,2.29 2.74,1.53 4.89,3.66 6.44,6.4 1.55,2.74 2.33,5.91 2.33,9.5 0,3.59 -0.78,6.77 -2.33,9.54 -1.55,2.76 -3.7,4.91 -6.44,6.44 -2.74,1.53 -5.84,2.29 -9.3,2.29 -2.65,0 -5.08,-0.52 -7.28,-1.55 -2.2,-1.03 -4.02,-2.54 -5.46,-4.52l0 5.66 -6.2 0 0 -50 6.47 0 0 19.68c1.44,-1.89 3.24,-3.31 5.39,-4.28 2.16,-0.96 4.52,-1.45 7.08,-1.45zm-0.54 30.8c2.29,0 4.35,-0.53 6.17,-1.58 1.82,-1.05 3.26,-2.54 4.31,-4.45 1.05,-1.91 1.58,-4.1 1.58,-6.57 0,-2.47 -0.53,-4.66 -1.58,-6.57 -1.05,-1.91 -2.49,-3.38 -4.31,-4.41 -1.82,-1.03 -3.87,-1.55 -6.17,-1.55 -2.25,0 -4.29,0.52 -6.13,1.55 -1.84,1.03 -3.28,2.51 -4.31,4.41 -1.03,1.91 -1.55,4.1 -1.55,6.57 0,2.47 0.52,4.66 1.55,6.57 1.03,1.91 2.47,3.39 4.31,4.45 1.84,1.06 3.89,1.58 6.13,1.58zm40.02 -30.8c4.94,0 8.73,1.21 11.36,3.64 2.63,2.43 3.94,6.04 3.94,10.85l0 21.57 -6.13 0 0 -4.72c-1.08,1.66 -2.62,2.93 -4.62,3.81 -2,0.88 -4.37,1.31 -7.11,1.31 -4,0 -7.2,-0.97 -9.6,-2.9 -2.4,-1.93 -3.61,-4.47 -3.61,-7.62 0,-3.15 1.15,-5.67 3.44,-7.58 2.29,-1.91 5.93,-2.86 10.92,-2.86l10.24 0 0 -1.28c0,-2.79 -0.81,-4.92 -2.43,-6.4 -1.62,-1.48 -4,-2.22 -7.14,-2.22 -2.11,0 -4.18,0.35 -6.2,1.04 -2.02,0.7 -3.73,1.63 -5.12,2.8l-2.7 -4.85c1.84,-1.48 4.04,-2.62 6.6,-3.4 2.56,-0.79 5.28,-1.18 8.15,-1.18zm-1.48 31.47c2.47,0 4.61,-0.55 6.4,-1.65 1.8,-1.1 3.1,-2.66 3.91,-4.68l0 -4.99 -9.97 0c-5.48,0 -8.22,1.84 -8.22,5.53 0,1.8 0.7,3.21 2.09,4.25 1.39,1.03 3.32,1.55 5.8,1.55z"/>
  </g>
 </g>
</svg>
