<svg xmlns="http://www.w3.org/2000/svg" fill="none" viewBox="0 0 548 365">
  <path fill="#F3F4F6" d="M.2 0h547v364.6H.1z"/>
  <rect width="197.6" height="240.3" x="267.7" y="33.9" fill="#fff" rx="7.9"/>
  <path fill="#fff" stroke="#EDEFF3" d="M284.1 201.3a8 8 0 0 1 8-8h153a8 8 0 0 1 8 8v43.9a8 8 0 0 1-8 8h-153a8 8 0 0 1-8-8v-44Z"/>
  <circle cx="360" cy="218.5" r="4" fill="#34D399"/>
  <rect width="58.6" height="6" x="356.1" y="228.5" fill="#DEE2E9" rx="3"/>
  <rect width="24.8" height="6" x="370" y="215.6" fill="#DEE2E9" rx="3"/>
  <path fill="#fff" stroke="#EDEFF3" d="M284.1 131.1a8 8 0 0 1 8-8h153a8 8 0 0 1 8 8v44a8 8 0 0 1-8 7.9h-153a8 8 0 0 1-8-8v-43.9Z"/>
  <circle cx="360" cy="149" r="4" fill="#FB923C"/>
  <rect width="58.6" height="6" x="356.1" y="159" fill="#DEE2E9" rx="3"/>
  <rect width="24.8" height="6" x="370" y="146.1" fill="#DEE2E9" rx="3"/>
  <path fill="#fff" stroke="#EDEFF3" d="M284.1 61.8a8 8 0 0 1 8-8h153a8 8 0 0 1 8 8v43.9a8 8 0 0 1-8 8h-153a8 8 0 0 1-8-8v-44Z"/>
  <circle cx="360" cy="79.5" r="4" fill="#7EA9FB"/>
  <rect width="58.6" height="6" x="356.1" y="89.5" fill="#DEE2E9" rx="3"/>
  <rect width="24.8" height="6" x="370" y="76.6" fill="#DEE2E9" rx="3"/>
  <g filter="url(#a)">
    <path fill="#fff" d="M82 175.8a8 8 0 0 1 8-7.9h146a8 8 0 0 1 7.9 8v146.9a8 8 0 0 1-8 8H90a8 8 0 0 1-7.9-8v-147Z"/>
  </g>
  <path fill="url(#b)" d="M82 67.7a8 8 0 0 1 8-8h146a8 8 0 0 1 8 8v126.2H82V67.7Z"/>
  <path fill="#000" d="M105.4 310.2h1c0 .5-.2.9-.4 1.3-.3.4-.6.7-1 .9-.4.2-1 .3-1.5.3a2.7 2.7 0 0 1-2.2-1 2 2 0 0 1-.6-1c-.2-.5-.2-1-.2-1.5v-.8c0-.5 0-1 .2-1.5.1-.4.3-.8.6-1.1.3-.3.6-.6 1-.7a3.2 3.2 0 0 1 2.7 0c.4.3.8.6 1 1 .2.3.3.8.4 1.3h-1c0-.4-.2-.7-.3-1a1 1 0 0 0-.6-.5 2 2 0 0 0-1-.2 1.8 1.8 0 0 0-1.6.8l-.3.8-.1 1v.9l.1 1c0 .4.2.7.4.9.1.3.3.4.6.6l.9.2c.4 0 .8 0 1-.2.3-.1.5-.3.6-.6l.3-1Zm5.6 1.5v-3l-.1-.6-.4-.4-.7-.1-.6.1-.5.3-.1.5h-1l.1-.6.5-.6.7-.4 1-.1c.4 0 .7 0 1 .2.4.2.6.4.8.7.2.2.3.6.3 1v3.3l.2.5v.1h-1l-.1-.4v-.5Zm.2-2.5v.6h-1l-.7.1-.6.2a.9.9 0 0 0-.5.8c0 .2 0 .4.2.5l.3.4h.6a1.6 1.6 0 0 0 1.4-.6l.2-.5.4.5c0 .1 0 .3-.2.5a2.4 2.4 0 0 1-1 .9l-.9.1c-.4 0-.7 0-1-.2-.3-.1-.5-.3-.7-.6-.2-.3-.2-.5-.2-.9l.1-.8.6-.6.8-.3 1-.1h1.2Zm4.7-2.3v.8h-3v-.8h3Zm-2-1.4h1v6.2l.3.1h.7v.8a2.3 2.3 0 0 1-.7.1l-.7-.1a1 1 0 0 1-.4-.5 2 2 0 0 1-.2-.9v-5.7Zm6.5 6.2V308l-.5-.4-.7-.1-.6.1-.4.3-.2.5h-1c0-.2 0-.4.2-.6 0-.2.2-.4.4-.6l.8-.4.9-.1c.4 0 .8 0 1.1.2l.8.7.2 1v3.4l.2.5v.1h-1l-.1-.4v-.5Zm.2-2.5v.6h-1l-.7.1-.6.2a.9.9 0 0 0-.5.8l.2.5.4.4h.6a1.6 1.6 0 0 0 1.3-.6c.2-.2.2-.3.2-.5l.5.5-.2.5a2.4 2.4 0 0 1-1.1.9l-.9.1c-.3 0-.7 0-1-.2-.3-.1-.5-.3-.7-.6l-.2-.9c0-.3 0-.5.2-.8l.5-.6.8-.3 1-.1h1.2Zm3.4-4.7v8.1h-1v-8.1h1Zm1.3 5.3.2-1.2.5-1 .9-.6 1-.2c.4 0 .8 0 1.1.2l.9.6.5 1 .2 1.1v.1l-.2 1.2-.5 1a2.4 2.4 0 0 1-2 .7c-.3 0-.7 0-1-.2a2.4 2.4 0 0 1-1.4-1.5l-.2-1.2Zm1 0 .1.8c0 .3.2.5.3.7l.5.5.8.1.7-.1.5-.5.3-.7V309a2 2 0 0 0-.3-.7l-.5-.4-.8-.2c-.2 0-.5 0-.7.2-.2 0-.3.2-.5.4l-.3.7v.8Zm9.2-2.9h.9v5.6c0 .5-.1 1-.3 1.3a2 2 0 0 1-.9.8 2.7 2.7 0 0 1-2 .2l-.7-.3a2 2 0 0 1-.7-.6l.5-.6c.3.3.5.5.8.6l.8.2c.3 0 .6 0 .8-.2l.5-.5.2-.8v-5.7Zm-4 3v-.2l.2-1.2.5-.9a2 2 0 0 1 1.6-.8c.4 0 .7 0 1 .2l.6.5.5.9.2 1.1v.5l-.2 1.1-.5 1-.6.5a2.3 2.3 0 0 1-2 0l-.6-.7-.5-1-.1-1Zm1-.2v.1l.1.8c0 .3.2.5.3.7l.5.4c.1.2.4.2.6.2.4 0 .6 0 .8-.2.3-.1.4-.3.5-.5.2-.3.3-.5.3-.8v-1.3l-.1-.5-.3-.5c-.2-.1-.3-.3-.5-.3l-.7-.2c-.2 0-.5 0-.6.2l-.5.4-.3.7v.8Z"/>
  <path fill="#4181F2" fill-rule="evenodd" d="M206.7 301.2h10c.8 0 1.6.2 2.4.4a8.3 8.3 0 0 1 4.2 12.7 7.9 7.9 0 0 1-4.2 3l-2.4.3h-10a11 11 0 0 1-2.4-.3 7.9 7.9 0 0 1-4.2-3 8.3 8.3 0 0 1 0-9.8c1-1.4 2.5-2.4 4.2-2.9l2.4-.4Z" clip-rule="evenodd"/>
  <g filter="url(#c)">
    <circle cx="216.6" cy="309.5" r="7.4" fill="#fff"/>
  </g>
  <path fill="#E5E7EB" d="M82 289h162v-1H82v1Z"/>
  <rect width="91.3" height="8.4" x="116.8" y="241.4" fill="#DEE2E9" rx="4.2"/>
  <rect width="77.4" height="8.4" x="123.7" y="260.2" fill="#EDEFF3" rx="4.2"/>
  <path fill="#1F2937" d="M336 156.7c-.1-11.6-8.6-21-19-21-10.5 0-19 9.4-19.1 21-.3.3-.5.7-.5 1.1v3.6c0 1.1 1 2 2.3 2 .5 0 1-.1 1.4-.4v2.3c0 1.4 1 2.6 2.4 2.6h1c.3.6.6 1 1 1h.8c.6 0 1.1-1.2 1.1-2.8v-12.9c0-1.6-.5-2.9-1.1-2.9h-.8c-.4 0-.8.5-1 1.2h-1c-1.4 0-2.4 1.1-2.4 2.5v2.2l-.3-.1c.4-9.5 7.5-17.1 16.1-17.1 8.7 0 15.8 7.6 16.2 17.1l-.3.1V154c0-1.4-1-2.5-2.4-2.5h-1c-.2-.7-.6-1.2-1-1.2h-.8c-.6 0-1.2 1.3-1.2 3V166c0 1.6.6 2.8 1.2 2.8h.8c.4 0 .7-.4 1-1h1c1.3 0 2.4-1.2 2.4-2.6V163c.4.3.9.4 1.4.4 1.2 0 2.2-.9 2.2-2v-3.6c0-.4-.1-.8-.4-1Zm-33.9-83.4a16.7 16.7 0 0 0-2.4 9.5c.1 5 1.4 8.5 1.4 8.5l.2 2c.3 1.2 3.5 7.3 4.7 8.6 1.1 1.3 2.3.9 2.3.9s0-1.4.2-1.3c.1.2.4.7 1.1 1.3.7.5 2.8.9 3.3 1 .4.3.6-.2.8-.2.2 0 0 .4 1.4-.5 1.4-1 1.2-1.2 1.2-1.2s.4.2.4-.3-.1-1.1-.4-1.8c-.2-.6-5.4-9.4-7.4-12.4-1.9-3-2.2-2.7-2.6-2.7-.3 0-3.3 1.3-3.4 1.9 0 .6-.9 1.2-.6 3.1.1 1.2-1.1-3.3-1-6 .1-2.6.7-5 2.4-8.2 4.6-8.5 14.4-8.2 14.4-8.2V64s-10-.3-16 9.3Z"/>
  <path fill="#1F2937" d="M334 73.3c2.1 3.5 2.5 6.7 2.4 9.5 0 5-1.3 8.5-1.3 8.5l-.3 2c-.3 1.2-3.5 7.3-4.6 8.6-1.2 1.3-2.3.9-2.3.9s-.1-1.4-.3-1.3c0 .2-.4.7-1 1.3-.7.5-2.9.9-3.3 1-.5.3-.7-.2-.9-.2-.1 0 0 .4-1.3-.5-1.4-1-1.2-1.2-1.2-1.2s-.5.2-.5-.3.2-1.1.4-1.8l7.4-12.4c2-3 2.3-2.7 2.6-2.7.3 0 3.3 1.3 3.4 1.9 0 .6 1 1.2.7 3.1-.2 1.2 1-3.3 1-6-.2-2.6-.8-5-2.4-8.2-4.6-8.5-14.4-8.2-14.4-8.2V64s10-.3 16 9.3Zm-16 130.1a20 20 0 0 0-9.1 2.2 17.6 17.6 0 0 0-6.7 6 15.3 15.3 0 0 0-2.5 8.3l2.6 16.5c0 .4.3.8.7 1 .4.2.9.2 1.3 0s.6-.6.7-1a6.9 6.9 0 0 0 4.8 2.5c1 1 2.5 1.3 4 1 1-.3 1.9-.9 2.4-1.7.6-.8.7-1.8.5-2.8l-3.3-10.5a4 4 0 0 0-1.9-2.2c-1-.4-2-.6-3.1-.3a3.9 3.9 0 0 0-2.9 2.5c-1.2.6-1.6 2-1.8 3.7l-1.4-8.7c0-3.7 1.7-7.3 4.6-10a16.7 16.7 0 0 1 22.2 0c3 2.7 4.7 6.3 4.7 10l-1.4 8.7c-.1-1.7-.6-3-1.8-3.7a3.9 3.9 0 0 0-2.9-2.5c-1-.3-2.1-.1-3 .3-1 .5-1.7 1.3-2 2.2l-3.2 10.5c-.3 1-.1 2 .4 2.8a4 4 0 0 0 2.5 1.7c1.4.3 3 0 4-1 2-.2 3.7-1 4.8-2.5 0 .5.3.8.7 1 .4.3.9.3 1.3 0 .4-.2.6-.5.6-1l2.6-16.5a15 15 0 0 0-2.4-8.2c-1.7-2.6-4-4.6-6.8-6a20 20 0 0 0-9.1-2.3ZM126.7 101.2c-4.8 8-5.6 15.7-5.5 22.3.3 11.7 3.1 19.8 3.1 19.8s0 1.4.6 4.5c.6 3 8 17.1 10.6 20.3 2.6 3 5.2 2 5.2 2s.2-3.3.5-3c.3.4 1 1.7 2.5 3s6.4 2.1 7.4 2.6c1 .4 1.5-.8 1.9-.7.4.2 0 1 3.1-1.2 3.2-2.2 2.8-2.7 2.8-2.7s1 .3 1-.8-.4-2.6-1-4a609 609 0 0 0-16.7-29.2c-4.4-7.2-5.2-6.3-6-6.3-.7 0-7.5 3-7.6 4.4-.2 1.4-2.1 2.8-1.6 7.4a39 39 0 0 1-2.2-14c.3-6 1.6-12 5.4-19.3 10.4-19.8 32.7-19 32.7-19v-7.8s-22.7-.8-36.2 21.7Zm72.5 0c4.8 8 5.5 15.7 5.4 22.3-.2 11.7-3 19.8-3 19.8s0 1.4-.6 4.5c-.6 3-8 17.1-10.6 20.3-2.6 3-5.2 2-5.2 2s-.2-3.3-.5-3c-.3.4-1 1.7-2.5 3s-6.5 2.1-7.4 2.6c-1 .4-1.5-.8-2-.7-.3.2.1 1-3-1.2-3.2-2.2-2.8-2.7-2.8-2.7s-1 .3-1-.8.3-2.6.9-4a738 738 0 0 1 16.8-29.2c4.4-7.2 5.1-6.3 6-6.3.7 0 7.5 3 7.6 4.4.2 1.4 2.1 2.8 1.5 7.4a39 39 0 0 0 2.3-14c-.3-6-1.6-12-5.4-19.3-10.4-19.8-32.8-19-32.8-19v-7.8s22.8-.8 36.3 21.7Z"/>
  <path fill="#374151" d="M135.2 217v1.3h-5v-1.2h5Zm-4.5-3.8v9.3H129v-9.3h1.6Zm5.7 0v9.3h-1.6v-9.3h1.6Zm5 9.4c-.5 0-1 0-1.3-.3a3 3 0 0 1-1.7-1.7 3 3 0 0 1-.3-1.3v-.3l.3-1.5c.1-.4.4-.8.6-1 .3-.4.6-.6 1-.8a3 3 0 0 1 1.3-.2c.5 0 .9 0 1.3.2l.9.7.5 1 .2 1.4v.7H139v-1.1h3.8v-.1c0-.3 0-.6-.2-.8 0-.3-.2-.5-.4-.6l-.8-.2-.7.1-.5.5-.3.7-.1 1v.3l.1.8c0 .3.2.5.4.7.1.2.3.3.6.4l.7.2a2.1 2.1 0 0 0 1.8-.9l.8.8-.6.6a2 2 0 0 1-.9.5l-1.1.2Zm8.1-1.5v-3.3l-.1-.6a1 1 0 0 0-.4-.4l-.7-.2-.6.1a1 1 0 0 0-.5.4l-.1.5h-1.5c0-.3 0-.6.2-.8l.5-.7 1-.5 1.1-.1c.5 0 1 0 1.4.2l1 .8c.2.4.3.8.3 1.3v4l.2.6h-1.5l-.2-.6v-.7Zm.3-2.8v1h-1.1a3 3 0 0 0-.8 0l-.5.2a1 1 0 0 0-.5.9c0 .2 0 .3.2.5 0 .2.2.3.3.4h.6a1.7 1.7 0 0 0 1.4-.6c.2-.2.2-.4.2-.5l.5.7-.2.5-.5.6a2.4 2.4 0 0 1-1.7.6c-.4 0-.8 0-1.2-.3l-.8-.7a2 2 0 0 1-.3-1c0-.4 0-.7.2-1l.6-.7a3 3 0 0 1 1-.5l1.4-.1h1.2Zm7.3 2.7v-8.3h1.6v9.8h-1.4l-.2-1.5Zm-4.4-1.9v-.1l.1-1.5c.2-.4.3-.8.6-1 .2-.4.5-.6.8-.8.4-.2.7-.2 1.2-.2.4 0 .7 0 1 .2.4.2.6.4.8.7.3.3.4.6.6 1l.3 1.4v.5l-.3 1.3c-.2.4-.3.8-.6 1a2.3 2.3 0 0 1-1.9 1 2.4 2.4 0 0 1-2-1l-.5-1.1a5 5 0 0 1-.2-1.4Zm1.5-.1v1l.3.7.5.5.7.2c.4 0 .7-.1.9-.3.2-.1.4-.3.5-.6l.3-.9v-1.1c0-.3 0-.5-.2-.7l-.3-.6-.5-.4-.7-.1c-.2 0-.5 0-.7.2-.2 0-.3.3-.5.5l-.2.7-.1.9Zm7.9-2v8.1h-1.6v-9.5h1.4l.2 1.3Zm4.4 2-.1 1.5-.5 1.1c-.3.3-.5.6-.9.7a2 2 0 0 1-1.1.3c-.5 0-.8 0-1.2-.2l-.8-.7-.5-1-.3-1.4v-.5c0-.5.2-1 .3-1.4l.5-1a2.3 2.3 0 0 1 2-1c.4 0 .8.1 1.1.3l.9.7.5 1.1.1 1.5Zm-1.5 0v-1l-.4-.6c0-.3-.2-.4-.4-.5-.2-.2-.5-.2-.8-.2l-.7.1-.4.4-.3.6-.2.7v1.2c0 .3.1.6.3.8 0 .3.3.5.5.7l.9.2c.2 0 .5 0 .7-.2l.4-.5c.2-.2.3-.5.3-.7l.1-1Zm4.6-6.3v9.8h-1.5v-9.8h1.5Zm-.3 6h-.4l.1-1.3.6-1a2.4 2.4 0 0 1 2-1l.9.2.7.4.4.8.2 1.2v4.5h-1.6V218l-.1-.8c0-.2-.2-.3-.4-.4l-.7-.1c-.3 0-.5 0-.7.2-.2 0-.4.2-.5.4a2 2 0 0 0-.4.7v.8Zm6 .4v-.1c0-.5 0-1 .2-1.4l.6-1.1c.3-.4.6-.6 1-.8.4-.2.9-.2 1.4-.2.5 0 1 0 1.3.2.4.2.8.4 1 .8l.7 1 .2 1.5v.1c0 .5 0 1-.2 1.4l-.6 1a3 3 0 0 1-2.4 1c-.5 0-1 0-1.3-.2a3 3 0 0 1-1-.7l-.7-1.1-.2-1.4Zm1.5-.1v.1l.1.9c0 .3.2.5.3.7l.5.5.8.2a1.5 1.5 0 0 0 1.3-.7l.3-.7v-2l-.3-.6a1.5 1.5 0 0 0-1.3-.7c-.3 0-.5 0-.8.2-.2 0-.3.2-.5.5l-.3.7v.9Zm8-2v5.5h-1.6v-7h1.5v1.6Zm-.3 1.8h-.5c0-.5 0-1 .2-1.4l.5-1a2.5 2.5 0 0 1 2-1l1 .2c.2 0 .4.2.6.4l.5.8.1 1.2v4.5h-1.5V218c0-.3 0-.6-.2-.8 0-.2-.2-.3-.4-.4l-.6-.1a1.5 1.5 0 0 0-1.3.6l-.3.7-.1.8Zm9.3 3.8c-.5 0-1 0-1.4-.3a3 3 0 0 1-1.7-1.7c-.2-.4-.2-.9-.2-1.3v-.3c0-.5 0-1 .2-1.5.2-.4.4-.8.7-1 .2-.4.6-.6 1-.8a3 3 0 0 1 1.2-.2c.5 0 1 0 1.3.2.3.2.7.4.9.7l.5 1c.2.5.2 1 .2 1.4v.7h-5.3v-1.1h3.8v-.1c0-.3 0-.6-.2-.8 0-.3-.2-.5-.4-.6l-.8-.2-.7.1-.5.5-.3.7-.1 1v.3l.1.8.4.7.6.4.8.2a2.1 2.1 0 0 0 1.7-.9l.8.8-.6.6-.8.5-1.2.2Zm8-2v-.4a1 1 0 0 0-.5-.4l-1-.2-1-.3-.7-.4c-.3-.2-.4-.4-.5-.6-.2-.2-.2-.5-.2-.8 0-.3 0-.5.2-.8 0-.2.3-.4.5-.6l.8-.5 1.1-.1c.6 0 1.1 0 1.5.2l1 .8c.2.4.3.7.3 1.1h-1.5c0-.1 0-.3-.2-.5a1 1 0 0 0-.4-.4l-.7-.1-.6.1-.4.3a.8.8 0 0 0 0 .8l.2.2.4.2.7.2 1.4.4.8.7c.2.3.3.6.3 1a1.8 1.8 0 0 1-.7 1.5l-1 .4a4 4 0 0 1-1 .2c-.7 0-1.2-.1-1.6-.3-.5-.3-.8-.5-1-.9a2 2 0 0 1-.4-1h1.5l.3.6.5.4h1.4l.4-.4.1-.4Z"/>
  <defs>
    <filter id="a" width="178.6" height="179.6" x="73.6" y="167.9" color-interpolation-filters="sRGB" filterUnits="userSpaceOnUse">
      <feFlood flood-opacity="0" result="BackgroundImageFix"/>
      <feColorMatrix in="SourceAlpha" result="hardAlpha" values="0 0 0 0 0 0 0 0 0 0 0 0 0 0 0 0 0 0 127 0"/>
      <feOffset dy="8.4"/>
      <feGaussianBlur stdDeviation="4.2"/>
      <feColorMatrix values="0 0 0 0 0.828212 0 0 0 0 0.83526 0 0 0 0 0.845833 0 0 0 0.3 0"/>
      <feBlend in2="BackgroundImageFix" result="effect1_dropShadow_666_47823"/>
      <feBlend in="SourceGraphic" in2="effect1_dropShadow_666_47823" result="shape"/>
    </filter>
    <filter id="c" width="28" height="28" x="202.6" y="297.9" color-interpolation-filters="sRGB" filterUnits="userSpaceOnUse">
      <feFlood flood-opacity="0" result="BackgroundImageFix"/>
      <feColorMatrix in="SourceAlpha" result="hardAlpha" values="0 0 0 0 0 0 0 0 0 0 0 0 0 0 0 0 0 0 127 0"/>
      <feOffset dy="2.5"/>
      <feGaussianBlur stdDeviation=".4"/>
      <feColorMatrix values="0 0 0 0 0 0 0 0 0 0 0 0 0 0 0 0 0 0 0.06 0"/>
      <feBlend in2="BackgroundImageFix" result="effect1_dropShadow_666_47823"/>
      <feColorMatrix in="SourceAlpha" result="hardAlpha" values="0 0 0 0 0 0 0 0 0 0 0 0 0 0 0 0 0 0 127 0"/>
      <feOffset dy="2.5"/>
      <feGaussianBlur stdDeviation="3.3"/>
      <feColorMatrix values="0 0 0 0 0 0 0 0 0 0 0 0 0 0 0 0 0 0 0.15 0"/>
      <feBlend in2="effect1_dropShadow_666_47823" result="effect2_dropShadow_666_47823"/>
      <feBlend in="SourceGraphic" in2="effect2_dropShadow_666_47823" result="shape"/>
    </filter>
    <linearGradient id="b" x1="163" x2="163" y1="59.7" y2="193.9" gradientUnits="userSpaceOnUse">
      <stop stop-color="#F59E0B"/>
      <stop offset="1" stop-color="#EE8101"/>
    </linearGradient>
  </defs>
</svg>
