<svg xmlns="http://www.w3.org/2000/svg" fill="none" viewBox="0 0 460 431">
  <path fill="url(#a)" d="M96 125.8c0-3.7 3-6.8 6.8-6.8h318.9c3.8 0 6.8 3 6.8 6.8v277.8c0 3.8-3 6.9-6.8 6.9h-319a6.9 6.9 0 0 1-6.8-6.9V125.8Z"/>
  <g filter="url(#b)">
    <rect width="364.3" height="166.3" x="32.9" y="32" fill="#fff" rx="6.4"/>
    <g opacity=".6">
      <rect width="15.4" height="125.2" x="60.8" y="46.1" fill="#10B981" rx="3.4"/>
      <rect width="15.4" height="94.3" x="79.6" y="77" fill="#064E3B" rx="3.4"/>
    </g>
    <rect width="32.6" height="6.9" x="61.6" y="178.1" fill="#DEE2E9" rx="3.4"/>
    <g opacity=".6">
      <rect width="15.4" height="68.6" x="115.6" y="102.7" fill="#10B981" rx="3.4"/>
      <rect width="15.4" height="56.6" x="134.5" y="114.7" fill="#064E3B" rx="3.4"/>
    </g>
    <rect width="32.6" height="6.9" x="116.5" y="178.1" fill="#DEE2E9" rx="3.4"/>
    <g opacity=".6">
      <rect width="15.4" height="92.6" x="170.5" y="78.7" fill="#10B981" rx="3.4"/>
      <rect width="15.4" height="79.7" x="189.4" y="91.6" fill="#064E3B" rx="3.4"/>
    </g>
    <rect width="32.6" height="6.9" x="171.3" y="178.1" fill="#DEE2E9" rx="3.4"/>
    <g opacity=".2">
      <rect width="15.4" height="126" x="225.4" y="45.3" fill="#10B981" rx="3.4"/>
      <rect width="15.4" height="95.2" x="244.2" y="76.1" fill="#064E3B" rx="3.4"/>
    </g>
    <rect width="32.6" height="6.9" x="226.2" y="178.1" fill="#DEE2E9" rx="3.4"/>
    <g opacity=".2">
      <rect width="15.4" height="79.7" x="280.2" y="91.6" fill="#10B981" rx="3.4"/>
      <rect width="15.4" height="69.4" x="299.1" y="101.8" fill="#064E3B" rx="3.4"/>
    </g>
    <rect width="32.6" height="6.9" x="281.1" y="178.1" fill="#DEE2E9" rx="3.4"/>
    <g opacity=".2">
      <rect width="15.4" height="90" x="335.1" y="81.3" fill="#10B981" rx="3.4"/>
      <rect width="15.4" height="79.7" x="353.9" y="91.6" fill="#064E3B" rx="3.4"/>
    </g>
    <rect width="32.6" height="6.9" x="335.9" y="178.1" fill="#DEE2E9" rx="3.4"/>
    <rect width="364.3" height="166.3" x="32.9" y="32" stroke="#EDEFF3" stroke-width=".9" rx="6.4"/>
  </g>
  <g filter="url(#c)">
    <rect width="364.5" height="166.4" x="32.8" y="219.6" fill="#fff" rx="6.5"/>
    <rect width="337.1" height="40.2" x="46.5" y="233.3" fill="#fff" rx="6.5"/>
    <rect width="8.2" height="8.2" x="57.2" y="249.3" stroke="#DEE2E9" stroke-width=".7" rx=".8"/>
    <circle cx="79.8" cy="253.4" r="3.4" fill="#6297FA"/>
    <rect width="26.1" height="3.4" x="93.8" y="251.7" fill="#EDEFF3" rx="1.7"/>
    <rect width="17.2" height="3.4" x="134.5" y="251.7" fill="#EDEFF3" rx="1.7"/>
    <rect width="26.1" height="3.4" x="166.3" y="251.7" fill="#EDEFF3" rx="1.7"/>
    <path fill="#1F2937" d="M213.1 248.2h.6l.6-.1.4-.4.2-.5c0-.3 0-.5-.2-.6 0-.2-.2-.3-.3-.4l-.6-.1-.6.1a1 1 0 0 0-.5 1h-.8c0-.4 0-.7.2-1l.7-.5a2 2 0 0 1 1-.2c.4 0 .7 0 1 .2.2 0 .5.3.6.5.2.3.2.6.2 1v.5l-.4.5-.6.3-.8.2h-.7v-.5Zm0 .6v-.4h.7l1 .1.5.4c.2.1.3.3.3.5l.1.5-.1.8-.4.6-.6.3-.8.1h-.8a2 2 0 0 1-.6-.4 1.5 1.5 0 0 1-.5-1.3h.7c0 .2 0 .4.2.6l.4.4h1.2l.4-.4.1-.6-.1-.7a1 1 0 0 0-.5-.3l-.6-.2h-.6Zm4.7 0-.6-.2.3-3h3v.7h-2.4l-.2 1.6.5-.2h.5l.8.1c.2 0 .4.2.6.4.1.2.3.4.3.7l.2.8c0 .3 0 .6-.2.8l-.3.6-.6.5-.9.1h-.7l-.5-.4-.5-.5-.2-.8h.8c0 .3 0 .5.2.6 0 .2.2.3.4.4h1c.2 0 .3-.2.4-.3l.2-.4a2 2 0 0 0 0-1.1l-.2-.5a1 1 0 0 0-.4-.2l-.5-.2c-.3 0-.5 0-.6.2l-.4.2Zm4 2.4v-.3l.4-.1.4.1v.7h-.8v-.4Zm5.9-3v.8l-.1 1.3-.4.8-.6.5-.8.1h-.7l-.5-.3-.4-.6-.3-.7v-3.3l.5-.8c.1-.2.3-.3.6-.4l.8-.1h.6a1.5 1.5 0 0 1 1 .8l.2.8.1 1Zm-.8 1V248a4.5 4.5 0 0 0-.2-1.3 1 1 0 0 0-.2-.3l-.3-.2-.4-.1a1 1 0 0 0-.5.1c-.2 0-.3.2-.4.3l-.2.6v2.8l.1.5c0 .2.2.3.3.4l.3.2h.9l.3-.4.3-.6v-.8Zm5.6-1v.8l-.1 1.3-.4.8-.6.5-.8.1h-.6l-.6-.3-.4-.6-.2-.7-.1-1v-1l.1-1.3.4-.8.6-.4.8-.1h.6a1.5 1.5 0 0 1 1 .8l.2.8.1 1Zm-.8 1v-1.9l-.1-.6a1 1 0 0 0-.3-.3l-.3-.2-.4-.1a1 1 0 0 0-.5.1l-.4.3-.2.6v2.8l.1.5.3.4.3.2h.9l.4-.4.2-.6v-.8Zm5.6-1v2.1l-.5.8a1 1 0 0 1-.6.5l-.8.1h-.6l-.6-.3-.4-.6-.2-.7-.1-1v-1l.1-1.3.4-.8.6-.4.8-.1h.7a1.5 1.5 0 0 1 .9.8l.3.8v1Zm-.7 1v-1.9l-.2-.6a1 1 0 0 0-.3-.3l-.3-.2-.4-.1-.5.1-.3.3-.3.6v2.8l.2.5.2.4.3.2h.9l.4-.4.2-.6v-.8Zm6.7-3.7-2.6 6.7h-.7l2.6-6.7h.7Zm3.8 3.2-.6-.1.3-3h3.1v.7h-2.4l-.2 1.6.4-.2h.6l.8.1c.2 0 .4.2.5.4l.4.7.1.8-.1.8c0 .2-.2.5-.4.6a1 1 0 0 1-.6.5l-.8.1h-.7l-.6-.4-.4-.5-.2-.8h.7l.2.6.4.4h1.1l.3-.3.3-.4a2 2 0 0 0 0-1.1l-.3-.5a1 1 0 0 0-.4-.2l-.5-.2c-.2 0-.4 0-.6.2l-.4.2Zm4.8 0-.6-.1.3-3h3.2v.7h-2.5l-.2 1.6.4-.2h.6l.8.1c.2 0 .4.2.5.4l.4.7.1.8v.8l-.4.6-.6.5-.9.1h-.7l-.6-.4-.4-.5-.2-.8h.7l.2.6.4.4h1.1l.4-.3.2-.4a2 2 0 0 0 0-1.1c0-.2-.2-.3-.3-.5a1 1 0 0 0-.3-.2l-.6-.2c-.2 0-.4 0-.6.2l-.4.2Zm4 2.5.1-.3.4-.1.3.1.1.3v.4h-.8l-.1-.4Zm6-3v.8c0 .5 0 1-.2 1.3 0 .3-.2.6-.3.8l-.7.5-.8.1h-.6l-.5-.3-.4-.6c-.2-.2-.2-.4-.3-.7v-3.3l.4-.8.6-.4.8-.1h.7a1.5 1.5 0 0 1 1 .8l.2.8v1Zm-.8 1v-1.9l-.2-.6a1 1 0 0 0-.2-.3l-.4-.2-.4-.1-.5.1-.3.3-.2.6-.1.9v1.9l.2.5.2.4.3.2h.9l.4-.4.2-.6v-.8Zm5.6-1v.8l-.1 1.3-.4.8-.6.5-.8.1h-.7l-.5-.3-.4-.6-.3-.7v-3.3l.5-.8c.1-.2.3-.3.6-.4l.8-.1h.6a1.5 1.5 0 0 1 1 .8l.2.8v1Zm-.8 1V248a4.5 4.5 0 0 0-.2-1.3 1 1 0 0 0-.2-.3l-.3-.2-.4-.1-.5.1c-.2 0-.3.2-.4.3l-.2.6v2.8l.1.5.2.4.4.2h.9l.3-.4.2-.6.1-.8Zm5.6-1v.8l-.1 1.3-.4.8-.6.5-.8.1h-.7l-.5-.3-.4-.6-.3-.7v-2l.1-1.3c0-.3.2-.6.4-.8l.6-.4.8-.1h.6a1.5 1.5 0 0 1 1 .8l.2.8.1 1Zm-.8 1V248a4.5 4.5 0 0 0-.2-1.3 1 1 0 0 0-.2-.3l-.3-.2-.4-.1a1 1 0 0 0-.5.1l-.4.3-.2.6v2.8l.1.5.3.4.3.2h.9c.1-.1.3-.2.3-.4l.3-.6v-.8Z"/>
    <rect width="69.4" height="3.4" x="207" y="259.8" fill="#EDEFF3" rx="1.7"/>
    <rect width="33.8" height="3.4" x="291.1" y="251.7" fill="#EDEFF3" rx="1.7"/>
    <rect width="33.8" height="3.4" x="339.5" y="251.7" fill="#EDEFF3" rx="1.7"/>
    <rect width="337.1" height="40.2" x="46.5" y="233.3" stroke="#EDEFF3" stroke-width=".7" rx="6.5"/>
    <rect width="337.1" height="40.2" x="46.5" y="282.8" fill="#fff" rx="6.5"/>
    <rect width="8.2" height="8.2" x="57.2" y="298.7" stroke="#DEE2E9" stroke-width=".7" rx=".8"/>
    <circle cx="79.8" cy="302.8" r="3.4" fill="#F59E0B"/>
    <rect width="26.1" height="3.4" x="93.8" y="301.1" fill="#EDEFF3" rx="1.7"/>
    <rect width="17.2" height="3.4" x="134.5" y="301.1" fill="#EDEFF3" rx="1.7"/>
    <rect width="26.1" height="3.4" x="166.3" y="301.1" fill="#EDEFF3" rx="1.7"/>
    <path fill="#1F2937" d="m213 298.2-.7-.2.3-3h3.2v.7h-2.5l-.2 1.6.4-.1.6-.1.8.1.6.4.3.7.1.8v.8l-.4.7-.6.4-.9.1h-.7l-.6-.4-.4-.5-.2-.7h.7l.2.5.4.4.6.1.5-.1.4-.3.2-.4a2 2 0 0 0 0-1.1c0-.2-.1-.3-.3-.4a1 1 0 0 0-.3-.3l-.6-.1h-.5l-.4.4Zm7.6-.7v1l-.1 1.2-.4.8c-.2.3-.4.4-.6.5l-.8.1h-.6l-.6-.3-.4-.5-.2-.8-.1-1v-1l.1-1.2.4-.8c.2-.3.4-.4.6-.5l.8-.1h.6a1.5 1.5 0 0 1 1 .8l.2.8.1 1Zm-.8 1v-1.8l-.1-.6a1 1 0 0 0-.3-.3l-.3-.2h-.9l-.4.3-.2.6v2.8l.1.5.3.4.3.2.4.1.5-.1.4-.3.2-.6v-1Zm2 2.1v-.3l.4-.1.4.1v.7l-.4.1-.4-.1v-.4Zm5.9-3v.9l-.1 1.2-.4.8c-.2.3-.4.4-.6.5l-.8.1h-.7l-.5-.3-.4-.5-.3-.8v-3.2l.5-.8c.1-.3.3-.4.6-.5l.8-.1h.6a1.5 1.5 0 0 1 1 .8l.2.8.1 1Zm-.8 1v-1.2a4.5 4.5 0 0 0-.2-1.3 1 1 0 0 0-.2-.3l-.3-.2h-.4a1 1 0 0 0-.5 0c-.2 0-.3.2-.4.3l-.2.6v2.8l.1.5c0 .2.2.3.3.4l.3.2.4.1.5-.1.3-.3.3-.6v-1Zm5.6-1v.9l-.1 1.2-.4.8c-.2.3-.4.4-.6.5l-.8.1h-.6l-.6-.3-.4-.5-.2-.8-.1-1v-1l.1-1.2.4-.8c.2-.3.4-.4.6-.5l.8-.1h.6a1.5 1.5 0 0 1 1 .8l.2.8.1 1Zm-.8 1v-1.9l-.1-.6a1 1 0 0 0-.3-.3l-.3-.2h-.4a1 1 0 0 0-.5 0l-.4.3-.2.6v2.8l.1.5.3.4.3.2.4.1.5-.1.4-.3.2-.6v-1Zm5.6-1v2.1l-.5.8c-.1.3-.3.4-.6.5l-.8.1h-.6l-.6-.3-.4-.5-.2-.8-.1-1v-1l.1-1.2.4-.8c.2-.3.4-.4.6-.5l.8-.1h.7a1.5 1.5 0 0 1 .9.8l.3.8v1Zm-.7 1v-1.9l-.2-.6a1 1 0 0 0-.3-.3l-.3-.2h-.9l-.3.3-.3.6v2.8l.2.5.2.4.3.2.4.1.5-.1c.2 0 .3-.2.4-.3l.2-.6v-1Zm6.7-3.6-2.6 6.6h-.7l2.6-6.6h.7Zm3.8 3.2-.6-.2.3-3h3.1v.7h-2.4l-.2 1.6.4-.1.6-.1.8.1.5.4.4.7.1.8-.1.8c0 .3-.2.5-.4.7l-.6.4-.8.1h-.7l-.6-.4-.4-.5-.2-.7h.7l.2.5.4.4.6.1.5-.1.3-.3.3-.4a2 2 0 0 0 0-1.1l-.3-.4a1 1 0 0 0-.4-.3l-.5-.1h-.6l-.4.4Zm4.8 0-.6-.2.3-3h3.2v.7h-2.5l-.2 1.6.4-.1.6-.1.8.1.5.4.4.7.1.8v.8l-.4.7-.6.4-.9.1h-.7l-.6-.4-.4-.5-.2-.7h.7l.2.5.4.4.6.1.5-.1.4-.3.2-.4a2 2 0 0 0 0-1.1c0-.2-.2-.3-.3-.4a1 1 0 0 0-.3-.3l-.6-.1h-.6l-.4.4Zm4 2.4.1-.3.4-.1.3.1.1.3v.4l-.4.1-.4-.1-.1-.4Zm6-3v.9c0 .4 0 .9-.2 1.2 0 .4-.2.6-.3.8-.2.3-.4.4-.7.5l-.8.1h-.6l-.5-.3-.4-.5-.3-.8v-3.2l.4-.8c.2-.3.4-.4.6-.5l.8-.1h.7a1.5 1.5 0 0 1 1 .8l.2.8v1Zm-.8 1v-1.9l-.2-.6a1 1 0 0 0-.2-.3l-.4-.2h-.9l-.3.3-.2.6-.1.9v1.9l.2.5.2.4.3.2.4.1.5-.1c.2 0 .3-.2.4-.3l.2-.6v-1Zm5.6-1v.9l-.1 1.2-.4.8c-.2.3-.4.4-.6.5l-.8.1h-.7l-.5-.3-.4-.5-.3-.8v-3.2l.5-.8c.1-.3.3-.4.6-.5l.8-.1h.6a1.5 1.5 0 0 1 1 .8l.2.8v1Zm-.8 1v-1.2a4.5 4.5 0 0 0-.2-1.3 1 1 0 0 0-.2-.3l-.3-.2h-.9c-.2 0-.3.2-.4.3l-.2.6v2.8l.1.5.2.4.4.2a1.2 1.2 0 0 0 .9 0l.3-.3.2-.6.1-1Zm5.6-1v.9l-.1 1.2-.4.8c-.2.3-.4.4-.6.5l-.8.1h-.7l-.5-.3-.4-.5-.3-.8v-2l.1-1.2c0-.4.2-.6.4-.8.2-.3.4-.4.6-.5l.8-.1h.6a1.5 1.5 0 0 1 1 .8l.2.8.1 1Zm-.8 1v-1.2a4.5 4.5 0 0 0-.2-1.3 1 1 0 0 0-.2-.3l-.3-.2h-.4a1 1 0 0 0-.5 0l-.4.3-.2.6v2.8l.1.5.3.4.3.2.4.1.5-.1.3-.3.3-.6v-1Z"/>
    <rect width="69.4" height="3.4" x="207" y="309.2" fill="#EDEFF3" rx="1.7"/>
    <rect width="33.8" height="3.4" x="291.1" y="301.1" fill="#EDEFF3" rx="1.7"/>
    <rect width="33.8" height="3.4" x="339.5" y="301.1" fill="#EDEFF3" rx="1.7"/>
    <rect width="337.1" height="40.2" x="46.5" y="282.8" stroke="#EDEFF3" stroke-width=".7" rx="6.5"/>
    <rect width="337.1" height="40.2" x="46.5" y="332.2" fill="#fff" rx="6.5"/>
    <rect width="8.2" height="8.2" x="57.2" y="348.2" stroke="#DEE2E9" stroke-width=".7" rx=".8"/>
    <circle cx="79.8" cy="352.3" r="3.4" fill="#F59E0B"/>
    <rect width="26.1" height="3.4" x="93.8" y="350.5" fill="#EDEFF3" rx="1.7"/>
    <rect width="17.2" height="3.4" x="134.5" y="350.5" fill="#EDEFF3" rx="1.7"/>
    <rect width="26.1" height="3.4" x="166.3" y="350.5" fill="#EDEFF3" rx="1.7"/>
    <path fill="#1F2937" d="M214.5 344.3v6.2h-.8v-5.2l-1.5.6v-.7l2.2-.9h.1Zm6.1 2.6v1l-.1 1.2c-.1.4-.2.7-.4.9l-.6.4-.8.2-.6-.1a1.5 1.5 0 0 1-1-.8l-.2-.8-.1-1v-1l.1-1.2.4-.8.6-.5.8-.1h.6a1.5 1.5 0 0 1 1 .8l.2.8.1 1Zm-.8 1v-1.8l-.1-.5a1 1 0 0 0-.3-.4l-.3-.2h-.9l-.4.4-.2.5v2.8l.1.6.3.3.3.3h.9l.4-.4.2-.6v-1Zm2 2.2v-.4l.4-.1.4.1v.7l-.4.1-.4-.1v-.3Zm5.9-3.2v1l-.1 1.2c-.1.4-.2.7-.4.9l-.6.4-.8.2-.7-.1c-.2 0-.3-.2-.5-.3l-.4-.5-.3-.8v-3.2l.5-.8c.1-.2.3-.4.6-.5l.8-.1h.6a1.5 1.5 0 0 1 1 .8l.2.8.1 1Zm-.8 1v-1a4.5 4.5 0 0 0-.2-1.3 1 1 0 0 0-.2-.4l-.3-.2h-.4a1 1 0 0 0-.5 0l-.4.4-.2.5v2.8l.1.6.3.3.3.3h.9l.3-.4.3-.6v-1Zm5.6-1v1l-.1 1.2c-.1.4-.2.7-.4.9l-.6.4-.8.2-.6-.1-.6-.3-.4-.5-.2-.8-.1-1v-1l.1-1.2.4-.8.6-.5.8-.1h.6a1.5 1.5 0 0 1 1 .8l.2.8.1 1Zm-.8 1v-1.8l-.1-.5a1 1 0 0 0-.3-.4l-.3-.2h-.4a1 1 0 0 0-.5 0l-.4.4-.2.5v2.8l.1.6.3.3.3.3h.9l.4-.4.2-.6v-1Zm5.6-1v2.2l-.5.9c-.1.2-.3.3-.6.4l-.8.2-.6-.1a1.5 1.5 0 0 1-1-.8l-.2-.8-.1-1v-1l.1-1.2.4-.8.6-.5.8-.1h.7a1.5 1.5 0 0 1 .9.8l.3.8v1Zm-.7 1v-1.8l-.2-.5a1 1 0 0 0-.3-.4l-.3-.2h-.9l-.3.4-.3.5v2.8l.2.6.2.3.3.3h.9l.4-.4.2-.6v-1Zm6.7-3.5-2.6 6.6h-.7l2.6-6.6h.7Zm3.8 3.2-.6-.2.3-3h3.1v.7h-2.4l-.2 1.6a2.2 2.2 0 0 1 1-.2l.8.1.5.4.4.7.1.8-.1.8c0 .3-.2.5-.4.7-.1.2-.3.3-.6.4l-.8.2-.7-.1-.6-.4-.4-.5-.2-.7h.7l.2.5.4.4.6.1h.5l.3-.4.3-.4a2 2 0 0 0 0-1.1l-.3-.4a1 1 0 0 0-.4-.3l-.5-.1h-.6l-.4.4Zm4.8 0-.6-.2.3-3h3.2v.7h-2.5l-.2 1.6a2.2 2.2 0 0 1 1-.2l.8.1.5.4.4.7.1.8v.8l-.4.7-.6.4-.9.2-.7-.1-.6-.4-.4-.5-.2-.7h.7l.2.5.4.4.6.1h.5l.4-.4.2-.4a2 2 0 0 0 0-1.1c0-.2-.2-.3-.3-.4a1 1 0 0 0-.3-.3l-.6-.1h-.6c0 .2-.2.3-.4.4Zm4 2.5.1-.4.4-.1.3.1.1.4v.3l-.4.1-.4-.1-.1-.3Zm6-3.2v1c0 .5 0 .9-.2 1.2 0 .4-.2.7-.3.9l-.7.4-.8.2-.6-.1a1.5 1.5 0 0 1-1-.8l-.2-.8v-3.2l.4-.8.6-.5.8-.1h.7a1.5 1.5 0 0 1 1 .8l.2.8v1Zm-.8 1v-1.8l-.2-.5a1 1 0 0 0-.2-.4l-.4-.2h-.9l-.3.4-.2.5-.1 1v1.8l.2.6.2.3.3.3h.9l.4-.4.2-.6v-1Zm5.6-1v1l-.1 1.2-.4.9-.6.4-.8.2-.7-.1c-.2 0-.4-.2-.5-.3l-.4-.5-.3-.8v-3.2l.5-.8c.1-.2.3-.4.6-.5l.8-.1h.6a1.5 1.5 0 0 1 1 .8l.2.8v1Zm-.8 1v-1.8l-.2-.5a1 1 0 0 0-.2-.4l-.3-.2h-.9l-.4.4-.2.5v2.8l.1.6.2.3.4.3h.9l.3-.4.2-.6.1-1Zm5.6-1v1l-.1 1.2c-.1.4-.2.7-.4.9l-.6.4-.8.2-.7-.1c-.2 0-.3-.2-.5-.3l-.4-.5-.3-.8v-2l.1-1.2c0-.4.2-.6.4-.8l.6-.5.8-.1h.6a1.5 1.5 0 0 1 1 .8l.2.8.1 1Zm-.8 1v-1.8c0-.2 0-.4-.2-.5a1 1 0 0 0-.2-.4l-.3-.2h-.4a1 1 0 0 0-.5 0l-.4.4-.2.5v2.8l.1.6.3.3.3.3h.9l.3-.4.3-.6v-1Z"/>
    <rect width="69.4" height="3.4" x="207" y="358.6" fill="#EDEFF3" rx="1.7"/>
    <rect width="33.8" height="3.4" x="291.1" y="350.5" fill="#EDEFF3" rx="1.7"/>
    <rect width="33.8" height="3.4" x="339.5" y="350.5" fill="#EDEFF3" rx="1.7"/>
    <rect width="337.1" height="40.2" x="46.5" y="332.2" stroke="#EDEFF3" stroke-width=".7" rx="6.5"/>
    <rect width="364.5" height="166.4" x="32.8" y="219.6" stroke="#EDEFF3" stroke-width=".7" rx="6.5"/>
  </g>
  <circle cx="66.8" cy="107.8" r="3" fill="#000" stroke="#000" stroke-width=".9"/>
  <circle cx="121.4" cy="142.1" r="3" fill="#000" stroke="#000" stroke-width=".9"/>
  <circle cx="231" cy="109.4" r="3" fill="#000" stroke="#000" stroke-width=".9"/>
  <circle cx="177.8" cy="115.4" r="3" fill="#000" stroke="#000" stroke-width=".9"/>
  <circle cx="286.5" cy="136" r="3" fill="#000" stroke="#000" stroke-width=".9"/>
  <circle cx="342.9" cy="114.9" r="3" fill="#000" stroke="#000" stroke-width=".9"/>
  <path stroke="#000" stroke-width="1.7" d="m67 108.1 53.1 33.7 57.5-26.4"/>
  <path stroke="#000" stroke-dasharray="3.4 3.4" stroke-width="1.7" d="m177.6 115.4 54.2-6.5 54 27 55.9-21.7"/>
  <rect width="55.7" height="3.4" x="207.4" y="307.6" fill="#4181FA" rx="1.7"/>
  <rect width="17.1" height="3.4" x="207.4" y="356.4" fill="#4181FA" rx="1.7"/>
  <rect width="40.3" height="3.4" x="207.4" y="258.7" fill="#4181FA" rx="1.7"/>
  <defs>
    <filter id="b" width="378.2" height="180.2" x="26" y="31.5" color-interpolation-filters="sRGB" filterUnits="userSpaceOnUse">
      <feFlood flood-opacity="0" result="BackgroundImageFix"/>
      <feColorMatrix in="SourceAlpha" result="hardAlpha" values="0 0 0 0 0 0 0 0 0 0 0 0 0 0 0 0 0 0 127 0"/>
      <feOffset dy="6.5"/>
      <feGaussianBlur stdDeviation="3.2"/>
      <feColorMatrix values="0 0 0 0 0.828212 0 0 0 0 0.83526 0 0 0 0 0.845833 0 0 0 0.3 0"/>
      <feBlend in2="BackgroundImageFix" result="effect1_dropShadow_511_47863"/>
      <feBlend in="SourceGraphic" in2="effect1_dropShadow_511_47863" result="shape"/>
    </filter>
    <filter id="c" width="378.2" height="180.1" x="26" y="219.3" color-interpolation-filters="sRGB" filterUnits="userSpaceOnUse">
      <feFlood flood-opacity="0" result="BackgroundImageFix"/>
      <feColorMatrix in="SourceAlpha" result="hardAlpha" values="0 0 0 0 0 0 0 0 0 0 0 0 0 0 0 0 0 0 127 0"/>
      <feOffset dy="6.5"/>
      <feGaussianBlur stdDeviation="3.2"/>
      <feColorMatrix values="0 0 0 0 0.828212 0 0 0 0 0.83526 0 0 0 0 0.845833 0 0 0 0.3 0"/>
      <feBlend in2="BackgroundImageFix" result="effect1_dropShadow_511_47863"/>
      <feBlend in="SourceGraphic" in2="effect1_dropShadow_511_47863" result="shape"/>
    </filter>
    <linearGradient id="a" x1="137.9" x2="299" y1="119" y2="560.6" gradientUnits="userSpaceOnUse">
      <stop stop-color="#EDEFF3" stop-opacity="0"/>
      <stop offset="1" stop-color="#EDEFF3"/>
    </linearGradient>
  </defs>
</svg>
