<svg xmlns="http://www.w3.org/2000/svg" fill="none" viewBox="0 0 548 365">
  <path fill="#F3F4F6" d="M.2.3h547v364.6H.1z"/>
  <g filter="url(#a)">
    <rect width="126.6" height="113.8" x="305.5" y="63.3" fill="#fff" rx="6.5"/>
    <path fill="#4181FA" d="M324.9 81.6v-2.8c0-.2-.3-.5-.5-.5-.3 0-.5.3-.5.5v2.8a1.3 1.3 0 0 0-.7 1.9h2.3l.2-.7c0-.5-.4-1-.8-1.2Zm-.5-5.4a6 6 0 0 0-5.2 9l.6.2h9.1c.3 0 .5 0 .6-.3a6 6 0 0 0-5.1-9Zm4.3 8.3H320a5 5 0 1 1 8.8 0Z"/>
    <path stroke="#1F3B6D" stroke-width=".8" d="M318.4 91.9h100.8" opacity=".1"/>
    <path fill="#2E394C" d="M368.3 141.4v1h-7.5v-.7l4.7-7.2h1l-1.1 2-3 4.9h5.9Zm-1.4-6.9v10.3h-1.3v-10.3h1.3Zm4-.5v10.8h-1.3V134h1.3Zm-.3 6.7h-.5c0-.5 0-1 .2-1.5l.7-1.1a2.8 2.8 0 0 1 2.2-1h1c.3.2.6.3.8.6l.5.8.2 1.3v5h-1.3v-5l-.2-1a1 1 0 0 0-.5-.5l-.9-.2a2 2 0 0 0-1.6.8 2.9 2.9 0 0 0-.6 1.8Z"/>
    <path fill="#EDEFF3" fill-rule="evenodd" d="M368.8 112.6a30 30 0 0 0-25.6 45.7 3.9 3.9 0 1 1-6.7 4 37.9 37.9 0 0 1 32.3-57.5 37.9 37.9 0 0 1 32.4 57.5 3.9 3.9 0 1 1-6.7-4 30.1 30.1 0 0 0-25.7-45.7Z" clip-rule="evenodd"/>
    <path stroke="url(#b)" stroke-linecap="round" stroke-width="7.8" d="M339.5 160.3a34.2 34.2 0 0 1 28.7-51.6"/>
    <rect width="125.8" height="113" x="305.9" y="63.7" stroke="#EDEFF3" stroke-width=".8" rx="6"/>
  </g>
  <g filter="url(#c)">
    <rect width="126.6" height="115.2" x="305.5" y="186.8" fill="#fff" rx="6.5"/>
    <path fill="#4181FA" d="M326.1 199.7h-7.4c-.2 0-.3.1-.3.2v.5c0 .2.1.3.3.3 0 1.7.7 3.4 2 4.3-1.3.9-2 2.6-2 4.3-.2 0-.3.1-.3.2v.5c0 .2.1.3.3.3h7.4c.1 0 .2-.1.2-.3v-.5c0-.1 0-.2-.2-.2 0-1.7-.8-3.4-2.1-4.3 1.4-.9 2-2.6 2-4.3h.1c.1 0 .2-.1.2-.3v-.5s0-.2-.2-.2Zm-3.7 4.8c-1.5 0-2.7-1.7-2.7-3.8h5.3c0 2-1.2 3.8-2.6 3.8Z"/>
    <path stroke="#1F3B6D" stroke-width=".8" d="M318.4 216.7h100.8" opacity=".1"/>
    <path fill="#EDEFF3" fill-rule="evenodd" d="M368.8 237.4a30 30 0 0 0-25.6 45.7 3.9 3.9 0 1 1-6.7 4 37.9 37.9 0 0 1 32.3-57.5 37.9 37.9 0 0 1 32.4 57.6 3.9 3.9 0 1 1-6.7-4 30.1 30.1 0 0 0-25.7-45.8Z" clip-rule="evenodd"/>
    <path stroke="url(#d)" stroke-linecap="round" stroke-width="7.8" d="M340.5 285.3a32 32 0 0 1-5.1-17.4"/>
    <path fill="#2E394C" d="M358.6 265.7v1.3h-7.1v-1.3h7Zm-2.9-3v7.5h-1.3v-7.5h1.3Zm8.7-1.8v10.4H363v-8.8l-2.6 1v-1.2l3.8-1.4h.2Zm10.6 9.3v1h-6.8v-.9l3.4-3.7 1-1.2c.2-.3.4-.6.4-.9l.2-.8c0-.3 0-.6-.2-.9l-.6-.7-1-.2c-.5 0-.9 0-1.2.3-.3.1-.5.4-.6.7a2 2 0 0 0-.3 1.1H368c0-.6.1-1.1.4-1.6.3-.5.6-.9 1.1-1.1.5-.3 1.2-.5 1.9-.5.6 0 1.2.1 1.7.4.4.2.8.5 1 1 .3.3.4.8.4 1.4 0 .3 0 .6-.2.9 0 .3-.2.6-.4 1l-.6.8-.7 1-2.8 2.9h5.2Zm1.3-6.7v-.6c0-.3 0-.7.2-1a2 2 0 0 1 1.9-1c.4 0 .8 0 1.1.2.3.2.6.5.7.8.2.3.3.7.3 1v.6c0 .4 0 .7-.3 1a2 2 0 0 1-.7.8 2 2 0 0 1-1.1.3c-.4 0-.8 0-1.1-.3a2 2 0 0 1-.8-.8l-.2-1Zm1-.6v1.2l.5.5.6.2.6-.2.4-.5.1-.6v-.6l-.1-.6a1 1 0 0 0-1-.6 1 1 0 0 0-1 .6l-.1.6Zm4 6.4v-.5c0-.4 0-.8.2-1.1l.8-.8a2 2 0 0 1 1.1-.3c.4 0 .8.1 1.1.3.4.2.6.5.8.8l.2 1v.6c0 .4 0 .7-.2 1a2 2 0 0 1-.8.8c-.3.2-.6.3-1 .3-.5 0-.9 0-1.2-.3a2 2 0 0 1-.8-.7l-.2-1.1Zm1-.5v.5l.1.6c0 .2.2.4.4.5l.6.2c.3 0 .5 0 .6-.2l.4-.5.1-.6v-1.2a1 1 0 0 0-1.1-.6 1 1 0 0 0-1 .6l-.1.7Zm1.4-6.4-5 8.1-.7-.5 5-8 .7.4Z"/>
    <rect width="125.8" height="114.3" x="305.9" y="187.2" stroke="#EDEFF3" stroke-width=".8" rx="6"/>
  </g>
  <g clip-path="url(#e)">
    <rect width="177.7" height="238.7" x="115.2" y="63.2" fill="#DEE2E9" rx="6.5"/>
    <rect width="24.9" height="24.9" x="133.7" y="76.1" fill="#4181FA" rx="6.5"/>
    <path stroke="#fff" stroke-linecap="round" stroke-linejoin="round" d="m140.1 88.5 1.4-1.3m0 0 4.7-4.7 4.7 4.7m-9.4 0v6.7c0 .4.3.7.7.7h2m6.7-7.4 1.3 1.3m-1.3-1.3v6.7c0 .4-.3.7-.7.7h-2m-4 0c.3 0 .6-.3.6-.7v-2.7c0-.4.3-.7.7-.7h1.4c.3 0 .6.3.6.7V94c0 .4.3.7.7.7m-4 0h4"/>
    <rect width="34.7" height="6.5" x="128.1" y="106.7" fill="#EDEFF3" rx="3.2"/>
    <rect width="24.9" height="24.9" x="190.2" y="76.1" fill="#4181FA" rx="6.5"/>
    <path stroke="#fff" stroke-linecap="round" stroke-linejoin="round" d="M207.1 94.3V84.1c0-.7-.5-1.3-1.2-1.3h-6.4c-.7 0-1.3.6-1.3 1.3v10.2m9 0h1.2m-1.3 0H204m-5.8 0H197m1.3 0h3.2m-.6-9h.6m-.6 2.6h.6m2.6-2.5h.6m-.6 2.5h.6m-3.2 6.4v-3.2c0-.3.3-.6.6-.6h1.3c.4 0 .7.3.7.6v3.2m-2.6 0h2.6"/>
    <rect width="34.7" height="6.5" x="185.3" y="106.7" fill="#EDEFF3" rx="3.2"/>
    <rect width="24.9" height="24.9" x="247.4" y="76.1" fill="#4181FA" rx="6.5"/>
    <path stroke="#fff" stroke-linecap="round" stroke-linejoin="round" d="M263.8 86.6v2m0 0v1.9m0-2h1.9m-2 0H262m-1.3-3.1a2.6 2.6 0 1 1-5.1 0 2.6 2.6 0 0 1 5 0Zm-6.4 8.3a3.8 3.8 0 1 1 7.7 0v.6h-7.7v-.6Z"/>
    <rect width="34.7" height="6.5" x="242.6" y="106.7" fill="#EDEFF3" rx="3.2"/>
    <path stroke="#000" stroke-width=".8" d="M128 122.8h138.8" opacity=".1"/>
    <g filter="url(#f)">
      <rect width="151.9" height="48.4" x="128.1" y="132.5" fill="#fff" rx="6.5"/>
      <rect width="29" height="29" x="137.8" y="142.2" fill="#EA580C" rx="6.5"/>
      <path fill="#FBFBFB" d="M152.6 157.3h-2.7V156h2.7c.5 0 .8 0 1.1-.2.3-.1.5-.3.7-.6l.2-1-.2-.8c-.2-.3-.4-.6-.7-.7-.3-.2-.6-.3-1.1-.3h-2.1v8.9h-1.8V151h3.9a4 4 0 0 1 2 .4c.6.3 1 .7 1.3 1.2.3.5.4 1 .4 1.7 0 .6-.1 1.2-.4 1.7-.3.4-.7.8-1.3 1a4 4 0 0 1-2 .4Z"/>
      <rect width="49.2" height="6.5" x="176.4" y="146.4" fill="#DEE2E9" rx="3.2"/>
      <rect width="90.7" height="6.5" x="176.4" y="160.6" fill="#DEE2E9" rx="3.2"/>
      <rect width="151" height="47.6" x="128.5" y="132.9" stroke="#DEE2E9" stroke-width=".8" rx="6"/>
    </g>
    <g filter="url(#g)">
      <rect width="151.9" height="48.4" x="128.1" y="187.3" fill="#fff" rx="6.5"/>
      <rect width="29" height="29" x="137.8" y="197" fill="#059669" rx="6.5"/>
      <path fill="#FBFBFB" d="M154.7 212.7h1.7a4 4 0 0 1-.5 1.8 4 4 0 0 1-1.4 1.2c-.6.3-1.3.5-2.1.5-.6 0-1.2-.2-1.7-.4s-1-.5-1.3-1c-.4-.4-.7-.9-.9-1.5-.2-.6-.3-1.3-.3-2v-.9c0-.7.1-1.4.3-2 .2-.6.5-1 .9-1.5.4-.4.8-.8 1.3-1 .5-.2 1.1-.3 1.8-.3a4 4 0 0 1 2 .4 3.5 3.5 0 0 1 1.9 3.1h-1.7c0-.4-.2-.8-.3-1.1-.2-.4-.4-.6-.7-.8l-1.2-.2c-.4 0-.8 0-1.1.2a2 2 0 0 0-.8.7l-.4 1-.2 1.5v.9c0 .5 0 1 .2 1.4 0 .4.2.8.4 1 .2.4.4.6.7.8.3.2.7.2 1.1.2.5 0 1 0 1.2-.2.3-.2.6-.4.7-.7l.4-1.1Z"/>
      <rect width="49.2" height="6.5" x="176.4" y="201.2" fill="#DEE2E9" rx="3.2"/>
      <rect width="90.7" height="6.5" x="176.4" y="215.4" fill="#DEE2E9" rx="3.2"/>
      <rect width="151" height="47.6" x="128.5" y="187.7" stroke="#DEE2E9" stroke-width=".8" rx="6"/>
    </g>
    <g filter="url(#h)">
      <rect width="151.9" height="48.4" x="128.1" y="242.1" fill="#fff" rx="6.5"/>
      <rect width="29" height="29" x="137.8" y="251.8" fill="#0284C7" rx="6.5"/>
      <path fill="#FBFBFB" d="M151.6 270.8h-2.2v-1.4h2.2a3 3 0 0 0 1.6-.4 4 4 0 0 0 1-1.2 5 5 0 0 0 .3-1.9v-.5c0-.6 0-1-.2-1.5-.1-.4-.3-.8-.6-1-.2-.4-.5-.6-.9-.7a3 3 0 0 0-1.2-.3h-2.3v-1.4h2.3c.7 0 1.3.1 2 .4.5.2 1 .5 1.4 1 .4.4.7.9 1 1.5.2.6.3 1.3.3 2v.5a4 4 0 0 1-.4 2 3 3 0 0 1-1 1.6 3 3 0 0 1-1.4 1 6 6 0 0 1-2 .3Zm-1.3-10.3v10.3h-1.7v-10.3h1.8Z"/>
      <rect width="49.2" height="6.5" x="176.4" y="256" fill="#DEE2E9" rx="3.2"/>
      <rect width="90.7" height="6.5" x="176.4" y="270.2" fill="#DEE2E9" rx="3.2"/>
      <rect width="151" height="47.6" x="128.5" y="242.6" stroke="#DEE2E9" stroke-width=".8" rx="6"/>
    </g>
  </g>
  <rect width="35.5" height="7" x="342.6" y="200.9" fill="#DEE2E9" rx="3.5"/>
  <rect width="35.5" height="7" x="342.6" y="76.7" fill="#DEE2E9" rx="3.5"/>
  <defs>
    <filter id="a" width="138.8" height="126.1" x="299.4" y="63.3" color-interpolation-filters="sRGB" filterUnits="userSpaceOnUse">
      <feFlood flood-opacity="0" result="BackgroundImageFix"/>
      <feColorMatrix in="SourceAlpha" result="hardAlpha" values="0 0 0 0 0 0 0 0 0 0 0 0 0 0 0 0 0 0 127 0"/>
      <feOffset dy="6.1"/>
      <feGaussianBlur stdDeviation="3.1"/>
      <feColorMatrix values="0 0 0 0 0.828212 0 0 0 0 0.83526 0 0 0 0 0.845833 0 0 0 0.3 0"/>
      <feBlend in2="BackgroundImageFix" result="effect1_dropShadow_659_56998"/>
      <feBlend in="SourceGraphic" in2="effect1_dropShadow_659_56998" result="shape"/>
    </filter>
    <filter id="c" width="138.8" height="127.4" x="299.4" y="186.8" color-interpolation-filters="sRGB" filterUnits="userSpaceOnUse">
      <feFlood flood-opacity="0" result="BackgroundImageFix"/>
      <feColorMatrix in="SourceAlpha" result="hardAlpha" values="0 0 0 0 0 0 0 0 0 0 0 0 0 0 0 0 0 0 127 0"/>
      <feOffset dy="6.1"/>
      <feGaussianBlur stdDeviation="3.1"/>
      <feColorMatrix values="0 0 0 0 0.828212 0 0 0 0 0.83526 0 0 0 0 0.845833 0 0 0 0.3 0"/>
      <feBlend in2="BackgroundImageFix" result="effect1_dropShadow_659_56998"/>
      <feBlend in="SourceGraphic" in2="effect1_dropShadow_659_56998" result="shape"/>
    </filter>
    <filter id="f" width="164.1" height="60.6" x="122" y="132.5" color-interpolation-filters="sRGB" filterUnits="userSpaceOnUse">
      <feFlood flood-opacity="0" result="BackgroundImageFix"/>
      <feColorMatrix in="SourceAlpha" result="hardAlpha" values="0 0 0 0 0 0 0 0 0 0 0 0 0 0 0 0 0 0 127 0"/>
      <feOffset dy="6.1"/>
      <feGaussianBlur stdDeviation="3.1"/>
      <feColorMatrix values="0 0 0 0 0.828212 0 0 0 0 0.83526 0 0 0 0 0.845833 0 0 0 0.3 0"/>
      <feBlend in2="BackgroundImageFix" result="effect1_dropShadow_659_56998"/>
      <feBlend in="SourceGraphic" in2="effect1_dropShadow_659_56998" result="shape"/>
    </filter>
    <filter id="g" width="164.1" height="60.6" x="122" y="187.3" color-interpolation-filters="sRGB" filterUnits="userSpaceOnUse">
      <feFlood flood-opacity="0" result="BackgroundImageFix"/>
      <feColorMatrix in="SourceAlpha" result="hardAlpha" values="0 0 0 0 0 0 0 0 0 0 0 0 0 0 0 0 0 0 127 0"/>
      <feOffset dy="6.1"/>
      <feGaussianBlur stdDeviation="3.1"/>
      <feColorMatrix values="0 0 0 0 0.828212 0 0 0 0 0.83526 0 0 0 0 0.845833 0 0 0 0.3 0"/>
      <feBlend in2="BackgroundImageFix" result="effect1_dropShadow_659_56998"/>
      <feBlend in="SourceGraphic" in2="effect1_dropShadow_659_56998" result="shape"/>
    </filter>
    <filter id="h" width="164.1" height="60.6" x="122" y="242.1" color-interpolation-filters="sRGB" filterUnits="userSpaceOnUse">
      <feFlood flood-opacity="0" result="BackgroundImageFix"/>
      <feColorMatrix in="SourceAlpha" result="hardAlpha" values="0 0 0 0 0 0 0 0 0 0 0 0 0 0 0 0 0 0 127 0"/>
      <feOffset dy="6.1"/>
      <feGaussianBlur stdDeviation="3.1"/>
      <feColorMatrix values="0 0 0 0 0.828212 0 0 0 0 0.83526 0 0 0 0 0.845833 0 0 0 0.3 0"/>
      <feBlend in2="BackgroundImageFix" result="effect1_dropShadow_659_56998"/>
      <feBlend in="SourceGraphic" in2="effect1_dropShadow_659_56998" result="shape"/>
    </filter>
    <linearGradient id="b" x1="351.5" x2="351.5" y1="108.7" y2="160.3" gradientUnits="userSpaceOnUse">
      <stop stop-color="#0B5CF3"/>
      <stop offset="1" stop-color="#6297FA"/>
    </linearGradient>
    <linearGradient id="d" x1="337.9" x2="337.9" y1="267.9" y2="285.3" gradientUnits="userSpaceOnUse">
      <stop stop-color="#34D399"/>
      <stop offset="1" stop-color="#08AD71"/>
    </linearGradient>
    <clipPath id="e">
      <rect width="177.7" height="238.7" x="115.2" y="63.2" fill="#fff" rx="6.5"/>
    </clipPath>
  </defs>
</svg>
