<svg xmlns="http://www.w3.org/2000/svg" fill="none" viewBox="0 0 460 434">
  <path fill="url(#a)" d="M52.1 32.3a7 7 0 0 1 7-7h339.3a7 7 0 0 1 7 7V370a7 7 0 0 1-7 7H59.1a7 7 0 0 1-7-7V32.3Z"/>
  <g filter="url(#b)">
    <rect width="226.3" height="293.5" x="24.8" y="64.9" fill="#fff" rx="7"/>
    <path fill="#1F2937" d="M46.9 100.2v-7.7h4.6v.9h-3.7V96h3.3v.8h-3.3v3.4h-1Zm7.7.1c-.3 0-.7 0-1-.2-.3-.1-.5-.3-.7-.6l-.2-1c0-.3 0-.5.2-.7l.5-.5.7-.3a8.7 8.7 0 0 1 1.7-.2l.4-.1.2-.3c0-.4-.1-.7-.3-1l-1-.2c-.3 0-.7 0-1 .2l-.4.6-.9-.3a2 2 0 0 1 1.5-1.2 3.4 3.4 0 0 1 1.5 0c.2 0 .5 0 .7.2l.5.6c.2.3.3.7.3 1.1v3.8h-1v-.8c0 .2-.1.3-.3.4l-.5.4-.9.1Zm.2-.8c.3 0 .6 0 .9-.2a1.4 1.4 0 0 0 .7-1.2v-.8l-.3.1a4.2 4.2 0 0 1-.9.2 25 25 0 0 0-1 .2c-.2 0-.3.2-.5.3l-.1.5c0 .3 0 .6.3.7.2.2.5.2.9.2Zm6.4.8A2.5 2.5 0 0 1 59 99l-.3-1.5c0-.6.1-1.1.3-1.6.3-.4.6-.8 1-1 .3-.3.8-.4 1.3-.4.4 0 .8 0 1.1.2l.8.6.4 1h-.9c0-.3-.2-.5-.4-.7-.3-.2-.6-.3-1-.3-.3 0-.6 0-.9.2l-.6.8-.2 1.1c0 .5 0 .9.2 1.2l.6.8 1 .2h.5a1.3 1.3 0 0 0 .8-1h.9a2 2 0 0 1-1.2 1.6l-1 .2Zm6-5.8v.7h-2.9v-.7h3Zm-2-1.4h.9v6l.3.3h.8l.2.8a1.8 1.8 0 0 1-.7 0H66l-.6-.6c-.2-.2-.2-.5-.2-.8v-5.7Zm7 4.8v-3.4h1v5.7h-1v-1l-.7.8c-.2.2-.6.3-1 .3a2 2 0 0 1-1-.3c-.3-.1-.5-.4-.7-.7l-.2-1.2v-3.6h.9V98c0 .4.1.7.3 1 .3.2.6.3 1 .3a1.5 1.5 0 0 0 1.4-1.5Zm2.5 2.3v-5.7h.9v.8l.6-.7 1-.2a9.7 9.7 0 0 1 .4 0v.9a2.6 2.6 0 0 0-.5 0h-.8l-.5.6-.2.7v3.6h-.9Zm5.7.1c-.4 0-.7 0-1-.2-.3-.1-.6-.3-.7-.6-.2-.2-.3-.6-.3-1 0-.3 0-.5.2-.7l.5-.5.7-.3a8.7 8.7 0 0 1 1.7-.2l.5-.1.1-.3c0-.4 0-.7-.3-1l-.9-.2c-.4 0-.8 0-1 .2l-.5.6-.8-.3a2 2 0 0 1 1.4-1.2 3.4 3.4 0 0 1 1.5 0c.2 0 .5 0 .7.2l.6.6.2 1.1v3.8h-1v-.8l-.3.4-.6.4-.8.1Zm0-.8c.4 0 .7 0 1-.2a1.4 1.4 0 0 0 .7-1.2v-.8l-.2.1a4.2 4.2 0 0 1-1 .2 25 25 0 0 0-1 .2c-.2 0-.3.2-.4.3-.2.1-.2.3-.2.5 0 .3 0 .6.3.7.2.2.5.2.9.2Z"/>
    <rect width="21.1" height="21.1" x="209" y="86" fill="#4181FA" rx="10.5"/>
    <path fill="#FBFBFB" d="M223.7 95.7h-3.4v-3.4c0-.2-.2-.3-.4-.3h-.7c-.3 0-.4.1-.4.3v3.4h-3.4c-.2 0-.4.2-.4.4v.7c0 .2.2.4.4.4h3.4v3.4c0 .2.1.4.4.4h.7c.2 0 .4-.2.4-.4v-3.4h3.4c.1 0 .3-.2.3-.4v-.7c0-.2-.2-.4-.3-.4Z"/>
    <path fill="#1F2937" d="M62.4 139.1v3.4H47l-.2-2.6 8.9-14.1H59l-3.6 6-4.4 7.3h11.4ZM60 125.8V147h-4.3v-21.3H60Zm19.4 8.8v3.7c0 1.6-.2 3-.5 4.1a7.6 7.6 0 0 1-1.5 2.9c-.7.7-1.4 1.2-2.3 1.6-.9.3-1.9.5-3 .5-.8 0-1.6 0-2.3-.3a6 6 0 0 1-3.6-2.8c-.4-.7-.7-1.6-1-2.6-.2-1-.3-2.1-.3-3.4v-3.7c0-1.6.2-3 .5-4.2.4-1.1.9-2 1.5-2.8a6 6 0 0 1 2.3-1.6c.9-.4 1.9-.5 3-.5.8 0 1.6 0 2.3.3a6 6 0 0 1 3.6 2.8c.4.7.7 1.6 1 2.6.2 1 .3 2 .3 3.4Zm-4.3 4.2V134l-.1-2c0-.6-.2-1.1-.4-1.5a3 3 0 0 0-.6-1c-.2-.3-.5-.4-.8-.6a3 3 0 0 0-1-.1c-.5 0-1 0-1.3.2-.4.2-.7.5-1 1l-.6 1.6-.1 2.4v6.8l.5 1.6c.1.4.3.7.6 1l.8.5a3 3 0 0 0 2.3 0l1-1 .5-1.6c.2-.7.2-1.5.2-2.5Zm11.7 4.8v2.8c0 1-.3 2.2-.9 3.3a9 9 0 0 1-2 2.7l-2.2-1.1a91 91 0 0 0 1.3-2.9l.2-1.8v-3h3.6Zm17.9-9v3.7c0 1.6-.2 3-.5 4.1a7.5 7.5 0 0 1-1.5 2.9c-.7.7-1.4 1.2-2.3 1.6-.9.3-1.9.5-3 .5-.8 0-1.6 0-2.3-.3a6 6 0 0 1-3.6-2.8c-.4-.7-.7-1.6-1-2.6-.2-1-.3-2.1-.3-3.4v-3.7c0-1.6.2-3 .5-4.2.4-1.1.9-2 1.5-2.8a6 6 0 0 1 2.3-1.6c.9-.4 1.9-.5 3-.5.8 0 1.6 0 2.3.3a6 6 0 0 1 3.6 2.8 9 9 0 0 1 1 2.6c.2 1 .3 2 .3 3.4Zm-4.3 4.2V134l-.1-2c0-.6-.2-1.1-.4-1.5a3 3 0 0 0-.6-1c-.2-.3-.5-.4-.8-.6a3 3 0 0 0-1-.1c-.5 0-1 0-1.3.2-.4.2-.7.5-1 1l-.6 1.6-.1 2.4v6.8l.5 1.6c.1.4.3.7.6 1l.8.5a3 3 0 0 0 2.3 0l1-1 .5-1.6c.2-.7.2-1.5.2-2.5Zm21.8-4.2v3.7c0 1.6-.1 3-.5 4.1a7.6 7.6 0 0 1-1.5 2.9 6 6 0 0 1-2.2 1.6c-1 .3-1.9.5-3 .5-.8 0-1.6 0-2.4-.3a6 6 0 0 1-3.5-2.8c-.4-.7-.7-1.6-1-2.6-.2-1-.3-2.1-.3-3.4v-3.7c0-1.6.2-3 .5-4.2.4-1.1.9-2 1.5-2.8.6-.7 1.4-1.3 2.3-1.6a7 7 0 0 1 3-.5c.8 0 1.6 0 2.3.3a6 6 0 0 1 3.5 2.8c.5.7.8 1.6 1 2.6.2 1 .3 2 .3 3.4Zm-4.2 4.2V134l-.1-2-.4-1.5a3 3 0 0 0-.6-1l-.8-.6a3 3 0 0 0-1-.1c-.6 0-1 0-1.4.2a3 3 0 0 0-.9 1l-.6 1.6-.2 2.4v4.8c0 .8 0 1.5.2 2 0 .6.2 1.1.3 1.6l.6 1 .9.5a3 3 0 0 0 2.3 0l1-1 .5-1.6.2-2.5Z"/>
    <rect width="115.1" height="7" x="45.9" y="158.5" fill="#EDEFF3" rx="3.5"/>
    <rect width="73.8" height="3.5" x="45.9" y="169" fill="#EDEFF3" rx="1.8"/>
    <rect width="73.8" height="3.5" x="45.9" y="176.1" fill="#EDEFF3" rx="1.8"/>
    <path fill="#6B7280" d="m48.3 207.8 1.7-4.6h.7l-2 5.5h-.5l.1-.9Zm-1.5-4.6 1.6 4.6.2.9h-.5l-2-5.5h.7Zm6.2 5.5a2 2 0 0 1-.7-.1 1.7 1.7 0 0 1-1-1l-.1-.8v-.2l.1-.9.4-.6a1.7 1.7 0 0 1 2-.4c.2 0 .4.2.5.4l.3.6.1.8v.3h-3v-.5h2.3l-.1-.6a1 1 0 0 0-.3-.4.9.9 0 0 0-.6-.2 1 1 0 0 0-.7.4l-.3.5v1.3c0 .2.2.3.3.5a1.1 1.1 0 0 0 .9.4c.2 0 .4 0 .6-.2.2 0 .3-.2.4-.4l.5.4-.4.3c-.1.2-.3.3-.5.3a2 2 0 0 1-.7.1Zm3.2-3.2v3.2h-.6v-4.1h.6v.9Zm-.1 1h-.3l.1-.8.4-.6a1.5 1.5 0 0 1 1.1-.6l.6.1.4.3.3.4v3.4H58v-3.2l-.3-.3a1 1 0 0 0-.5 0 1 1 0 0 0-.8.3 1.5 1.5 0 0 0-.3 1Zm5.5 1.7.4-.1.4-.3.1-.4h.7l-.3.7a1.7 1.7 0 0 1-1.3.6l-.8-.1c-.3-.1-.4-.3-.6-.5a2 2 0 0 1-.3-.6l-.1-.8v-.9l.4-.7.6-.4.8-.2c.3 0 .6 0 .8.2l.6.5.2.8h-.7l-.1-.5-.4-.3a1 1 0 0 0-.4-.1 1 1 0 0 0-.9.5l-.2.4v1.2l.2.5.3.3.6.2Zm4.2.5a2 2 0 0 1-.8-.1 1.7 1.7 0 0 1-1-1v-1.9l.5-.6a1.7 1.7 0 0 1 2-.4c.2 0 .3.2.5.4l.3.6v1.1h-3v-.5h2.4l-.1-.6a1 1 0 0 0-.3-.4.9.9 0 0 0-.6-.2 1 1 0 0 0-.8.4l-.2.5v1.3l.2.5a1.1 1.1 0 0 0 1 .4c.2 0 .4 0 .5-.2.2 0 .4-.2.5-.4l.4.4-.3.3c-.2.2-.3.3-.5.3a2 2 0 0 1-.7.1Zm6.2 0a2 2 0 0 1-.7-.1 1.7 1.7 0 0 1-1-1l-.1-.8v-.2l.1-.9.4-.6a1.7 1.7 0 0 1 2-.4c.2 0 .4.2.5.4l.3.6.1.8v.3h-3v-.5h2.3v-.6a1 1 0 0 0-.4-.4.9.9 0 0 0-.5-.2 1 1 0 0 0-.8.4l-.2.5-.1.6v.7l.3.5a1.1 1.1 0 0 0 .9.4c.2 0 .4 0 .6-.2.2 0 .3-.2.5-.4l.4.4-.4.3c-.1.2-.3.3-.5.3a2 2 0 0 1-.7.1Zm3.3-5.8v5.8h-.7v-5.8h.7Zm6.8 5.2v.6h-3.5v-.5l1.7-2 .6-.7.2-.4v-.9l-.4-.4a1 1 0 0 0-.5-.1l-.6.1-.3.4-.2.6h-.7c0-.3.1-.6.3-.8 0-.3.3-.5.6-.6a2 2 0 0 1 1-.3c.3 0 .6 0 .8.2.3.1.5.3.6.5l.2.8-.1.5-.2.5-.4.4c0 .2-.2.4-.3.5l-1.5 1.6H82Zm4.3-2.6v2l-.4.7-.6.4a2 2 0 0 1-.7.1 2 2 0 0 1-.6 0l-.4-.3-.4-.4-.2-.7-.1-1v-.8l.1-1.1c0-.3.2-.6.4-.8l.5-.4h1.3a1.3 1.3 0 0 1 .8.7l.3.7v.9Zm-.7 1v-1.8l-.1-.4a1 1 0 0 0-.2-.4l-.3-.2a1 1 0 0 0-.4 0 1 1 0 0 0-.4 0l-.4.4-.1.5-.1.8v1.7l.2.5c0 .1 0 .2.2.3 0 .1.1.2.3.2h.8l.3-.3.2-.6v-.8Zm6.5 1.4v-5h.7v5.8h-.7v-.8Zm-2.8-1.2v-.1l.1-.8.4-.7.5-.4.6-.2c.3 0 .5 0 .7.2.2 0 .3.2.5.3l.3.7.2.8v.3l-.2.8c0 .3-.2.5-.3.6l-.5.4a1.6 1.6 0 0 1-1.3 0l-.5-.4a2 2 0 0 1-.4-.7v-.8Zm.7-.1v.6l.3.5c0 .2.2.3.3.3l.5.2a1 1 0 0 0 1-.6l.1-.5v-1l-.1-.3-.2-.4a1 1 0 0 0-.3-.2 1 1 0 0 0-.5 0 1 1 0 0 0-.5 0 1 1 0 0 0-.3.4l-.2.4v.6Zm5.7 2.1a2 2 0 0 1-.8-.1 1.7 1.7 0 0 1-1-1l-.1-.8v-.2l.1-.9.4-.6a1.7 1.7 0 0 1 2-.4c.2 0 .4.2.5.4l.3.6.1.8v.3h-3v-.5h2.3v-.6a1 1 0 0 0-.4-.4.9.9 0 0 0-.5-.2 1 1 0 0 0-.8.4l-.2.5-.1.6v.7l.3.5a1.1 1.1 0 0 0 .9.4c.2 0 .4 0 .6-.2.2 0 .3-.2.5-.4l.4.4-.4.3c0 .2-.3.3-.5.3a2 2 0 0 1-.6.1Zm8.8-5.5v5.5h-.7l-2.7-4.3v4.3h-.8v-5.5h.8l2.7 4.2v-4.2h.7Zm1.2 3.5v-.1l.1-.8c0-.3.2-.5.4-.7l.5-.4.8-.2c.3 0 .6 0 .8.2.2 0 .4.2.6.4.1.2.3.4.3.7l.2.8c0 .4 0 .6-.2.9l-.3.7a1.7 1.7 0 0 1-1.4.5l-.8-.1a1.7 1.7 0 0 1-.9-1.1l-.1-.8Zm.7-.1v.7l.2.4.4.4h1l.4-.4.2-.4V206l-.2-.5a1 1 0 0 0-.9-.4 1 1 0 0 0-.5.1 1 1 0 0 0-.4.3l-.2.5v.6Zm5.1 1.4 1.2-3.4h.7l-1.5 4h-.5l.1-.6Zm-.9-3.4 1.2 3.5v.6h-.4l-1.5-4.1h.7Zm4.3 0v4h-.7v-4h.7Zm-.7-1v-.4h.7l.1.3-.1.3-.3.1-.3-.1-.1-.3Zm3.7 5.1a2 2 0 0 1-.8-.1 1.7 1.7 0 0 1-1-1l-.1-.8v-.2l.1-.9.4-.6a1.7 1.7 0 0 1 2-.4c.2 0 .4.2.6.4l.3.6v1.1h-3v-.5h2.4c0-.3 0-.4-.2-.6a1 1 0 0 0-.3-.4.9.9 0 0 0-.5-.2 1 1 0 0 0-.8.4l-.2.5-.1.6v.7l.3.5a1.1 1.1 0 0 0 1 .4c.2 0 .4 0 .5-.2.2 0 .3-.2.5-.4l.4.4-.3.3c-.2.2-.3.3-.5.3a2 2 0 0 1-.7.1Zm3.2-3.3v3.3h-.7v-4.1h.6v.8Zm-.2 1h-.3l.1-.7.3-.6.6-.4.7-.2.5.1a1 1 0 0 1 .7.7v3.4h-.6V206l-.1-.5-.3-.3a1 1 0 0 0-.5 0 1 1 0 0 0-.5 0l-.3.3-.2.5v.5Zm2.7-.3-.5.1.1-.6.3-.6.5-.3.7-.2.6.1c.2 0 .3.2.4.3l.3.4v3.4h-.6V206l-.1-.5c0-.2-.2-.3-.3-.3a1.2 1.2 0 0 0-.9 0l-.3.2-.2.3v.4Zm3.7-3.2h.7v5.8h-.7v-5.8Zm3.4 3.7v.9l-.4.7a1.4 1.4 0 0 1-1.2.5h-.6l-.5-.5a2 2 0 0 1-.4-.6l-.1-.8v-.3l.1-.8.4-.7c.1-.1.3-.3.5-.3l.6-.2c.3 0 .5 0 .7.2.2 0 .4.2.5.4l.3.7.1.8Zm-.7 0v-.6l-.2-.4a.9.9 0 0 0-.8-.5 1 1 0 0 0-.8.3l-.3.4v1.3l.1.5.4.4.6.2c.1 0 .3 0 .4-.2.2 0 .3-.1.4-.3l.2-.5v-.5Zm2.4-1.4v3.5h-.7v-4.1h.7v.6Zm1.3-.6v.6h-.8a.9.9 0 0 0-.5.6v.4l-.3.1v-.7l.3-.5.4-.4a1.1 1.1 0 0 1 .9-.1Zm2.4 4.1a2 2 0 0 1-.8-.1 1.7 1.7 0 0 1-1-1v-1.9l.5-.6a1.7 1.7 0 0 1 2-.4c.2 0 .3.2.5.4l.3.6v1.1h-3v-.5h2.4l-.1-.6a1 1 0 0 0-.3-.4.9.9 0 0 0-.6-.2 1 1 0 0 0-.8.4l-.2.5v1.3l.2.5a1.1 1.1 0 0 0 1 .4c.2 0 .4 0 .5-.2.2 0 .4-.2.5-.4l.4.4-.3.3c-.2.2-.3.3-.5.3a2 2 0 0 1-.7.1Zm7.1-.8v-5h.7v5.8h-.6v-.8Zm-2.7-1.2v-.9l.4-.7.5-.4.7-.2c.2 0 .5 0 .7.2.2 0 .3.2.4.3l.4.7.1.8v.3l-.1.8c-.1.3-.2.5-.4.6 0 .2-.3.3-.4.4a1.6 1.6 0 0 1-1.4 0l-.5-.4-.3-.7-.1-.8Zm.7-.1v.6l.2.5c.1.2.2.3.4.3l.5.2a1 1 0 0 0 .9-.6l.2-.5v-1l-.1-.3-.3-.4a1 1 0 0 0-.3-.2 1 1 0 0 0-.4 0 1 1 0 0 0-.5 0 1 1 0 0 0-.4.4l-.2.4v.6Zm5.6 2.1a1.7 1.7 0 0 1-1.7-1.2l-.1-.7v-.2l.1-.9.4-.6a1.7 1.7 0 0 1 2-.4c.2 0 .4.2.5.4l.3.6.1.8v.3h-3v-.5h2.3l-.1-.6a1 1 0 0 0-.3-.4.9.9 0 0 0-.6-.2 1 1 0 0 0-.8.4l-.2.5v1.3c0 .2.2.3.3.5a1.1 1.1 0 0 0 .9.4c.2 0 .4 0 .6-.2l.4-.4.4.4-.3.3c-.1.2-.3.3-.5.3a2 2 0 0 1-.7.1Zm8.1-.6v.6h-3.6v-.5l1.8-2 .5-.7.3-.4v-.9l-.4-.4a1 1 0 0 0-.5-.1l-.6.1-.4.4v.6h-.8c0-.3 0-.6.2-.8l.6-.6a2 2 0 0 1 1-.3c.3 0 .6 0 .9.2l.5.5c.2.2.2.5.2.8v.5l-.3.5-.3.4-.4.5-1.4 1.6h2.7Zm4.3-2.6v.8l-.1 1.2c0 .3-.2.5-.4.7l-.5.4a2 2 0 0 1-.7.1 2 2 0 0 1-.6 0c-.2 0-.3-.2-.5-.3l-.3-.4-.3-.7v-2.9l.4-.8.6-.4h1.3a1.3 1.3 0 0 1 .8.7l.2.7.1.9Zm-.7 1v-1.1a4 4 0 0 0-.2-1.1 1 1 0 0 0-.2-.4l-.3-.2a1 1 0 0 0-.3 0 1 1 0 0 0-.5 0l-.3.4-.2.5v2.5l.1.5.2.3.3.2h.8c.2 0 .3-.2.3-.3l.2-.6.1-.8Zm5.3 1.6v.6h-3.6v-.5l1.8-2 .5-.7c.2-.1.3-.3.3-.4v-.9l-.4-.4a1 1 0 0 0-.5-.1l-.6.1-.3.4-.2.6h-.7l.2-.8.6-.6a2 2 0 0 1 1-.3c.4 0 .7 0 1 .2l.5.5.2.8-.1.5-.2.5-.4.4a7 7 0 0 1-.4.5l-1.4 1.6h2.7Zm4.5 0v.6h-3.6v-.5l1.8-2 .5-.7.3-.4v-.9l-.4-.4a1 1 0 0 0-.5-.1l-.6.1-.4.4-.1.6h-.7c0-.3 0-.6.2-.8.1-.3.3-.5.6-.6a2 2 0 0 1 1-.3c.3 0 .6 0 .9.2l.5.5c.2.2.2.5.2.8v.5l-.3.5-.3.4-.4.5-1.5 1.6h2.8Z"/>
    <path stroke="#1F2937" stroke-width=".9" d="M46 226.2h184" opacity=".1"/>
    <path stroke="#6B7280" stroke-linecap="round" stroke-linejoin="round" stroke-width=".8" d="M46 247.8v.5c0 .7.5 1.3 1.1 1.3h4c.7 0 1.2-.6 1.2-1.3v-.5m-1.6-1.7-1.6 1.7m0 0-1.6-1.7m1.6 1.7v-5.3"/>
    <path fill="#6B7280" d="M58.8 248.3h-1.1v-.6h1.1c.4 0 .7 0 1-.2.3-.2.5-.4.6-.7l.2-1v-.4l-.1-.8-.4-.7c-.1-.1-.3-.3-.5-.3l-.7-.2h-1.2v-.6h1.2c.4 0 .7 0 1 .2l.7.5.5.8.2 1.1v.3c0 .4 0 .8-.2 1.1a2.2 2.2 0 0 1-1.2 1.3l-1 .2Zm-.7-5.5v5.5h-.8v-5.5h.8Zm6 5.6a2 2 0 0 1-.8-.2 1.7 1.7 0 0 1-1-1v-1.9l.5-.6a1.7 1.7 0 0 1 1.2-.5l.7.1.6.4.3.7v1.1h-3v-.6H65l-.1-.6a1 1 0 0 0-.3-.4.9.9 0 0 0-.6-.2 1 1 0 0 0-.8.4l-.2.5v1.4l.2.4.4.3.5.1.6-.1.5-.4.4.3-.3.4c-.2 0-.3.2-.5.3a2 2 0 0 1-.7 0Zm4.9-1.2-.1-.3-.3-.2-.6-.2-.6-.1-.5-.3a1 1 0 0 1-.4-.8c0-.1 0-.3.2-.4l.3-.4.4-.2.7-.1.8.1.5.5.2.6h-.7v-.3l-.4-.3a1 1 0 0 0-.4 0 1 1 0 0 0-.5 0l-.3.2a.6.6 0 0 0 0 .5l.1.2.3.1.5.2.8.2.5.4.1.6a1 1 0 0 1-.4.8l-.5.3h-.6a2 2 0 0 1-1-.1l-.5-.5-.2-.7h.7c0 .2 0 .4.2.5l.3.2a1.5 1.5 0 0 0 1 0s.2 0 .2-.2l.2-.3Zm3.3.6.5-.1.3-.3.1-.4h.7c0 .3 0 .5-.2.7a1.7 1.7 0 0 1-1.4.7c-.3 0-.6 0-.8-.2-.2 0-.4-.2-.6-.4a2 2 0 0 1-.3-.7l-.1-.8v-.1l.1-.8.3-.6.6-.5.8-.1c.3 0 .6 0 .8.2.3 0 .5.3.6.5l.2.7h-.7v-.4l-.4-.3a1 1 0 0 0-.5-.2 1 1 0 0 0-.9.5l-.2.5v1.2l.2.4.4.4.5.1Zm4.9-.2v-2l-.1-.5-.3-.3a1 1 0 0 0-.5 0H76c-.2 0-.3.2-.3.2l-.1.4h-.7v-.5l.4-.4.5-.2.7-.1.8.1.5.5.2.7v2.3l.1.4v.1h-.7v-.3l-.1-.4Zm.1-1.8v.5h-1.2l-.4.2-.2.2-.1.4v.3l.3.3h1l.4-.4.2-.4.3.4-.2.3a1.7 1.7 0 0 1-.8.7h-1.3l-.5-.5-.1-.6.1-.6c0-.2.2-.3.4-.4l.6-.3h1.5Zm2.5-1v3.5H79v-4h.7v.6Zm1.3-.6v.7h-.8l-.3.2-.2.3-.1.4-.2.2v-.7l.3-.6c0-.2.2-.3.4-.4a1.1 1.1 0 0 1 .9 0Zm3.3 0h.6v4c0 .4 0 .7-.2 1l-.6.5a2 2 0 0 1-1.4.1 2 2 0 0 1-.6-.2c-.2 0-.3-.2-.4-.4l.3-.4.6.4.5.1h.6l.4-.5.1-.6v-4Zm-2.8 2.1v-1l.4-.6a1.4 1.4 0 0 1 1.2-.5l.6.1c.2 0 .4.2.5.4l.3.6.2.8v.3c0 .3 0 .6-.2.8 0 .3-.1.5-.3.7-.1.1-.3.3-.5.3a1.6 1.6 0 0 1-1.3 0c-.2 0-.4-.2-.5-.4a2 2 0 0 1-.3-.7 3 3 0 0 1-.1-.8Zm.7 0v.6l.2.5.3.3H84l.4-.4.2-.6v-.9l-.2-.4c0-.1 0-.2-.2-.3a1 1 0 0 0-.3-.3 1 1 0 0 0-.5 0 1 1 0 0 0-.5 0 1 1 0 0 0-.3.4l-.2.5v.5Zm6.3 1.3v-2l-.1-.5-.3-.3a1 1 0 0 0-.5 0h-.5l-.3.2v.4H86l.1-.5.4-.4.5-.2.6-.1.8.1.6.5.1.7v2.3l.2.4v.1h-.7l-.1-.3v-.4Zm0-1.8v.5h-1.1l-.4.2-.3.2v.7l.3.3h1l.4-.4.1-.4.3.4-.1.3a1.7 1.7 0 0 1-.8.7h-1.3l-.5-.5-.2-.6c0-.2 0-.4.2-.6 0-.2.2-.3.3-.4l.6-.3h1.6Zm2.5-1v3.5h-.6v-4h.6v.6Zm1.3-.6v.7h-.8l-.3.2-.2.3v.4l-.3.2.1-.7.2-.6.4-.4a1.1 1.1 0 0 1 1 0Zm3.8 4.1h-.7v-4.5c0-.3 0-.5.2-.7 0-.2.2-.4.4-.5l.8-.1a2 2 0 0 1 .4 0v.6h-.8l-.2.3v4.9Zm.9-4v.5h-2.2v-.6H97Zm3.3 3.3v-2l-.1-.5-.3-.3a1 1 0 0 0-.5 0H99l-.3.2v.4h-.8l.1-.5.4-.4.5-.2.6-.1.8.1c.3.1.4.3.6.5l.2.7v2.3l.1.4v.1h-.7l-.1-.3v-.4Zm0-1.8v.5h-1.1l-.4.2-.3.2v.7l.3.3h1l.4-.4.1-.4.3.4-.1.3a1.7 1.7 0 0 1-.8.7h-1.3l-.5-.5-.2-.6c0-.2 0-.4.2-.6 0-.2.2-.3.3-.4l.6-.3h1.6Zm3.5 2 .4-.1c.2 0 .3-.2.4-.3l.1-.4h.7c0 .3 0 .5-.2.7a1.7 1.7 0 0 1-1.4.7c-.3 0-.6 0-.8-.2-.2 0-.4-.2-.6-.4a2 2 0 0 1-.3-.7l-.1-.8v-.9l.4-.6.6-.5.8-.1c.3 0 .6 0 .8.2.3 0 .4.3.6.5l.2.7h-.7l-.1-.4c0-.2-.2-.3-.3-.3a1 1 0 0 0-.5-.2 1 1 0 0 0-.9.5l-.2.5v1.2l.2.4c0 .2.2.3.3.4l.6.1Zm4.2-3.6v.6h-2.2v-.6h2.2Zm-1.5-1h.7v4l.1.4.2.1h.2a1.1 1.1 0 0 0 .3 0v.6a1.7 1.7 0 0 1-.5 0 1 1 0 0 1-.5 0 .8.8 0 0 1-.3-.4l-.2-.6v-4Zm4.9 4.2v-3.2h.7v4.1h-.7v-1Zm.1-.9h.3v.7l-.3.6-.5.4-.8.2-.5-.1a1 1 0 0 1-.7-.7l-.1-.7v-2.7h.7v3.1l.2.3.3.1h.8l.4-.5.1-.7Zm2.5-1.6v3.4h-.7v-4h.6v.6Zm1.2-.7v.7h-.7c-.2 0-.3.1-.3.2l-.3.3v.4l-.2.2v-.7l.3-.6c0-.2.2-.3.4-.4a1.1 1.1 0 0 1 .8 0Zm3 3.4v-2.5l-.4-.3a1 1 0 0 0-.4 0h-.5l-.3.2-.1.4h-.7l.1-.5.3-.4.5-.2.7-.1.8.1.5.5c.2.2.2.4.2.7v2.3l.2.4v.1h-.8v-.7Zm.1-1.8v.5h-1.2l-.4.2-.2.2v.7l.3.3h.9l.4-.4.2-.4.3.4s0 .2-.2.3a1.7 1.7 0 0 1-.7.7h-1.3l-.5-.5-.2-.6.1-.6.4-.4.6-.3h1.5Z"/>
    <rect width="17.1" height="3.7" x="45.9" y="262.4" fill="#EDEFF3" rx="1.9"/>
    <rect width="65.6" height="3.7" x="70.1" y="262.4" fill="#EDEFF3" rx="1.9"/>
    <rect width="17.1" height="3.7" x="45.9" y="276.6" fill="#EDEFF3" rx="1.9"/>
    <rect width="65.6" height="3.7" x="70.1" y="276.6" fill="#EDEFF3" rx="1.9"/>
    <rect width="17.1" height="3.7" x="45.9" y="290.9" fill="#EDEFF3" rx="1.9"/>
    <rect width="65.6" height="3.7" x="70.1" y="290.9" fill="#EDEFF3" rx="1.9"/>
    <rect width="184.1" height="28.5" x="45.9" y="308.7" fill="#4181FA" rx="3.5"/>
    <path fill="#fff" d="M127.1 325.8v1.2h-4.6v-1.2h4.6Zm-4.2-7.6v8.8h-1.5v-8.8h1.5Zm3.6 3.7v1.1h-4v-1h4Zm.6-3.7v1.2h-4.6v-1.2h4.6Zm2.7 3.7v5h-1.4v-6.4h1.3l.1 1.4Zm-.2 1.6h-.5c0-.5 0-1 .2-1.3l.5-1c.2-.3.5-.5.8-.6l1-.3c.4 0 .7 0 1 .2.2 0 .4.2.6.4l.4.7.2 1.2v4.2h-1.5v-4.2l-.1-.8-.4-.4h-.7a1.4 1.4 0 0 0-1.1.5 2 2 0 0 0-.3.6l-.1.8Zm8 2.3 1.5-5.3h1.5l-2.2 6.5h-1l.1-1.2Zm-1.3-5.3 1.6 5.3.1 1.2h-1l-2.2-6.5h1.5Zm7 0v6.5h-1.5v-6.5h1.4Zm-1.6-1.7c0-.3 0-.4.2-.6l.6-.2c.3 0 .5 0 .6.2.2.2.3.3.3.6 0 .2-.1.4-.3.5l-.6.2c-.2 0-.4 0-.6-.2a.7.7 0 0 1-.2-.5Zm7 6.9v-3.1c0-.3 0-.5-.2-.6 0-.2-.2-.3-.3-.4l-.7-.2c-.2 0-.4 0-.6.2a1 1 0 0 0-.4.3l-.1.4h-1.5c0-.2 0-.5.2-.7.1-.2.3-.5.6-.6l.8-.5 1.1-.2c.5 0 1 .1 1.3.3.4.2.7.4.9.7.2.4.3.8.3 1.3v3.7l.3.6h-1.5l-.2-.5v-.7Zm.2-2.7v1h-1.8l-.5.2a1 1 0 0 0-.4.8l.1.5.4.3.6.1a1.6 1.6 0 0 0 1.3-.6l.2-.5.4.6c0 .2 0 .4-.2.6l-.5.5a2.3 2.3 0 0 1-1.5.6l-1.2-.3a2 2 0 0 1-.7-.7c-.2-.3-.3-.6-.3-1 0-.3 0-.6.2-.9l.5-.6c.3-.2.6-.4 1-.4a5 5 0 0 1 1.2-.2h1.2Zm4.4-1.3v5.3h-1.5v-6.5h1.4v1.2Zm2-1.3v1.4a2.8 2.8 0 0 0-1.3 0 1.2 1.2 0 0 0-.8.8v.6h-.4l.1-1c0-.4.2-.8.4-1 .1-.3.3-.5.6-.6a1.6 1.6 0 0 1 1.1-.2h.3Z"/>
    <rect width="225.4" height="292.6" x="25.3" y="65.3" stroke="#EDEFF3" stroke-width=".9" rx="6.6"/>
  </g>
  <g filter="url(#c)">
    <rect width="163.5" height="93.9" x="264.8" y="310.1" fill="#fff" rx="7"/>
    <g filter="url(#d)">
      <path fill="#D9E6FC" d="M278.9 326.6c0-1.3 1-2.4 2.4-2.4h33.8c1.3 0 2.4 1 2.4 2.4v38c0 1.4-1 2.5-2.4 2.5h-33.8a2.5 2.5 0 0 1-2.4-2.4v-38Z"/>
      <path stroke="#CEDFFE" stroke-width="1.3" d="M315 323.5h-33.7a3.1 3.1 0 0 0-3 3.1v38c0 1.8 1.3 3.2 3 3.2h33.8a3 3 0 0 0 3-3.1v-38c0-1.8-1.3-3.2-3-3.2Z"/>
    </g>
    <g filter="url(#e)">
      <path fill="#fff" d="M278.9 326.6c0-1.3 1-2.4 2.4-2.4h33.8c1.3 0 2.4 1 2.4 2.4v38c0 1.4-1 2.5-2.4 2.5h-33.8a2.5 2.5 0 0 1-2.4-2.4v-38Z"/>
      <path stroke="#4181FA" stroke-width=".4" d="M281.3 324.4h33.8c1.2 0 2.2 1 2.2 2.2v38c0 1.3-1 2.3-2.2 2.3h-33.8c-1.2 0-2.2-1-2.2-2.2v-38c0-1.3 1-2.3 2.2-2.3Z"/>
    </g>
    <rect width="22.3" height="3.3" x="283.5" y="358.2" fill="#DEE2E9" opacity=".6" rx="1.6"/>
    <rect width="22.3" height="3.3" x="283.5" y="352.3" fill="#DEE2E9" opacity=".6" rx="1.6"/>
    <rect width="22.3" height="3.3" x="283.5" y="346.4" fill="#DEE2E9" opacity=".6" rx="1.6"/>
    <rect width="13.8" height="9.8" x="283.5" y="330.1" fill="#DEE2E9" opacity=".6" rx="2"/>
    <g filter="url(#f)">
      <path fill="#fff" d="M324.3 326.6c0-1.3 1-2.4 2.4-2.4h33.8c1.3 0 2.4 1 2.4 2.4v38c0 1.4-1 2.5-2.4 2.5h-33.8a2.5 2.5 0 0 1-2.4-2.4v-38Z"/>
      <rect width="22.3" height="3.3" x="335.2" y="358.2" fill="#E8E8E8" rx="1.6"/>
      <rect width="22.3" height="3.3" x="335.2" y="352.3" fill="#E8E8E8" rx="1.6"/>
      <rect width="22.3" height="3.3" x="335.2" y="346.4" fill="#E8E8E8" rx="1.6"/>
      <rect width="13.8" height="9.8" x="343.7" y="330.1" fill="#E8E8E8" rx="2"/>
    </g>
    <g filter="url(#g)">
      <path fill="#fff" d="M369.7 326.6c0-1.3 1-2.4 2.4-2.4H406c1.3 0 2.4 1 2.4 2.4v38c0 1.4-1 2.5-2.4 2.5h-34a2.5 2.5 0 0 1-2.4-2.4v-38Z"/>
      <rect width="22.3" height="3.3" x="375.8" y="358.2" fill="#E8E8E8" rx="1.6"/>
      <rect width="22.3" height="3.3" x="375.8" y="352.3" fill="#E8E8E8" rx="1.6"/>
      <rect width="22.3" height="3.3" x="375.8" y="346.4" fill="#E8E8E8" rx="1.6"/>
      <rect width="26.8" height="9.8" x="375.8" y="330.1" fill="#E8E8E8" rx="2"/>
    </g>
    <circle cx="284.6" cy="384.3" r="6.2" fill="#fff" stroke="#4181FA" stroke-width=".9"/>
    <circle cx="284.6" cy="384.3" r="4.8" fill="#FBBF24"/>
    <circle cx="306.1" cy="384.3" r="5.2" fill="#F87171"/>
    <circle cx="327.1" cy="384.3" r="5.2" fill="#7EA9FB"/>
    <circle cx="348.1" cy="384.3" r="5.2" fill="#34D399"/>
    <rect width="162.6" height="93" x="265.2" y="310.5" stroke="#EDEFF3" stroke-width=".9" rx="6.6"/>
  </g>
  <g filter="url(#h)">
    <path fill="#fff" fill-rule="evenodd" d="M244.6 40.3a7 7 0 0 0-7 7V93l-3.6 5.3 3.6 5.2v45.7a7 7 0 0 0 7 7h111.6a7 7 0 0 0 7-7v-102a7 7 0 0 0-7-7H244.6Z" clip-rule="evenodd"/>
    <path fill="#EDEFF3" d="m237.6 93 .3.2h.1V93h-.4Zm-3.6 5.3-.3-.3-.2.3.2.2.3-.2Zm3.6 5.2h.4v-.2l-.4.2Zm.4-56.2c0-3.7 3-6.6 6.6-6.6v-.9a7.5 7.5 0 0 0-7.5 7.5h.9Zm0 45.7V47.3h-.9V93h.9Zm-.8-.2-3.5 5.2.7.5 3.5-5.3-.7-.4Zm-3.5 5.7 3.5 5.3.7-.5-3.5-5.3-.7.5Zm4.3 50.7v-45.7h-.9v45.7h.9Zm6.6 6.6c-3.6 0-6.6-3-6.6-6.6h-.9c0 4.2 3.4 7.5 7.5 7.5v-.9Zm111.6 0H244.6v1h111.6v-1Zm6.6-6.6c0 3.7-3 6.6-6.6 6.6v1c4.1 0 7.5-3.4 7.5-7.6h-.9Zm0-102v102h.9v-102h-.9Zm-6.6-6.5c3.7 0 6.6 3 6.6 6.6h.9c0-4.1-3.4-7.5-7.5-7.5v.9Zm-111.6 0h111.6v-.9H244.6v.9Z"/>
  </g>
  <g clip-path="url(#i)">
    <rect width="21.1" height="21.1" x="251.6" y="54.3" fill="#7C3AED" rx="7"/>
    <path fill="#FBFBFB" d="M264 65.9h1.2c0 .5-.2 1-.4 1.3-.2.4-.6.7-1 .9-.4.2-1 .3-1.5.3a2.7 2.7 0 0 1-2.2-1c-.3-.2-.5-.6-.6-1-.2-.5-.2-1-.2-1.5v-.6c0-.6 0-1 .2-1.5.1-.4.3-.8.6-1.1.2-.3.6-.6 1-.7.3-.2.7-.3 1.2-.3.6 0 1.1.1 1.5.3.4.3.8.6 1 1 .2.3.4.8.4 1.3H264c0-.3 0-.6-.2-.8-.1-.3-.3-.4-.5-.6l-.9-.1-.8.1-.5.5c-.2.2-.3.5-.3.8l-.2 1v.7l.1 1 .4.8.5.5.8.2c.3 0 .6 0 .9-.2l.5-.5.2-.8Z"/>
    <rect width="35.8" height="7" x="283.3" y="56.1" fill="#DEE2E9" rx="3.5"/>
    <rect width="65.9" height="7" x="283.3" y="66.6" fill="#EDEFF3" rx="3.5"/>
    <rect width="21.1" height="21.1" x="251.6" y="87.7" fill="#0284C7" rx="7"/>
    <path fill="#FBFBFB" d="m262.1 100.3 2-6h1.4l-2.7 7.4h-1l.3-1.4Zm-1.8-6 2 6 .2 1.4h-1l-2.6-7.5h1.4Z"/>
    <rect width="35.8" height="7" x="283.3" y="89.5" fill="#DEE2E9" rx="3.5"/>
    <rect width="65.9" height="7" x="283.3" y="100" fill="#EDEFF3" rx="3.5"/>
    <path fill="#DC2626" d="M251.6 128.2a7 7 0 0 1 7-7h7a7 7 0 0 1 7.1 7v7a7 7 0 0 1-7 7h-7a7 7 0 0 1-7-7v-7Z"/>
    <path fill="#FBFBFB" d="M260.9 127.6v7.5h-1.3v-7.5h1.3Zm4.5 0-3 3.6-1.8 1.9-.2-1.3 1.2-1.5 2.2-2.7h1.6Zm-1.4 7.5-2.5-3.5 1-1 3 4.5H264Z"/>
    <rect width="35.8" height="7" x="283.3" y="122.9" fill="#DEE2E9" rx="3.5"/>
    <rect width="65.9" height="7" x="283.3" y="133.4" fill="#EDEFF3" rx="3.5"/>
  </g>
  <g filter="url(#j)">
    <rect width="172.1" height="128.4" x="263.1" y="168.6" fill="#fff" rx="7"/>
    <path fill="#1F2937" d="M277.8 185.8h2.4c.6 0 1 0 1.4.2l.8.7c.2.3.3.7.3 1.1 0 .4 0 .7-.2 1 0 .2-.3.4-.5.6l-.8.4-.4.2h-2.2v-1h2.4l.4-.5.1-.6-.1-.6a1 1 0 0 0-.4-.4l-.8-.2H279v6h-1.2v-7Zm4 6.8-1.7-3h1.3l1.6 3h-1.3Zm4.3.1-1-.1a2.3 2.3 0 0 1-1.3-1.4l-.1-1v-.1l.1-1.1.5-.8c.2-.3.5-.4.8-.6l.9-.2 1 .2.6.6.4.7.2 1v.5h-4v-.8h2.8v-.6a1 1 0 0 0-.4-.5 1 1 0 0 0-.6-.1 1 1 0 0 0-.9.5l-.2.5v1.5c0 .2.2.3.3.5l.4.3.6.1a1.6 1.6 0 0 0 1.3-.6l.6.6-.4.5-.7.3-.9.1Zm5.1-.9h.5l.4-.4.1-.4h1.1c0 .3 0 .6-.3.9a2 2 0 0 1-.7.6c-.3.2-.7.2-1 .2-.4 0-.8 0-1-.2a2 2 0 0 1-.8-.5l-.4-.8-.2-1v-.2c0-.3 0-.7.2-1 0-.3.2-.6.4-.8l.7-.5a2 2 0 0 1 2.1 0c.3.2.6.4.7.7.2.3.3.6.3 1h-1l-.2-.5a1 1 0 0 0-.3-.4 1 1 0 0 0-.6-.1 1 1 0 0 0-.5 0 1 1 0 0 0-.4.5l-.2.5v1.4l.2.5c0 .2.2.3.4.4l.5.1Zm2.9-1.6v-.2l.1-1 .5-.8.7-.6 1-.2 1 .2.8.6.5.8.1 1v.2l-.1 1-.5.8a2.2 2.2 0 0 1-1.8.7l-1-.1a2.2 2.2 0 0 1-1.2-1.4l-.1-1Zm1.1-.2v.8l.3.5.4.4.5.1a1 1 0 0 0 1-.5l.2-.5v-1.4l-.2-.5a1 1 0 0 0-1-.5 1 1 0 0 0-.5 0 1 1 0 0 0-.4.5l-.2.5-.1.6Zm5.8-1.5v4.2h-1.1v-5.2h1v1Zm1.6-1v1a2 2 0 0 0-.5 0l-.5.1a1 1 0 0 0-.6.6l-.1.5h-.3l.1-.9.3-.7.5-.5a1.3 1.3 0 0 1 .9-.1h.2Zm3.8 4v-6.1h1.1v7.3h-1l-.1-1.1Zm-3.3-1.3V189l.5-.8a1.7 1.7 0 0 1 1.5-.8l.8.2.6.5.4.8.2 1v.4l-.2 1-.4.8a1.7 1.7 0 0 1-1.4.6 1.8 1.8 0 0 1-1.5-.7l-.4-.8-.1-1Zm1-.1.2.7c0 .2 0 .4.2.5 0 .2.2.3.3.4l.5.1.7-.1.4-.5.2-.7v-.8c0-.2 0-.4-.2-.5 0-.2 0-.3-.2-.4a1 1 0 0 0-.3-.3l-.6-.1a1 1 0 0 0-.5 0 1 1 0 0 0-.3.5l-.2.5-.1.7Zm7.6 1.5v-2.4l-.1-.5-.3-.3a1 1 0 0 0-.5-.1l-.5.1c-.1 0-.3.1-.3.3l-.1.3h-1.2c0-.2 0-.4.2-.6 0-.2.2-.3.4-.5l.7-.3.8-.2 1 .2.8.6.2 1v2.9l.2.5h-1.2a2 2 0 0 1 0-.4l-.1-.6Zm.1-2v.6h-.8l-.5.1-.4.2a.7.7 0 0 0-.3.6v.4l.3.2.5.1a1.3 1.3 0 0 0 1-.5l.1-.4.4.6-.2.4-.3.4a1.8 1.8 0 0 1-1.3.4 2 2 0 0 1-.9-.2c-.2 0-.4-.3-.6-.5l-.2-.8c0-.2 0-.5.2-.7 0-.2.2-.4.4-.5.2-.2.5-.3.8-.3a4 4 0 0 1 1-.2h.8Zm4.6-2v.8h-2.8v-.9h2.8Zm-2-1.3h1.1v5.3l.3.2h.3a1.7 1.7 0 0 0 .4 0v.8a3 3 0 0 1-.8.1h-.7a1 1 0 0 1-.4-.6c-.2-.2-.2-.4-.2-.8v-5Zm2.7 3.9v-.2l.1-1 .5-.8.7-.6 1-.2 1 .2.8.6.5.8.1 1v.2l-.1 1-.5.8a2.2 2.2 0 0 1-1.8.7l-1-.1a2.2 2.2 0 0 1-1.2-1.4l-.1-1Zm1.1-.2v.8l.3.5.4.4.5.1a1 1 0 0 0 1-.5l.2-.5v-1.4l-.2-.5a1 1 0 0 0-1-.5 1 1 0 0 0-.5 0 1 1 0 0 0-.4.5l-.2.5-.1.6Zm5.8-1.5v4.2h-1.1v-5.2h1l.1 1Zm1.6-1v1a2 2 0 0 0-.5 0l-.5.1a1 1 0 0 0-.6.6l-.1.5h-.3l.1-.9.3-.7.5-.5a1.3 1.3 0 0 1 .9-.1h.2Zm2 0v5.2h-1.2v-5.2h1.2Zm-1.2-1.3.1-.4.5-.2c.2 0 .4 0 .5.2l.2.4-.2.4-.5.2c-.2 0-.4 0-.5-.2a.6.6 0 0 1-.1-.4Zm2.3 4v-.2c0-.3 0-.7.2-1 0-.3.2-.6.4-.8l.8-.6 1-.2 1 .2.7.6.5.8.1 1v.2l-.1 1-.5.8a2.2 2.2 0 0 1-1.7.7l-1-.1a2.2 2.2 0 0 1-1.3-1.4l-.1-1Zm1.1-.2v.2l.1.6.2.5.4.4.6.1a1 1 0 0 0 .9-.5l.2-.5.1-.6v-.8l-.3-.5a1 1 0 0 0-1-.5 1 1 0 0 0-.9.5l-.2.5v.6Zm7.5 1.3v-.3l-.4-.3-.7-.2-.7-.2-.6-.3-.4-.4v-1.2l.4-.5.7-.3.8-.2c.4 0 .8.1 1 .3.4.1.6.3.8.5l.2.9h-1.1l-.1-.4-.3-.3a1 1 0 0 0-.5-.1h-.5l-.3.3a.6.6 0 0 0 0 .6l.1.2.4.1.5.1 1 .4c.3 0 .5.2.6.4.2.2.3.5.3.8a1.3 1.3 0 0 1-.6 1.1c-.2.1-.4.3-.7.3a3 3 0 0 1-.8.1c-.5 0-.9 0-1.2-.2l-.7-.6-.3-.9h1.1l.2.6.4.2.5.1h.5l.3-.3.1-.3Zm7.8.3v-6.2h1.2v7.3h-1l-.2-1.1Zm-3.3-1.4v-.1c0-.4 0-.8.2-1.1 0-.3.2-.6.4-.8a1.7 1.7 0 0 1 1.4-.8l.8.2c.3.1.5.3.6.5l.4.8.2 1v.4c0 .3 0 .7-.2 1 0 .3-.2.5-.4.8a1.7 1.7 0 0 1-1.4.6 1.8 1.8 0 0 1-1.4-.7l-.4-.8-.2-1Zm1.2-.1v.7l.2.5.4.4.5.1.6-.1.4-.5.2-.7v-1.3l-.3-.4a1 1 0 0 0-.4-.3l-.5-.1a1 1 0 0 0-.5 0 1 1 0 0 0-.4.5l-.2.5v.7Zm6.8 2.6-1-.1a2.3 2.3 0 0 1-1.3-1.4l-.1-1v-.1l.1-1.1.5-.8c.2-.3.5-.4.8-.6l.9-.2 1 .2.6.6.4.7.2 1v.5h-4v-.8h2.8v-.6a1 1 0 0 0-.4-.5 1 1 0 0 0-.6-.1 1 1 0 0 0-.9.5l-.2.5-.1.7v.8l.4.5a1.3 1.3 0 0 0 1 .4 1.6 1.6 0 0 0 1.3-.6l.6.6-.5.5-.6.3-.9.1Zm7 0h-1V187l.1-1c.2-.3.4-.5.7-.6a2.3 2.3 0 0 1 1.6-.1v.9h-.5a1 1 0 0 0-.5 0l-.2.3-.1.5v5.6Zm1.1-5.2v.9h-3v-.9h3Zm3.8 4.1v-2.9l-.4-.3a1 1 0 0 0-.5-.1l-.5.1-.3.3-.1.3h-1.1l.1-.6.4-.5.7-.3.9-.2 1 .2.7.6c.2.3.3.6.3 1v2.9l.1.5h-1a2 2 0 0 1-.1-.4v-.6Zm.2-2v.6h-.8l-.6.1-.4.2a.7.7 0 0 0-.3.6v.4l.4.2.4.1a1.3 1.3 0 0 0 1-.5l.2-.4.4.6-.2.4-.4.4a1.8 1.8 0 0 1-1.2.4 2 2 0 0 1-1-.2c-.2 0-.4-.3-.5-.5-.2-.2-.3-.5-.3-.8l.2-.7.5-.5c.2-.2.4-.3.7-.3a4 4 0 0 1 1-.2h.9Zm4.3 2.2h.5l.4-.4.1-.4h1.1l-.3.9a2 2 0 0 1-.7.6c-.4.2-.7.2-1 .2-.5 0-.8 0-1-.2a2 2 0 0 1-.8-.5c-.2-.2-.4-.5-.4-.8l-.2-1v-.2c0-.3 0-.7.2-1 0-.3.2-.6.4-.8l.7-.5a2 2 0 0 1 2.1 0c.3.2.6.4.7.7.2.3.3.6.3 1h-1l-.2-.5a1 1 0 0 0-.4-.4 1 1 0 0 0-.5-.1 1 1 0 0 0-.6 0 1 1 0 0 0-.3.5l-.2.5v1.4c0 .2 0 .4.2.5 0 .2.2.3.3.4l.6.1Zm5.4-4.3v.9h-2.9v-.9h3Zm-2-1.2h1v5l.2.3.2.2h.2a1.7 1.7 0 0 0 .4 0v.8a3 3 0 0 1-.7.1h-.7a1 1 0 0 1-.5-.6l-.1-.8v-5Zm6 5.1v-3.9h1.2v5.2h-1l-.2-1.3Zm.2-1h.4l-.1 1-.4.7-.6.5a2 2 0 0 1-.9.1 2 2 0 0 1-.6 0l-.6-.4c-.1-.2-.3-.3-.3-.6l-.2-.9v-3.3h1.2v3.8l.2.3.3.2h.3c.3 0 .6 0 .8-.2.2 0 .3-.3.4-.5l.1-.7Zm3.4-1.9v4.2H378v-5.2h1.1v1Zm1.5-1v1a2 2 0 0 0-.4 0l-.5.1a1 1 0 0 0-.6.6l-.1.5h-.3v-.9l.4-.7.5-.5a1.3 1.3 0 0 1 .9-.1h.1Zm3.5 4.1v-2.9l-.4-.3a1 1 0 0 0-.5-.1l-.4.1c-.2 0-.3.1-.4.3v.3h-1.2l.1-.6.5-.5.6-.3 1-.2 1 .2.6.6c.2.3.3.6.3 1v2.9l.2.5h-1.2a2 2 0 0 1-.1-.4v-.6Zm.2-2v.6h-.8l-.6.1-.4.2a.7.7 0 0 0-.3.6l.1.4.3.2.4.1a1.3 1.3 0 0 0 1-.5c.2 0 .2-.2.2-.4l.4.6-.2.4-.4.4a1.8 1.8 0 0 1-1.2.4 2 2 0 0 1-.9-.2c-.2 0-.4-.3-.6-.5l-.2-.8.1-.7.5-.5c.2-.2.4-.3.7-.3a4 4 0 0 1 1-.2h1Z"/>
    <path fill="#4181F2" fill-rule="evenodd" d="M406.9 182.8h7.9l1.9.3c1.3.4 2.4 1.2 3.3 2.3a6.5 6.5 0 0 1 0 7.8c-.9 1.1-2 2-3.3 2.3a7 7 0 0 1-2 .3H407a7 7 0 0 1-2-.3 6.3 6.3 0 0 1-3.3-2.3 6.5 6.5 0 0 1 0-7.8c.9-1.1 2-2 3.3-2.3a7 7 0 0 1 2-.3Z" clip-rule="evenodd"/>
    <mask id="l" width="22" height="14" x="400" y="182" maskUnits="userSpaceOnUse" style="mask-type:alpha">
      <path fill="#fff" fill-rule="evenodd" d="M406.9 182.8h7.9l1.9.3c1.3.4 2.4 1.2 3.3 2.3a6.5 6.5 0 0 1 0 7.8c-.9 1.1-2 2-3.3 2.3a7 7 0 0 1-2 .3H407a7 7 0 0 1-2-.3 6.3 6.3 0 0 1-3.3-2.3 6.5 6.5 0 0 1 0-7.8c.9-1.1 2-2 3.3-2.3a7 7 0 0 1 2-.3Z" clip-rule="evenodd"/>
    </mask>
    <g filter="url(#k)" mask="url(#l)">
      <circle cx="414.7" cy="189.3" r="5.9" fill="#fff"/>
    </g>
    <path stroke="#1F2937" d="M277.1 207.3h136.3" opacity=".1"/>
    <path stroke="#4181FA" stroke-linecap="round" stroke-linejoin="round" stroke-width=".8" d="M285 230.7h3.6l-1-1c-.3-.2-.4-.6-.4-1v-2c0-1.9-1.2-3.4-2.9-4v-.2c0-.8-.6-1.4-1.4-1.4-.8 0-1.5.6-1.5 1.4v.2a4.2 4.2 0 0 0-2.8 4v2c0 .4-.2.8-.5 1l-1 1h3.6m4.3 0v.7c0 1.1-1 2-2.1 2-1.2 0-2.2-.9-2.2-2v-.7m4.3 0h-4.3"/>
    <path fill="#fff" d="M299.2 223.8a6 6 0 0 1 6-6h24.1a6 6 0 0 1 6 6v7a6 6 0 0 1-6 6h-24.1a6 6 0 0 1-6-6v-7Z"/>
    <path fill="#1F2937" d="M310.6 224.4v.5l-2.4 5.5h-.8l2.4-5.3h-3.2v-.7h4Z"/>
    <g clip-path="url(#m)">
      <path fill="#374151" d="m326.3 225.1-.3-.3h-.2l-2.6 2.6-2.5-2.6h-.3l-.2.3v.3l2.9 2.9h.2l3-3v-.2Z"/>
    </g>
    <path fill="#D1D5DB" d="M302.7 218.4h29v-1.2h-29v1.2Zm32 3v11.8h1.2v-11.8h-1.2Zm-3 14.8h-29v1.2h29v-1.2Zm-32-3v-11.8h-1.1v11.8h1.2Zm3 3a3 3 0 0 1-3-3h-1.1c0 2.3 1.8 4.2 4.1 4.2v-1.2Zm32-3a3 3 0 0 1-3 3v1.2c2.3 0 4.2-1.9 4.2-4.2h-1.2Zm-3-14.8a3 3 0 0 1 3 3h1.2c0-2.3-1.9-4.2-4.2-4.2v1.2Zm-29-1.2a4.2 4.2 0 0 0-4.1 4.2h1.2a3 3 0 0 1 3-3v-1.2Z"/>
    <rect width="32.5" height="7" x="345.8" y="223.8" fill="#E6E6E6" rx="3.5"/>
    <path stroke="#1F2937" d="M277.1 247.3h136.3" opacity=".1"/>
    <rect width="135.5" height="23.6" x="277.5" y="258.3" fill="#fff" rx="2.7"/>
    <path fill="#1F2937" d="M321.3 271.1h1.3c0 .5-.2 1-.4 1.3l-1 1c-.4.2-1 .3-1.5.3a2.8 2.8 0 0 1-2.2-1l-.7-1-.2-1.6v-.6c0-.5.1-1 .3-1.4.1-.5.3-.9.6-1.2.2-.3.6-.5 1-.7l1.2-.2c.6 0 1.1 0 1.5.3.4.2.8.5 1 1 .2.3.3.8.4 1.3h-1.3l-.2-.9-.5-.5-.9-.2c-.3 0-.5 0-.8.2-.2 0-.4.2-.5.5l-.4.7v2.7l.3.9.6.5.8.2.9-.2.5-.5.2-.9Zm3.7-2v4.5h-1.2V268h1.2v1Zm1.8-1.1v1.1a2.3 2.3 0 0 0-.6 0h-.5a1 1 0 0 0-.7.7v.6h-.4l.1-1 .3-.8.6-.5a1.4 1.4 0 0 1 1-.2h.2Zm3.2 5.7a3 3 0 0 1-1-.2 2.5 2.5 0 0 1-1.5-1.5 3 3 0 0 1-.1-1v-.2c0-.5 0-.9.2-1.2 0-.4.3-.7.5-1l.8-.5 1-.2c.4 0 .7 0 1 .2.3.1.6.3.8.6l.4.8.2 1.1v.6H328v-1h3v-.7a1 1 0 0 0-.5-.4 1 1 0 0 0-.6-.2l-.6.1a1 1 0 0 0-.4.4 2 2 0 0 0-.2.6v1.7c0 .2.2.3.3.5l.5.4.6.1a1.7 1.7 0 0 0 1.4-.7l.7.6-.5.5-.7.4-1 .2Zm6.5-1.2v-3.2c-.1-.2-.3-.3-.4-.3l-.5-.2-.6.1-.3.3-.1.4h-1.3c0-.2 0-.4.2-.6 0-.2.2-.4.4-.6l.8-.4a3 3 0 0 1 1-.1c.3 0 .7 0 1 .2a1.9 1.9 0 0 1 1 1.7v2.5l.1.7.2.5h-1.3l-.1-.4v-.6Zm.2-2.3v.8h-1.5l-.4.2a.8.8 0 0 0-.4.7l.1.4.3.3.5.1a1.4 1.4 0 0 0 1.1-.5c.2-.2.2-.3.2-.5l.4.6c0 .1 0 .3-.2.4 0 .2-.2.3-.4.5a2 2 0 0 1-1.3.5c-.4 0-.7 0-1-.2l-.7-.6-.2-.9c0-.3 0-.5.2-.8 0-.2.2-.4.5-.5l.8-.4 1-.1h1Zm3.8-1.1v4.5h-1.3V268h1.2v1Zm1.7-1.1v1.1a2.4 2.4 0 0 0-1 0 1 1 0 0 0-.7.7l-.1.6h-.3v-1l.4-.8.5-.5a1.4 1.4 0 0 1 1-.2h.2Zm5 1.2v4.4h-1.3V268h1.2v1.2Zm-.3 1.4h-.4c0-.4 0-.8.2-1.1 0-.3.2-.6.4-.9a2 2 0 0 1 1.6-.7l.8.1c.2 0 .4.2.5.4.2.1.3.4.4.6l.1 1v3.6h-1.2V270c0-.3 0-.5-.2-.7l-.3-.3-.5-.1a1.2 1.2 0 0 0-1 .5l-.3.5v.7Zm8.4 1.7V268h1.2v5.6h-1.1l-.1-1.3Zm.2-1.2h.4l-.1 1-.4.8c-.2.3-.4.5-.7.6l-1 .2-.7-.1-.6-.4-.4-.6a3 3 0 0 1 0-1V268h1.1v3.6l.1.5c0 .2.1.3.2.3l.3.2h.4l.8-.1.4-.6.2-.8Zm5 2.6a3 3 0 0 1-1.2-.2 2.5 2.5 0 0 1-1.4-1.5 3 3 0 0 1-.2-1v-.2l.2-1.2c.2-.4.3-.7.6-1l.8-.5 1-.2c.4 0 .7 0 1 .2.3.1.6.3.8.6l.4.8.1 1.1v.6h-4.3v-1h3.1l-.1-.7a1 1 0 0 0-.4-.4l-.6-.2-.6.1-.4.4a2 2 0 0 0-.2.6l-.1.8v.9l.4.5.5.4.6.1a1.7 1.7 0 0 0 1.4-.7l.7.6-.5.5-.7.4-1 .2Zm5-1.1 1.4-4.6h1.3l-2 5.6h-.8l.1-1Zm-1-4.6 1.4 4.6v1h-.8l-2-5.6h1.4Zm4.3 2.9v-.2l.1-1c.2-.4.3-.7.6-1l.8-.6 1-.2c.5 0 .8 0 1.1.2l.9.6.5 1 .2 1v.2l-.2 1-.5 1-.8.6-1.1.2c-.4 0-.8 0-1.1-.2l-.8-.6c-.3-.3-.4-.6-.6-1l-.1-1Zm1.2-.2v.9l.3.6c.1.1.3.3.5.3l.6.2a1.2 1.2 0 0 0 1-.5l.2-.6.1-.7v-.9l-.3-.6a1.2 1.2 0 0 0-1-.5l-.6.1-.5.4-.2.6v.7Z"/>
    <rect width="135.5" height="23.6" x="277.5" y="258.3" stroke="#D1D5DB" stroke-width=".8" rx="2.7"/>
    <rect width="172.1" height="128.4" x="263.1" y="168.6" stroke="#EDEFF3" stroke-width=".9" rx="7"/>
  </g>
  <defs>
    <filter id="b" width="239.6" height="306.8" x="18.2" y="64.9" color-interpolation-filters="sRGB" filterUnits="userSpaceOnUse">
      <feFlood flood-opacity="0" result="BackgroundImageFix"/>
      <feColorMatrix in="SourceAlpha" result="hardAlpha" values="0 0 0 0 0 0 0 0 0 0 0 0 0 0 0 0 0 0 127 0"/>
      <feOffset dy="6.7"/>
      <feGaussianBlur stdDeviation="3.3"/>
      <feColorMatrix values="0 0 0 0 0.828212 0 0 0 0 0.83526 0 0 0 0 0.845833 0 0 0 0.3 0"/>
      <feBlend in2="BackgroundImageFix" result="effect1_dropShadow_514_51464"/>
      <feBlend in="SourceGraphic" in2="effect1_dropShadow_514_51464" result="shape"/>
    </filter>
    <filter id="c" width="176.8" height="107.2" x="258.1" y="310.1" color-interpolation-filters="sRGB" filterUnits="userSpaceOnUse">
      <feFlood flood-opacity="0" result="BackgroundImageFix"/>
      <feColorMatrix in="SourceAlpha" result="hardAlpha" values="0 0 0 0 0 0 0 0 0 0 0 0 0 0 0 0 0 0 127 0"/>
      <feOffset dy="6.7"/>
      <feGaussianBlur stdDeviation="3.3"/>
      <feColorMatrix values="0 0 0 0 0.828212 0 0 0 0 0.83526 0 0 0 0 0.845833 0 0 0 0.3 0"/>
      <feBlend in2="BackgroundImageFix" result="effect1_dropShadow_514_51464"/>
      <feBlend in="SourceGraphic" in2="effect1_dropShadow_514_51464" result="shape"/>
    </filter>
    <filter id="d" width="54.6" height="58.9" x="270.9" y="322.8" color-interpolation-filters="sRGB" filterUnits="userSpaceOnUse">
      <feFlood flood-opacity="0" result="BackgroundImageFix"/>
      <feColorMatrix in="SourceAlpha" result="hardAlpha" values="0 0 0 0 0 0 0 0 0 0 0 0 0 0 0 0 0 0 127 0"/>
      <feOffset dy="6.7"/>
      <feGaussianBlur stdDeviation="3.3"/>
      <feColorMatrix values="0 0 0 0 0.828212 0 0 0 0 0.83526 0 0 0 0 0.845833 0 0 0 0.3 0"/>
      <feBlend in2="BackgroundImageFix" result="effect1_dropShadow_514_51464"/>
      <feBlend in="SourceGraphic" in2="effect1_dropShadow_514_51464" result="shape"/>
    </filter>
    <filter id="e" width="52" height="56.3" x="272.2" y="324.2" color-interpolation-filters="sRGB" filterUnits="userSpaceOnUse">
      <feFlood flood-opacity="0" result="BackgroundImageFix"/>
      <feColorMatrix in="SourceAlpha" result="hardAlpha" values="0 0 0 0 0 0 0 0 0 0 0 0 0 0 0 0 0 0 127 0"/>
      <feOffset dy="6.7"/>
      <feGaussianBlur stdDeviation="3.3"/>
      <feColorMatrix values="0 0 0 0 0.828212 0 0 0 0 0.83526 0 0 0 0 0.845833 0 0 0 0.3 0"/>
      <feBlend in2="BackgroundImageFix" result="effect1_dropShadow_514_51464"/>
      <feBlend in="SourceGraphic" in2="effect1_dropShadow_514_51464" result="shape"/>
    </filter>
    <filter id="f" width="50.4" height="54.7" x="319.7" y="320.9" color-interpolation-filters="sRGB" filterUnits="userSpaceOnUse">
      <feFlood flood-opacity="0" result="BackgroundImageFix"/>
      <feColorMatrix in="SourceAlpha" result="hardAlpha" values="0 0 0 0 0 0 0 0 0 0 0 0 0 0 0 0 0 0 127 0"/>
      <feOffset dx="1.3" dy="2.6"/>
      <feGaussianBlur stdDeviation="2.9"/>
      <feColorMatrix values="0 0 0 0 0.752941 0 0 0 0 0.752941 0 0 0 0 0.752941 0 0 0 0.35 0"/>
      <feBlend in2="BackgroundImageFix" result="effect1_dropShadow_514_51464"/>
      <feBlend in="SourceGraphic" in2="effect1_dropShadow_514_51464" result="shape"/>
    </filter>
    <filter id="g" width="50.4" height="54.7" x="365.1" y="320.9" color-interpolation-filters="sRGB" filterUnits="userSpaceOnUse">
      <feFlood flood-opacity="0" result="BackgroundImageFix"/>
      <feColorMatrix in="SourceAlpha" result="hardAlpha" values="0 0 0 0 0 0 0 0 0 0 0 0 0 0 0 0 0 0 127 0"/>
      <feOffset dx="1.3" dy="2.6"/>
      <feGaussianBlur stdDeviation="2.9"/>
      <feColorMatrix values="0 0 0 0 0.752941 0 0 0 0 0.752941 0 0 0 0 0.752941 0 0 0 0.35 0"/>
      <feBlend in2="BackgroundImageFix" result="effect1_dropShadow_514_51464"/>
      <feBlend in="SourceGraphic" in2="effect1_dropShadow_514_51464" result="shape"/>
    </filter>
    <filter id="h" width="170.4" height="157.1" x="217.4" y="27.7" color-interpolation-filters="sRGB" filterUnits="userSpaceOnUse">
      <feFlood flood-opacity="0" result="BackgroundImageFix"/>
      <feColorMatrix in="SourceAlpha" result="hardAlpha" values="0 0 0 0 0 0 0 0 0 0 0 0 0 0 0 0 0 0 127 0"/>
      <feOffset dx="4" dy="8"/>
      <feGaussianBlur stdDeviation="10.1"/>
      <feComposite in2="hardAlpha" operator="out"/>
      <feColorMatrix values="0 0 0 0 0.752941 0 0 0 0 0.752941 0 0 0 0 0.752941 0 0 0 0.35 0"/>
      <feBlend in2="BackgroundImageFix" result="effect1_dropShadow_514_51464"/>
      <feBlend in="SourceGraphic" in2="effect1_dropShadow_514_51464" result="shape"/>
    </filter>
    <filter id="j" width="213.2" height="169.5" x="246.5" y="156.1" color-interpolation-filters="sRGB" filterUnits="userSpaceOnUse">
      <feFlood flood-opacity="0" result="BackgroundImageFix"/>
      <feColorMatrix in="SourceAlpha" result="hardAlpha" values="0 0 0 0 0 0 0 0 0 0 0 0 0 0 0 0 0 0 127 0"/>
      <feOffset dx="4" dy="8"/>
      <feGaussianBlur stdDeviation="10.1"/>
      <feComposite in2="hardAlpha" operator="out"/>
      <feColorMatrix values="0 0 0 0 0.752941 0 0 0 0 0.752941 0 0 0 0 0.752941 0 0 0 0.35 0"/>
      <feBlend in2="BackgroundImageFix" result="effect1_dropShadow_514_51464"/>
      <feBlend in="SourceGraphic" in2="effect1_dropShadow_514_51464" result="shape"/>
    </filter>
    <filter id="k" width="22.2" height="22.2" x="403.6" y="180.2" color-interpolation-filters="sRGB" filterUnits="userSpaceOnUse">
      <feFlood flood-opacity="0" result="BackgroundImageFix"/>
      <feColorMatrix in="SourceAlpha" result="hardAlpha" values="0 0 0 0 0 0 0 0 0 0 0 0 0 0 0 0 0 0 127 0"/>
      <feOffset dy="2"/>
      <feGaussianBlur stdDeviation=".3"/>
      <feColorMatrix values="0 0 0 0 0 0 0 0 0 0 0 0 0 0 0 0 0 0 0.06 0"/>
      <feBlend in2="BackgroundImageFix" result="effect1_dropShadow_514_51464"/>
      <feColorMatrix in="SourceAlpha" result="hardAlpha" values="0 0 0 0 0 0 0 0 0 0 0 0 0 0 0 0 0 0 127 0"/>
      <feOffset dy="2"/>
      <feGaussianBlur stdDeviation="2.6"/>
      <feColorMatrix values="0 0 0 0 0 0 0 0 0 0 0 0 0 0 0 0 0 0 0.15 0"/>
      <feBlend in2="effect1_dropShadow_514_51464" result="effect2_dropShadow_514_51464"/>
      <feBlend in="SourceGraphic" in2="effect2_dropShadow_514_51464" result="shape"/>
    </filter>
    <clipPath id="i">
      <rect width="97.6" height="87.9" x="251.6" y="54.3" fill="#fff" rx="7"/>
    </clipPath>
    <clipPath id="m">
      <path fill="#fff" d="M0 0h9.5v9.5H0z" transform="translate(318.4 222)"/>
    </clipPath>
    <linearGradient id="a" x1="96.7" x2="310.1" y1="25.3" y2="540.5" gradientUnits="userSpaceOnUse">
      <stop stop-color="#EDEFF3" stop-opacity="0"/>
      <stop offset="1" stop-color="#EDEFF3"/>
    </linearGradient>
  </defs>
</svg>
