<svg xmlns="http://www.w3.org/2000/svg" fill="none" viewBox="0 0 547 365">
  <path fill="#F3F4F6" d="M.1 0H547v364.6H.1z"/>
  <g filter="url(#a)">
    <g clip-path="url(#b)">
      <g filter="url(#c)">
        <rect width="154.7" height="58.4" x="335.7" y="38.7" fill="#fff" rx="5.8"/>
      </g>
      <path fill="#2E394C" d="M353.8 68.2v12.5h-2.4V71l-3 1v-2l5.2-1.8h.2Zm6.7 10.4v1.6c0 .7-.1 1.3-.5 2-.3.6-.7 1.1-1.2 1.5l-1.2-.6a42.9 42.9 0 0 0 .7-1.7l.2-1v-1.8h2Zm10.5-5.2v2.1c0 1-.1 1.7-.3 2.4a4 4 0 0 1-.9 1.7c-.3.4-.8.7-1.3 1l-1.7.2-1.4-.1a3.5 3.5 0 0 1-2-1.7 4 4 0 0 1-.6-1.5c-.2-.6-.2-1.2-.2-2v-2.1c0-1 0-1.8.3-2.5l.8-1.6 1.4-1c.5-.1 1-.3 1.7-.3l1.4.2a3.5 3.5 0 0 1 2 1.7c.3.4.5.9.6 1.5l.2 2Zm-2.5 2.4v-4l-.3-.8c0-.3-.2-.5-.3-.6-.2-.1-.3-.3-.5-.3l-.6-.1-.8.1a1 1 0 0 0-.5.6c-.2.2-.3.5-.4.9V77l.2.9.4.6.5.3a1.8 1.8 0 0 0 1.3 0l.6-.6.3-1 .1-1.4Zm12.8-2.4v2.1c0 1-.1 1.7-.3 2.4a4 4 0 0 1-.9 1.7l-1.3 1-1.7.2-1.4-.1a3.5 3.5 0 0 1-2.1-1.7l-.6-1.5-.2-2v-2.1c0-1 .1-1.8.3-2.5.2-.6.5-1.2.9-1.6l1.3-1c.5-.1 1.1-.3 1.7-.3l1.4.2a3.5 3.5 0 0 1 2.1 1.7l.6 1.5.2 2Zm-2.5 2.4v-4l-.3-.8c-.1-.3-.2-.5-.4-.6-.1-.1-.3-.3-.5-.3l-.6-.1-.7.1a1 1 0 0 0-.5.6c-.2.2-.3.5-.4.9V77l.2.9.4.6.4.3a1.8 1.8 0 0 0 1.4 0c.2-.2.4-.3.5-.6.2-.2.3-.5.4-1v-1.4Zm12.7-2.4v2.1c0 1 0 1.7-.3 2.4-.2.7-.5 1.3-.8 1.7a5 5 0 0 1-1.4 1l-1.7.2-1.4-.1a3.5 3.5 0 0 1-2-1.7 4 4 0 0 1-.6-1.5l-.2-2v-2.1c0-1 .1-1.8.3-2.5.2-.6.5-1.2.9-1.6.3-.4.8-.7 1.3-1 .5-.1 1-.3 1.7-.3l1.4.2a3.5 3.5 0 0 1 2 1.7c.3.4.5.9.6 1.5.2.5.2 1.2.2 2Zm-2.4 2.4V73l-.1-1.2-.2-.8-.4-.6c-.1-.1-.3-.3-.5-.3l-.6-.1-.7.1-.6.6-.3.9-.1 1.4v4c0 .4.2.7.3.9l.3.6.5.3a1.8 1.8 0 0 0 1.4 0c.2-.2.4-.3.5-.6.2-.2.3-.5.3-1l.2-1.4Zm6.8 2.8v1.6a5 5 0 0 1-.5 2l-1.2 1.5-1.3-.6a50 50 0 0 0 .7-1.7l.2-1v-1.8h2Zm10.4-5.2v2.1c0 1 0 1.7-.3 2.4-.2.7-.5 1.3-.8 1.7l-1.4 1-1.7.2-1.4-.1a3.5 3.5 0 0 1-2-1.7 4 4 0 0 1-.6-1.5l-.2-2v-2.1c0-1 0-1.8.3-2.5.2-.6.5-1.2.9-1.6.3-.4.8-.7 1.3-1 .5-.1 1-.3 1.7-.3l1.4.2a3.5 3.5 0 0 1 2 1.7c.3.4.5.9.6 1.5l.2 2Zm-2.5 2.4v-4l-.2-.8-.4-.6c-.1-.1-.3-.3-.5-.3l-.6-.1-.7.1c-.3.1-.4.3-.6.6l-.3.9-.1 1.4v4c0 .4.2.7.3.9l.3.6.5.3a1.8 1.8 0 0 0 1.3 0l.6-.6c.1-.2.3-.5.3-1l.1-1.4Zm12.8-2.4v2.1c0 1-.1 1.7-.3 2.4a4 4 0 0 1-.9 1.7l-1.3 1-1.7.2-1.4-.1a3.5 3.5 0 0 1-2-1.7 4 4 0 0 1-.6-1.5c-.2-.6-.2-1.2-.2-2v-2.1c0-1 0-1.8.3-2.5l.8-1.6a5 5 0 0 1 1.4-1c.5-.1 1-.3 1.7-.3l1.4.2a3.5 3.5 0 0 1 2 1.7c.3.4.5.9.6 1.5l.2 2Zm-2.5 2.4v-4l-.3-.8c0-.3-.2-.5-.3-.6-.2-.1-.3-.3-.5-.3l-.6-.1-.8.1a1 1 0 0 0-.5.6c-.2.2-.3.5-.4.9V77l.2.9.4.6.5.3a1.8 1.8 0 0 0 1.3 0l.6-.6.3-1 .1-1.4Zm12.7-2.4v2.1c0 1 0 1.7-.3 2.4a3 3 0 0 1-.8 1.7l-1.3 1-1.8.2-1.4-.1a3.5 3.5 0 0 1-2-1.7c-.3-.4-.4-1-.6-1.5l-.2-2v-2.1c0-1 .1-1.8.3-2.5.2-.6.5-1.2.9-1.6l1.3-1c.5-.1 1.1-.3 1.7-.3l1.4.2a3.5 3.5 0 0 1 2 1.7c.3.4.5.9.7 1.5l.1 2Zm-2.4 2.4V73l-.1-1.2-.2-.8c-.1-.3-.2-.5-.4-.6-.1-.1-.3-.3-.5-.3l-.6-.1-.7.1a1 1 0 0 0-.5.6c-.2.2-.3.5-.4.9V77l.3.9.3.6.5.3a1.8 1.8 0 0 0 1.4 0c.2-.2.4-.3.5-.6.2-.2.3-.5.4-1v-1.4Z"/>
      <path fill="#2E394C" d="m350.4 50.4-2.3 6.5h-1l2.7-7.1h.6v.6Zm2 6.5-2.4-6.5v-.6h.6l2.8 7.1h-1Zm-.1-2.6v.7h-4v-.7h4Zm3-1.6v4.2h-1v-5.3h.9v1ZM355 54h-.4c0-.4 0-.7.2-1 0-.4.2-.6.4-.9l.6-.5 1-.2.6.1a1.4 1.4 0 0 1 1 1v4.3h-.8v-3.5c0-.3 0-.5-.2-.6 0-.2-.2-.3-.4-.4l-.6-.1-.6.1-.5.4-.2.6v.7Zm3.5-.5-.7.1.2-.8c0-.3.2-.5.4-.7l.7-.5.8-.2.8.1.6.4.3.6.1.8V57h-.9v-3.5l-.1-.7-.4-.3a1.6 1.6 0 0 0-1.1 0 1 1 0 0 0-.4.3l-.3.4v.5Zm4.5.7c0-.5 0-.8.2-1.2 0-.3.2-.6.4-.8.2-.3.5-.4.8-.6l1-.2c.4 0 .7 0 1 .2l.7.6c.3.2.4.5.5.8l.2 1.1v.1c0 .4 0 .8-.2 1 0 .4-.2.7-.5 1a2.2 2.2 0 0 1-1.7.7c-.4 0-.7 0-1-.2a2.3 2.3 0 0 1-1.2-1.4c-.2-.3-.2-.7-.2-1Zm.9 0v.8l.4.6c0 .2.2.3.4.4l.7.2c.2 0 .5 0 .6-.2l.5-.4.3-.6v-1.6c0-.3-.2-.5-.3-.7l-.5-.4-.6-.1-.7.1-.4.4a2 2 0 0 0-.3.7l-.1.7Zm8.4 1.4v-4h1v5.2h-1v-1.2Zm.2-1.1h.4c0 .3 0 .6-.2 1 0 .2-.1.5-.3.7l-.7.5-1 .2-.6-.1a1.4 1.4 0 0 1-1-1 3 3 0 0 1 0-.9v-3.4h.9v4c0 .2.2.3.3.4l.3.2h.3c.4 0 .7 0 1-.2.2-.1.3-.3.4-.6l.2-.8Zm3.1-1.9V57h-.9v-5.3h.9v1.1Zm-.2 1.4h-.4l.2-1 .4-.9a2 2 0 0 1 1.6-.7l.7.1.5.4c.2.1.3.3.4.6v4.3h-.8v-3.5l-.1-.6-.4-.4-.6-.1a1.3 1.3 0 0 0-1 .5 2 2 0 0 0-.5 1.3Zm7.2-2.5v.7h-2.8v-.7h2.8Zm-1.9-1.3h1V56l.2.2h.3a1.5 1.5 0 0 0 .4 0v.7h-.3l-.4.1-.6-.1a1 1 0 0 1-.4-.5l-.2-.8v-5.3Z" opacity=".6"/>
    </g>
  </g>
  <g filter="url(#d)">
    <g clip-path="url(#e)">
      <g filter="url(#f)">
        <path fill="#fff" d="M335.7 118.9c0-3.3 2.6-5.9 5.8-5.9h143.8c2.8 0 5.1 2.3 5.1 5.1v50.4c0 3.2-2.6 5.8-5.8 5.8h-143a5.8 5.8 0 0 1-6-5.8v-49.6Z"/>
      </g>
      <path fill="#2E394C" d="m350.8 125-2.3 6.5h-1l2.7-7.1h.6v.6Zm2 6.5-2.4-6.5v-.6h.6l2.8 7.1h-1Zm-.1-2.6v.7h-4v-.7h4Zm5 1.2v-.4l-.3-.3-.8-.2-.8-.2-.6-.3-.4-.5-.1-.5.1-.6.4-.5.6-.3.8-.2c.5 0 .8.1 1.1.3.3.1.5.3.7.6.2.2.2.5.2.8h-.9v-.4a1 1 0 0 0-.5-.4l-.6-.1h-.6l-.3.4a.7.7 0 0 0 0 .6l.1.2.4.2.6.2c.4 0 .8.2 1 .3.3.2.6.3.7.5l.2.7a1.4 1.4 0 0 1-.6 1.2 2 2 0 0 1-.6.3l-.8.1c-.5 0-.9 0-1.2-.2l-.8-.7-.2-.8h.9c0 .2 0 .4.2.6l.5.3a1.9 1.9 0 0 0 1.2 0l.4-.3v-.4Zm5.4 0v-.4l-.4-.3-.8-.2-.8-.2-.6-.3-.4-.5-.1-.5.1-.6.4-.5.6-.3.8-.2c.5 0 .8.1 1.1.3.3.1.6.3.7.6.2.2.2.5.2.8h-.9v-.4a1 1 0 0 0-.5-.4l-.6-.1h-.6l-.3.4a.7.7 0 0 0 0 .6l.1.2.4.2.6.2c.4 0 .8.2 1 .3.4.2.6.3.7.5l.2.7a1.4 1.4 0 0 1-.6 1.2 2 2 0 0 1-.6.3l-.8.1c-.5 0-.9 0-1.2-.2l-.8-.7-.2-.8h1l.1.6.5.3a1.9 1.9 0 0 0 1.2 0l.4-.3.1-.4Zm3.2-3.9v5.3h-.9v-5.3h1Zm-1-1.4c0-.1 0-.2.2-.3l.4-.2c.1 0 .3 0 .4.2l.1.3-.1.4-.4.1-.4-.1-.2-.4Zm6 1.4h.8v5.2c0 .5 0 .9-.2 1.2-.2.3-.5.6-.8.7a2.5 2.5 0 0 1-1.8.2c-.3 0-.5-.1-.8-.3l-.6-.5.5-.6.7.6.7.2.8-.2.5-.5.1-.8v-4l.1-1.2Zm-3.6 2.7.1-1.2.4-.8a1.9 1.9 0 0 1 1.6-.8c.3 0 .6 0 .8.2l.7.5.4.8.2 1v.5l-.2 1-.4.8c-.2.3-.4.4-.7.5a2.1 2.1 0 0 1-1.7 0 2 2 0 0 1-.7-.6l-.4-.8-.1-1Zm.9 0v.8l.3.6.5.4.6.1c.3 0 .5 0 .7-.2.2 0 .4-.2.5-.5l.3-.6v-1.2l-.2-.5c0-.2-.2-.3-.3-.5l-.4-.3-.6-.1-.6.1-.5.5a2 2 0 0 0-.2.6l-.1.7Zm6-1.5v4.1h-1v-5.3h1v1.2Zm-.3 1.3h-.3l.1-1c.1-.4.3-.6.5-.9a2 2 0 0 1 1.5-.7l.7.1.6.4.3.6.1.8v3.5h-.9V128l-.1-.6-.4-.4-.6-.1a1.3 1.3 0 0 0-1 .5 2 2 0 0 0-.5 1.3Zm7.2 3c-.4 0-.7-.2-1-.3a2.3 2.3 0 0 1-1.2-1.3 3 3 0 0 1-.2-1v-.3c0-.4 0-.8.2-1.1l.5-.9a2.2 2.2 0 0 1 1.6-.7c.4 0 .7 0 1 .2l.7.6c.1.2.3.5.3.8l.2 1v.4h-4v-.7h3v-.8l-.5-.5c-.1-.2-.4-.2-.7-.2a1.2 1.2 0 0 0-1 .5 2 2 0 0 0-.3.6l-.1.8v.3l.1.7c0 .2.2.4.3.5l.5.4.7.2c.3 0 .6 0 .8-.2l.6-.5.5.4-.4.5a2 2 0 0 1-.7.4l-.9.1Zm6.6-1.2V124h.9v7.5h-.8l-.1-1Zm-3.6-1.6c0-.5 0-.8.2-1.2 0-.3.2-.6.4-.8l.7-.6.8-.2c.4 0 .7 0 .9.2.3.1.5.3.6.5l.5.8.2 1v.5l-.2 1-.5.8c-.1.3-.3.4-.6.5a2.1 2.1 0 0 1-1.7 0 2 2 0 0 1-.7-.6l-.4-.8-.2-1Zm1 0v.8l.3.6.4.4.6.1a1.3 1.3 0 0 0 1.3-.7l.2-.6v-1.2l-.1-.5-.3-.5-.5-.3-.5-.1-.7.1-.4.5a2 2 0 0 0-.3.6v.7Zm9.9-2.7v.7h-2.9v-.7h2.9Zm-2-1.3h1v5.7l.3.2h.3a1.5 1.5 0 0 0 .4 0v.7h-.3l-.4.1-.6-.1a1 1 0 0 1-.4-.5c-.2-.2-.2-.5-.2-.8v-5.3Zm2.8 4 .2-1.1c.1-.4.3-.7.5-.9l.7-.6 1-.2 1 .2.8.6c.2.2.4.5.5.9l.2 1v.1l-.2 1-.5 1a2.2 2.2 0 0 1-1.7.7c-.4 0-.8 0-1-.2a2.3 2.3 0 0 1-1.3-1.4l-.2-1Zm1 0v.8l.3.6.5.4.7.2c.2 0 .4 0 .6-.2.2 0 .3-.2.5-.4l.3-.6V128l-.3-.6-.5-.5-.7-.1-.6.1-.5.5a2 2 0 0 0-.3.6v.7Z" opacity=".6"/>
      <path fill="#2E394C" d="M356.2 154.5v1.4h-5.5v-1.4h5.5Zm-5-9V156h-1.7v-10.3h1.7Zm4.3 4.4v1.4h-4.8v-1.4h4.8Zm.7-4.3v1.4h-5.5v-1.4h5.5Zm3.4-.6v11h-1.8v-11h1.8Zm3.8 3.2v7.7h-1.7v-7.7h1.7Zm-1.8-2c0-.3 0-.5.3-.6.1-.2.4-.3.7-.3.3 0 .5 0 .7.3.2.1.3.3.3.6s-.1.5-.3.7a1 1 0 0 1-.7.2 1 1 0 0 1-.7-.3.9.9 0 0 1-.3-.6Zm8.2 7.7-.1-.5c0-.2-.2-.3-.5-.4l-1-.3a9 9 0 0 1-1.2-.3l-.8-.5a1.8 1.8 0 0 1-.8-1.5c0-.3 0-.6.2-.9.1-.3.3-.5.6-.7a3 3 0 0 1 1-.5 4 4 0 0 1 1.2-.2c.6 0 1.2.1 1.6.3.5.2.9.5 1.1.9.2.4.4.8.4 1.2h-1.8l-.1-.5a1 1 0 0 0-.5-.5l-.7-.1-.8.1a1 1 0 0 0-.4.4 1 1 0 0 0 0 .8s0 .2.2.3l.5.2.8.2 1.5.5 1 .7c.2.3.3.7.3 1.2a2 2 0 0 1-.8 1.6l-1 .5-1.3.2c-.7 0-1.3-.1-1.8-.4a2 2 0 0 1-1-1c-.3-.3-.5-.7-.5-1.2h1.7c0 .3.1.6.3.8.1.2.3.3.6.4a2.4 2.4 0 0 0 1.5 0c.2 0 .4-.2.5-.3l.1-.5Zm7.7.5v-3.7l-.1-.7a1 1 0 0 0-.5-.5l-.7-.1-.8.1-.4.4a1 1 0 0 0-.2.6h-1.7c0-.3 0-.6.2-1l.7-.7 1-.5 1.3-.2c.5 0 1 0 1.5.3.5.2.8.5 1 .9.3.4.5.8.5 1.4v4.5l.3.6v.1h-1.8a3 3 0 0 1-.2-.7v-.8Zm.3-3.1v1h-1.2l-.9.1-.6.3a1.1 1.1 0 0 0-.5 1c0 .1 0 .3.2.5 0 .2.2.3.4.4l.7.1a1.9 1.9 0 0 0 1.5-.7l.3-.6.5.7-.3.7a3 3 0 0 1-.5.6 2.7 2.7 0 0 1-1.9.7 3 3 0 0 1-1.3-.3l-1-.8-.3-1.2.2-1c.2-.4.4-.7.7-.9l1.1-.5a6 6 0 0 1 1.5-.1h1.4Zm11.3-5.7v10.3h-1.7v-10.3h1.7Zm3.3 0v1.4h-8.3v-1.4h8.3Zm0 6.6v-.2l.3-1.5c.1-.5.4-1 .7-1.3l1.1-.8 1.5-.3c.6 0 1 0 1.5.3.5.2.9.5 1.2.8l.7 1.3.2 1.5v.2c0 .5 0 1-.2 1.5s-.4 1-.7 1.3a3.7 3.7 0 0 1-2.6 1.1c-.6 0-1.1-.1-1.6-.3l-1.1-.8c-.3-.4-.6-.8-.7-1.3l-.3-1.5Zm1.8-.2v1.2l.4.8.6.5c.2.2.5.2.8.2a1.6 1.6 0 0 0 1.4-.7l.4-.8.1-1v-.2l-.1-1c0-.3-.2-.5-.4-.8a1.6 1.6 0 0 0-1.4-.7c-.3 0-.6 0-.8.2-.3.1-.4.3-.6.5-.1.3-.3.5-.3.8l-.1 1Zm8.8-2.3v6.2h-1.8v-7.7h1.7v1.5Zm2.3-1.5v1.6a3.5 3.5 0 0 0-1.5 0 1.5 1.5 0 0 0-.9 1l-.1.7h-.4l.1-1.3.5-1.1c.1-.3.4-.6.7-.7a2 2 0 0 1 1.3-.3h.3Zm.8 4v-.2c0-.5 0-1 .2-1.5s.4-1 .7-1.3l1.1-.8 1.5-.3c.6 0 1.1 0 1.5.3.5.2.9.5 1.2.8l.7 1.3.2 1.5v.2c0 .5 0 1-.2 1.5s-.4 1-.7 1.3a3.7 3.7 0 0 1-2.6 1.1c-.6 0-1.1-.1-1.6-.3l-1.1-.8-.7-1.3c-.2-.5-.2-1-.2-1.5Zm1.7-.2v1.2l.4.8.6.5c.2.2.5.2.8.2a1.6 1.6 0 0 0 1.5-.7l.3-.8.1-1v-.2l-.1-1c0-.3-.2-.5-.4-.8a1.6 1.6 0 0 0-1.4-.7c-.3 0-.6 0-.8.2l-.6.5c-.1.3-.3.5-.3.8l-.1 1Z"/>
    </g>
  </g>
  <g filter="url(#g)">
    <g clip-path="url(#h)">
      <g filter="url(#i)">
        <rect width="153.4" height="58.1" x="336.6" y="267.4" fill="#fff" rx="5.8"/>
      </g>
      <path fill="#2E394C" d="M349.7 307.6h.1c.7 0 1.3 0 1.8-.2s.9-.5 1.2-.8c.3-.3.6-.7.7-1.2.2-.4.2-1 .2-1.5v-3.6l-.5-.8c-.1-.3-.3-.4-.5-.5a1.5 1.5 0 0 0-1.5 0l-.5.5c-.1.3-.3.5-.3.8a3.7 3.7 0 0 0 0 1.8c0 .3.2.6.3.8.1.2.3.4.6.5l.7.2a1.8 1.8 0 0 0 1.4-.6 2 2 0 0 0 .5-1.3l.8.5c0 .4 0 .8-.2 1.1a3.7 3.7 0 0 1-1.8 1.9 3 3 0 0 1-1.3.2c-.6 0-1 0-1.5-.3-.5-.2-.9-.5-1.2-.9a4 4 0 0 1-.7-1.3 5.5 5.5 0 0 1 0-3.4l1-1.4a4.2 4.2 0 0 1 3-1.3 3.8 3.8 0 0 1 3 1.4c.4.5.7 1 .9 1.7.2.6.3 1.3.3 2v.9c0 .8 0 1.5-.3 2.2-.1.7-.4 1.4-.7 2a5.3 5.3 0 0 1-3 2.3 9 9 0 0 1-2.3.3h-.2v-2Zm14.8-10.7h.4v2h-.2c-.6 0-1.2 0-1.7.3a3.6 3.6 0 0 0-2 2 5 5 0 0 0-.4 1.8v2c0 .5 0 .9.2 1.2 0 .3.2.6.4.9l.6.5a1.8 1.8 0 0 0 1.5 0l.5-.5.4-.8.1-.9-.1-1-.4-.7a1.6 1.6 0 0 0-1.3-.6 2 2 0 0 0-2 1.8l-.8-.5.3-1.2c.2-.4.4-.8.7-1 .3-.4.7-.6 1.1-.8.4-.2.9-.2 1.4-.2.6 0 1.1 0 1.6.3.4.2.8.5 1 1 .4.3.6.7.7 1.2a5 5 0 0 1 0 3.4 4 4 0 0 1-4 2.5c-.6 0-1.2 0-1.7-.3a5 5 0 0 1-1.4-1l-1-1.6-.2-2v-1c0-1 .1-1.9.4-2.7a6 6 0 0 1 5.9-4.1Zm8.5 3.2v-.7c0-.5 0-.9.3-1.3.2-.4.5-.7.9-.9.4-.2.9-.4 1.5-.4a3 3 0 0 1 1.5.4c.4.2.7.5.9 1 .2.3.3.7.3 1.2v.7c0 .4-.1.9-.3 1.3-.2.3-.5.7-1 .9-.3.2-.8.3-1.4.3a3 3 0 0 1-1.5-.3c-.4-.2-.7-.6-1-1l-.2-1.2Zm1.6-.7v.7l.1.6.4.4.6.2.6-.2.3-.4.1-.6v-1.3a1 1 0 0 0-1-.6 1 1 0 0 0-1 .6v.6Zm4.3 7.7v-.7c0-.4.1-.9.3-1.3.3-.3.6-.7 1-.9a3 3 0 0 1 1.4-.3c.6 0 1.1 0 1.5.3.4.2.7.6 1 1l.3 1.2v.7c0 .5-.2.9-.4 1.3s-.5.7-.9.9c-.4.2-.8.3-1.4.3a3 3 0 0 1-1.5-.3c-.4-.2-.7-.5-1-1-.2-.3-.3-.7-.3-1.2Zm1.7-.7v.7l.1.6.4.4.6.2c.2 0 .5 0 .6-.2.2-.1.3-.3.3-.4l.1-.6v-.7l-.1-.5a1 1 0 0 0-1-.7 1 1 0 0 0-.6.2 1 1 0 0 0-.3.5l-.1.5Zm1.7-7.6-6.1 9.7-1.2-.6 6-9.7 1.3.6Z"/>
      <path fill="#2E394C" d="M350.5 283h-1.9v-.8h1.9l.9-.2.5-.5.2-.7-.2-.7-.5-.5c-.2-.2-.5-.2-.9-.2h-1.7v6.3h-1v-7.1h2.7c.5 0 1 0 1.4.3l.8.7a2.4 2.4 0 0 1 0 2.3c-.2.4-.5.6-.8.8l-1.4.2Zm4.6-1.7v4.4h-1v-5.3h1v.9Zm1.6-.9v.8h-.9l-.5.4-.2.4-.1.5-.3.2.1-1 .3-.7.5-.5a1.4 1.4 0 0 1 1.1-.1Zm.7 2.7c0-.5 0-.8.2-1.1 0-.4.2-.7.4-.9l.8-.6 1-.2 1 .2.7.6c.3.2.4.5.5.9l.2 1v.1c0 .4 0 .8-.2 1 0 .4-.2.7-.5 1a2.2 2.2 0 0 1-1.7.7c-.4 0-.7 0-1-.2a2.3 2.3 0 0 1-1.2-1.4c-.2-.3-.2-.7-.2-1Zm.9 0v.8l.4.6c0 .2.2.3.4.4l.7.2c.2 0 .5 0 .6-.2.2 0 .4-.2.5-.4l.3-.6v-1.6c0-.3-.2-.5-.3-.6l-.5-.5-.6-.1a1.3 1.3 0 0 0-1.1.6 2 2 0 0 0-.3.6l-.1.7Zm5.2-4.9h.9v6.5l-.1 1h-.8v-7.5Zm4.4 4.8v.1l-.1 1c0 .4-.2.7-.4 1l-.6.5-1 .2c-.3 0-.5 0-.8-.2-.2 0-.5-.3-.6-.5l-.4-.8a5 5 0 0 1-.3-1v-.5l.3-1c0-.3.2-.6.4-.8l.6-.5.9-.2c.3 0 .6 0 .9.2l.6.6.4.8.1 1.1Zm-.9.1v-.8a2 2 0 0 0-.3-.6 1.2 1.2 0 0 0-1-.6l-.6.1c-.2 0-.4.2-.5.3 0 .2-.2.3-.3.5l-.1.5v1.2l.2.6.5.5c.2.2.5.2.8.2l.6-.1.4-.4.3-.6v-.8Zm5.3 1.7v-3.3l-.5-.3-.6-.1h-.6a1 1 0 0 0-.4.4l-.1.4h-1l.2-.6.4-.5.7-.3.9-.2c.4 0 .7 0 1 .2l.7.6c.2.3.2.6.2 1v3l.2.5v.1h-1v-.9Zm.2-2.3v.6h-1l-.6.1-.5.2-.3.3-.1.4v.5l.4.3.6.1a1.5 1.5 0 0 0 1.2-.6l.2-.5.4.5-.2.4a2.2 2.2 0 0 1-1 .9 2 2 0 0 1-.7.1 2 2 0 0 1-1-.2.9.9 0 0 1-.6-.6c-.2-.2-.2-.5-.2-.8l.1-.7.5-.6.8-.3a4 4 0 0 1 1-.1h1Zm2.3-4.3h1v6.5l-.2 1h-.8v-7.5Zm4.5 4.8v.1c0 .4 0 .8-.2 1 0 .4-.2.7-.4 1l-.6.5-.9.2c-.3 0-.6 0-.9-.2-.2 0-.4-.3-.6-.5l-.4-.8a5 5 0 0 1-.2-1v-.5c0-.3 0-.7.2-1 0-.3.2-.6.4-.8l.6-.5 1-.2c.2 0 .5 0 .8.2.3.1.5.3.6.6l.4.8.2 1.1Zm-1 .1v-.8a2 2 0 0 0-.2-.6 1.2 1.2 0 0 0-1.1-.6l-.6.1c-.2 0-.3.2-.4.3l-.3.5-.2.5v1.2l.3.6c0 .2.3.4.4.5.3.2.5.2.8.2l.6-.1.4-.4.3-.6v-.8Zm3.2-2.7v5.3h-.9v-5.3h1Zm-1-1.4.2-.3.4-.2c.2 0 .3 0 .4.2l.1.3-.1.4-.4.1-.4-.1-.1-.4Zm3.6-.8v7.5h-.9v-7.5h1Zm2.6 2.2v5.3h-1v-5.3h1Zm-1-1.4.1-.3.4-.2c.2 0 .3 0 .4.2l.2.3c0 .2 0 .3-.2.4l-.4.1-.4-.1v-.4Zm4.8 1.4v.7h-2.9v-.7h2.9Zm-1.9-1.3h.9v5.7l.3.2h.3a1.5 1.5 0 0 0 .4 0v.7h-.3l-.4.1-.6-.1a1 1 0 0 1-.4-.5c-.2-.2-.2-.5-.2-.8V279Zm4.6 6 1.4-4.7h1l-2.1 6.1a3.3 3.3 0 0 1-.5.9 1.4 1.4 0 0 1-1 .4h-.7v-.8h.8l.3-.3.3-.5.4-1Zm-1.1-4.7 1.4 4.1.2 1-.7.3-1.9-5.4h1Z" opacity=".6"/>
    </g>
  </g>
  <g filter="url(#j)">
    <g clip-path="url(#k)">
      <g filter="url(#l)">
        <rect width="154.7" height="61.3" x="335.7" y="190.3" fill="#fff" rx="5.8"/>
      </g>
      <path fill="#34D399" d="M341.5 225.3a3 3 0 0 1 3-3h67.8v23.4h-67.8a3 3 0 0 1-3-2.9v-17.5Z" opacity=".3"/>
      <path fill="#064E3B" d="M363.7 233.5v3.2l-.6.5-1 .5a5 5 0 0 1-3 0l-1-.9c-.4-.3-.6-.7-.8-1.2-.2-.5-.2-1-.2-1.7v-.6c0-.6 0-1.2.2-1.7s.4-.9.7-1.2c.3-.4.6-.6 1-.8l1.5-.3c.7 0 1.2.2 1.7.4.4.2.8.5 1 1 .3.3.4.8.5 1.3h-1.4c0-.3-.2-.6-.3-.8a1 1 0 0 0-.6-.5 2 2 0 0 0-.9-.2 2 2 0 0 0-.9.2c-.2 0-.4.3-.6.5l-.4.9v3l.5.9.7.6.9.1h.8l.5-.2.2-.3v-1.6h-1.7v-1h3.2Zm5 3V233l-.4-.4-.7-.1-.5.1a1 1 0 0 0-.4.3l-.2.5h-1.3c0-.3 0-.5.2-.7 0-.3.2-.5.5-.7l.8-.4 1-.1c.5 0 .9 0 1.3.2l.8.7c.2.3.3.7.3 1.2v3.5l.2.6H369l-.1-.5v-.7Zm.2-2.5v.9h-1.6l-.5.2a1 1 0 0 0-.3.4v.9l.4.3h.5a1.5 1.5 0 0 0 1.2-.5c.2-.2.2-.4.2-.5l.5.6c0 .2-.2.3-.3.5 0 .2-.2.4-.4.5a2.2 2.2 0 0 1-1.5.6c-.4 0-.7-.1-1-.3a2 2 0 0 1-.8-.6c-.2-.3-.3-.6-.3-1l.2-.8c.1-.3.3-.5.6-.7l.9-.4 1.2-.1h1Zm4.2-1.1v4.9h-1.4v-6.2h1.3v1.3Zm-.3 1.5h-.4l.1-1.2.5-1a2.2 2.2 0 0 1 1.8-.7l.8.1c.3 0 .5.2.7.4l.4.7v5h-1.3v-4l-.1-.6-.4-.4-.6-.1a1.3 1.3 0 0 0-1.1.5 2 2 0 0 0-.3.6v.7Zm9 2.1v-3l-.1-.5c0-.2-.2-.3-.4-.4l-.6-.1-.6.1a1 1 0 0 0-.3.3l-.2.5h-1.3l.1-.7.5-.7.8-.4 1.1-.1c.5 0 .9 0 1.2.2.4.2.7.4.9.7.2.3.3.7.3 1.2v3.5l.2.6H382l-.1-.5v-.7Zm.2-2.5v.9h-1.6l-.5.2a1 1 0 0 0-.3.4 1 1 0 0 0 0 .9l.3.3h.6a1.5 1.5 0 0 0 1.2-.5l.2-.5.4.6c0 .2 0 .3-.2.5l-.4.5a2.2 2.2 0 0 1-1.5.6c-.4 0-.8-.1-1-.3a2 2 0 0 1-.8-.6c-.2-.3-.3-.6-.3-1 0-.3 0-.6.2-.8l.5-.7 1-.4 1.1-.1h1.1Zm6.5 2.5V229h1.4v8.8h-1.2l-.2-1.3Zm-4-1.8c0-.5 0-1 .2-1.4 0-.3.3-.7.5-1a2.1 2.1 0 0 1 1.7-.8c.4 0 .7 0 1 .2.3.1.5.3.7.6l.5 1 .3 1.2v.4l-.3 1.2-.5 1a2 2 0 0 1-1.7.8 2.2 2.2 0 0 1-1.7-1 3 3 0 0 1-.5-1l-.2-1.2Zm1.4 0v.8l.3.7.4.4.7.2.7-.2.5-.6.3-.8v-1l-.2-.6-.3-.6-.4-.3-.6-.1-.7.1-.4.5-.2.6-.1.8Zm5.3 0c0-.5 0-1 .2-1.3.1-.4.3-.7.6-1 .2-.3.5-.5.9-.7a3 3 0 0 1 1.2-.2 2.5 2.5 0 0 1 2.1.9l.6 1 .2 1.2v.1l-.2 1.3a3 3 0 0 1-.6 1c-.2.3-.5.5-.9.6a3 3 0 0 1-1.2.3 3 3 0 0 1-1.2-.3 2 2 0 0 1-1-.6 3 3 0 0 1-.5-1l-.2-1.3Zm1.4 0v.8l.4.7c0 .2.2.3.4.4l.7.2c.3 0 .5 0 .7-.2l.4-.4.3-.7v-1.7a2 2 0 0 0-.3-.6 1.3 1.3 0 0 0-1.1-.6l-.7.1-.4.5a2 2 0 0 0-.3.6l-.1.8Z"/>
      <path fill="#ED4444" d="M413.8 222.4h67.8a3 3 0 0 1 3 2.9v17.5a3 3 0 0 1-3 3h-67.8v-23.4Z" opacity=".3"/>
      <path fill="#7F1D1D" d="M432.5 234.7h-2.1v-1.2h2.1c.4 0 .7 0 1-.2.2 0 .4-.2.5-.5l.1-.7-.1-.7a1 1 0 0 0-.5-.6l-1-.2h-1.7v7.2h-1.4v-8.3h3.1c.7 0 1.2 0 1.7.3.4.2.8.5 1 1a2.6 2.6 0 0 1 0 2.7c-.2.4-.6.6-1 .8a4 4 0 0 1-1.7.4Zm7 3.2c-.5 0-.9-.1-1.2-.3a2.7 2.7 0 0 1-1.6-1.5l-.2-1.2v-.2l.2-1.4.6-1c.3-.2.6-.5 1-.6.3-.2.6-.2 1-.2.5 0 .9 0 1.2.2l.8.6.5 1 .2 1.2v.6h-4.8v-1h3.4v-.1l-.1-.7-.5-.5c-.1-.2-.4-.2-.7-.2l-.6.1-.4.4-.3.7-.1.9v.2l.1.7c0 .3.2.5.3.6l.6.4.7.2a2 2 0 0 0 1.5-.8l.8.7-.6.6-.7.4-1.1.2Zm5-5.1v5h-1.3v-6.2h1.3v1.2Zm2-1.3v1.3a2.9 2.9 0 0 0-.6 0h-.7a1.2 1.2 0 0 0-.7.8v.6h-.4l.1-1c0-.4.2-.7.4-1l.5-.5a1.6 1.6 0 0 1 1.1-.2h.2Zm4.6 5V229h1.4v8.8h-1.3l-.1-1.3Zm-4-1.8.1-1.4.5-1a2.1 2.1 0 0 1 1.8-.8c.4 0 .7 0 1 .2.3.1.5.3.7.6l.5 1 .2 1.2v.4l-.2 1.2-.5 1a2 2 0 0 1-1.7.8 2.2 2.2 0 0 1-1.8-1 3 3 0 0 1-.5-1l-.1-1.2Zm1.3 0 .1.8c0 .3.2.5.3.7 0 .2.2.3.4.4l.6.2.8-.2.5-.6.2-.8v-1l-.1-.6-.3-.6-.4-.3-.7-.1-.6.1-.4.5-.3.6v.8Zm7.1-3.1v6.2h-1.4v-6.2h1.4ZM454 230l.3-.6.5-.2.6.2.2.6c0 .2 0 .3-.2.5l-.6.2c-.2 0-.4 0-.6-.2a.7.7 0 0 1-.2-.5Zm7 6.5V229h1.3v8.8h-1.2l-.2-1.3Zm-4-1.8v-1.4c.2-.3.3-.7.6-1a2.1 2.1 0 0 1 1.7-.8c.4 0 .7 0 1 .2.3.1.5.3.7.6l.5 1 .3 1.2v.4l-.3 1.2-.5 1a2 2 0 0 1-1.7.8 2.2 2.2 0 0 1-1.7-1 3 3 0 0 1-.5-1l-.2-1.2Zm1.3 0v.8l.3.7.4.4.7.2.7-.2.5-.6.3-.8v-1l-.2-.6-.3-.6-.4-.3-.6-.1-.7.1-.4.5-.2.6-.1.8Zm5.3 0c0-.5 0-1 .2-1.3.1-.4.3-.7.6-1 .2-.3.5-.5.9-.7a3 3 0 0 1 1.2-.2 2.5 2.5 0 0 1 2.1.9l.6 1 .2 1.2v.1l-.2 1.3a3 3 0 0 1-.6 1 2 2 0 0 1-1 .6 3 3 0 0 1-1.1.3 3 3 0 0 1-1.2-.3 2 2 0 0 1-1-.6 3 3 0 0 1-.5-1l-.2-1.3Zm1.4 0v.8l.3.7.5.4.7.2c.2 0 .5 0 .7-.2l.4-.4.3-.7v-1.7a2 2 0 0 0-.3-.6 1.3 1.3 0 0 0-1.1-.6l-.7.1-.5.5a2 2 0 0 0-.2.6l-.1.8Z"/>
      <path fill="#2E394C" d="M348.3 209.7v.7h-3.7v-.7h3.7Zm-3.5-6.4v7.1h-1v-7h1Zm3 3v.9h-3.2v-.8h3.2Zm.5-3v.8h-3.7v-.8h3.7Zm4.3 5.7-.1-.3-.4-.3-.7-.3-.8-.2c-.3 0-.5-.2-.6-.3l-.4-.4-.1-.6.1-.6c0-.2.2-.3.4-.5l.6-.3.8-.1c.4 0 .8 0 1.1.2.3.1.5.3.7.6.2.2.2.5.2.8h-.9l-.1-.4a1 1 0 0 0-.4-.4l-.6-.1-.6.1-.3.3a.7.7 0 0 0 0 .6l.1.3.4.1.6.2c.4 0 .8.2 1 .3l.7.5.2.8a1.4 1.4 0 0 1-.6 1.1 2 2 0 0 1-.6.3l-.9.1c-.4 0-.8 0-1.1-.2-.4-.2-.6-.4-.8-.7l-.2-.8h.9c0 .3 0 .5.2.6l.5.3a1.9 1.9 0 0 0 1.2 0l.4-.3v-.4Zm4.4-3.8v.7h-2.8v-.7h2.8Zm-1.9-1.3h1v5.6l.2.2h.3a1.5 1.5 0 0 0 .4 0v.7a2.2 2.2 0 0 1-.6.1h-.7a1 1 0 0 1-.4-.5l-.2-.9V204Zm4.1 1.3v5.2h-.9v-5.2h1Zm-1-1.4c0-.2 0-.3.2-.4l.4-.2c.1 0 .3 0 .4.2l.1.4-.1.3-.4.2c-.2 0-.3 0-.4-.2l-.2-.3Zm3.5 2.4v4.2h-1v-5.2h1v1Zm-.2 1.4h-.4l.1-1 .4-.8c.2-.3.4-.4.7-.5.3-.2.6-.2 1-.2h.6a1.4 1.4 0 0 1 1 1v4.3h-.9V207l-.1-.7c0-.2-.2-.3-.4-.4h-1.3l-.4.5-.2.5v.7Zm3.4-.5-.6.2c0-.3 0-.6.2-.8 0-.3.2-.6.4-.8l.6-.5 1-.1h.7l.5.4.4.6.1.9v3.4h-1v-4.1l-.4-.4a1.6 1.6 0 0 0-1.2 0 1 1 0 0 0-.4.3l-.2.4v.5Zm8 2.4v-2.7l-.2-.5c0-.2-.2-.3-.4-.4l-.6-.1-.6.1a1 1 0 0 0-.4.3l-.1.4h-1l.2-.5.4-.5.7-.4.9-.1c.3 0 .7 0 1 .2.3 0 .5.3.7.5l.2 1v3.1l.2.5h-1v-.9Zm0-2.3v.7h-1.5l-.5.2-.3.3-.1.4v.5l.4.3.6.1a1.5 1.5 0 0 0 1.2-.6l.2-.5.4.5c0 .1 0 .3-.2.4a2.2 2.2 0 0 1-1 .9 2 2 0 0 1-.8.1 2 2 0 0 1-1-.2l-.5-.5c-.2-.3-.3-.5-.3-.8l.2-.8.5-.5c.2-.2.5-.3.7-.3a4 4 0 0 1 1-.2h1Zm4.6-2v.7h-2.9v-.7h2.9Zm-1.9-1.3h1v5.6l.2.2h.3a1.5 1.5 0 0 0 .4 0v.7l-.3.1h-1a1 1 0 0 1-.4-.5l-.2-.9V204Zm5.3 6.6-1-.1a2.3 2.3 0 0 1-1.3-1.4 3 3 0 0 1-.1-1v-.2c0-.4 0-.8.2-1.2 0-.3.3-.6.5-.8a2.2 2.2 0 0 1 1.6-.7c.3 0 .7 0 1 .2.2 0 .5.3.6.5l.4.8.1 1v.5H379v-.8h3l-.1-.7c0-.3-.2-.4-.4-.6l-.7-.2a1.2 1.2 0 0 0-1 .5 2 2 0 0 0-.3.6l-.1.9v.9l.4.6a1.5 1.5 0 0 0 1.1.5c.4 0 .6 0 .8-.2.3-.1.5-.3.6-.5l.6.4-.5.5a2 2 0 0 1-.6.4l-1 .1Zm6.6-1v-6.6h.9v7.5h-.9v-1Zm-3.6-1.6v-.1c0-.4 0-.8.2-1.1 0-.4.2-.7.4-.9l.6-.5c.3-.2.6-.2.9-.2l.9.1.6.5.4.8.2 1v.5c0 .4 0 .8-.2 1 0 .4-.2.6-.4.9l-.6.5a2.1 2.1 0 0 1-1.8 0 2 2 0 0 1-.6-.6l-.4-.9-.2-1Zm1-.1v.8l.3.6c0 .2.2.3.4.4l.6.2c.3 0 .6 0 .8-.2l.4-.5.3-.7v-1.2l-.2-.5c0-.2-.1-.3-.3-.4 0-.2-.2-.3-.4-.4h-1.2l-.4.5a2 2 0 0 0-.3.6v.8Zm9.8 2 .6-.1.4-.4.2-.5h.9c0 .3-.2.6-.4.8a2.2 2.2 0 0 1-1.7 1c-.4 0-.8-.1-1-.3a2 2 0 0 1-.8-.5l-.4-.9-.2-1v-.2c0-.4 0-.7.2-1 0-.3.2-.6.4-.9l.7-.5c.3-.2.7-.2 1-.2.5 0 .8 0 1.1.2.4.2.6.4.8.7l.3 1h-.9c0-.2 0-.4-.2-.6 0-.2-.2-.3-.4-.4l-.6-.2c-.3 0-.6 0-.7.2-.2 0-.4.2-.5.4a2 2 0 0 0-.2.6v1.6l.2.6.5.4.7.2Zm4.2-6.9v7.5h-1V203h1Zm1.4 5v-.2l.1-1 .5-.9.8-.5c.2-.2.6-.2 1-.2.3 0 .7 0 1 .2l.7.5.5.9.2 1v.2c0 .3 0 .7-.2 1l-.5.9a2.2 2.2 0 0 1-1.7.7c-.4 0-.7 0-1-.2a2.3 2.3 0 0 1-1.3-1.4l-.1-1Zm.9-.2v.9l.3.6.5.4.7.2c.2 0 .4 0 .6-.2.2 0 .4-.2.5-.4l.3-.6V207l-.3-.6-.5-.4-.7-.2c-.2 0-.4 0-.6.2-.2 0-.3.2-.5.4a2 2 0 0 0-.3.6v.7Zm8.2 1.3v-.3l-.4-.3-.8-.3-.8-.2-.6-.3-.4-.4-.1-.6.1-.6.4-.5.6-.3.8-.1c.5 0 .8 0 1.1.2.3.1.6.3.7.6.2.2.3.5.3.8h-1v-.4a1 1 0 0 0-.5-.4l-.6-.1-.6.1-.3.3a.7.7 0 0 0 0 .6l.1.3.4.1.6.2c.4 0 .8.2 1 .3l.7.5.2.8a1.4 1.4 0 0 1-.5 1.1 2 2 0 0 1-.7.3l-.8.1c-.5 0-.9 0-1.2-.2-.3-.2-.6-.4-.7-.7-.2-.2-.3-.5-.3-.8h1a1 1 0 0 0 .6 1 1.9 1.9 0 0 0 1.2-.1c.2 0 .3-.2.4-.3l.1-.4Zm3.2-3.8v5.2h-.9v-5.2h1Zm-1-1.4c0-.2 0-.3.2-.4l.4-.2c.2 0 .3 0 .4.2l.1.4-.1.3-.4.2c-.2 0-.3 0-.4-.2l-.2-.3Zm3.5 2.5v4.1h-.9v-5.2h.9v1Zm-.2 1.3h-.4c0-.4 0-.7.2-1 0-.3.2-.6.4-.8a2 2 0 0 1 1.6-.7h.7l.5.4.4.6v4.3h-.8V207c0-.3 0-.5-.2-.7 0-.2-.2-.3-.3-.4h-.6a1.3 1.3 0 0 0-1 .5 2 2 0 0 0-.5 1.2Zm8.4-2.4h.8v5.1c0 .5 0 .9-.3 1.2-.1.3-.4.6-.8.8a2.5 2.5 0 0 1-1.8.1l-.7-.3c-.2 0-.4-.3-.6-.5l.5-.5.7.5.7.2c.3 0 .6 0 .8-.2.2 0 .3-.2.4-.5.2-.2.2-.4.2-.7v-4l.1-1.2Zm-3.6 2.7v-.1l.1-1.1c.1-.4.2-.7.4-.9a1.9 1.9 0 0 1 1.6-.7l.8.1.7.5.4.8.2 1v.5l-.2 1-.4.9-.7.5a2.1 2.1 0 0 1-1.7 0 2 2 0 0 1-.7-.6l-.4-.9-.1-1Zm.9-.1v.8l.3.6.4.4.7.2c.3 0 .5 0 .7-.2l.5-.5.2-.7v-1.2l-.1-.5-.3-.4-.4-.4h-1.3l-.4.5a2 2 0 0 0-.3.6v.8Zm31.4 2v.7h-4.7v-.6l2.3-2.6.7-.8.3-.6v-1.2a1 1 0 0 0-.5-.5l-.6-.1-.8.1-.5.5-.2.8h-.9c0-.4.1-.8.3-1.1.2-.3.4-.6.8-.8.3-.2.7-.3 1.3-.3.4 0 .8 0 1.1.2.3.2.6.4.7.7.2.3.3.6.3 1l-.1.6c0 .3-.2.5-.3.7a10.2 10.2 0 0 1-1 1.2l-1.8 2h3.5Zm4-6.4v7.1h-.9v-6l-1.8.7v-.9l2.6-1h.1Zm8.3.6-2.4 6.5h-1l2.8-7h.6v.5Zm2 6.5-2.4-6.5v-.6h.6l2.7 7.1h-1Zm-.2-2.6v.8h-4v-.8h4Zm3-1.7v6.3h-1v-7.3h.9v1Zm3.5 1.6v.1l-.1 1.1c0 .3-.2.6-.4.9l-.6.5-1 .2c-.2 0-.5 0-.8-.2-.3 0-.5-.2-.7-.4l-.4-.8-.2-1v-.5l.2-1 .4-.9.7-.5.9-.2.9.2.6.6.4.8.1 1.1Zm-.9.1v-.8l-.3-.6a1.2 1.2 0 0 0-1-.6l-.7.1-.4.3-.3.5-.2.5v1.3l.3.6.5.5.7.2c.3 0 .5 0 .7-.2l.4-.4.3-.6v-.8Zm3.1-1.8v4.4h-.9v-5.3h1v.9Zm1.7-.9v.8h-.5l-.5.1c-.2 0-.3.2-.4.3l-.3.4-.1.5-.3.2.1-1 .3-.7.5-.5a1.4 1.4 0 0 1 1.2-.1Zm2 0v5.3h-1v-5.3h1Zm-1-1.4.1-.3.4-.2c.2 0 .3 0 .4.2l.1.3-.1.4-.4.1-.4-.1-.1-.4Zm3.5-.8v7.5h-.9V203h1Z" opacity=".6"/>
    </g>
  </g>
  <rect width="257.5" height="54.5" x="56.7" y="38.8" fill="#1F2937" rx="5.9"/>
  <path fill="#fff" d="M72.7 52.2h3.5a5 5 0 0 1 2 .4c.5.2.9.5 1.2 1 .2.4.4 1 .4 1.6 0 .5-.1 1-.3 1.3-.2.4-.4.7-.8 1l-1.1.6-.6.2h-3V57h2.3c.4 0 .8-.1 1-.3.3-.1.5-.3.7-.6l.2-.8c0-.4 0-.7-.2-1l-.6-.5-1.1-.2h-1.8v8.6h-1.7v-10Zm5.7 10L76 57.7h1.8l2.4 4.4h-1.8Zm3-.9c0-.2 0-.4.3-.6.1-.2.4-.3.7-.3.3 0 .5.1.7.3l.2.6c0 .3 0 .5-.2.7a1 1 0 0 1-.7.2 1 1 0 0 1-.7-.2.9.9 0 0 1-.3-.7Zm9.9-2.4H93a4 4 0 0 1-.6 1.8 3 3 0 0 1-1.3 1.2c-.5.2-1.2.4-2 .4a3.6 3.6 0 0 1-3-1.3c-.3-.4-.6-.9-.8-1.5l-.2-1.9v-.8c0-.7 0-1.4.3-2 .1-.5.4-1 .8-1.4.3-.5.8-.8 1.2-1 .5-.2 1.1-.3 1.7-.3a4 4 0 0 1 2 .4c.6.3 1 .7 1.3 1.2.3.5.5 1.1.6 1.8h-1.7c0-.4-.2-.8-.3-1.1l-.7-.7c-.3-.2-.7-.3-1.2-.3-.4 0-.7.1-1 .3a2 2 0 0 0-.7.6 3 3 0 0 0-.5 1l-.1 1.5v.8l.1 1.4.4 1 .7.7 1 .2c.6 0 1 0 1.3-.2.3-.2.5-.4.6-.7l.4-1Zm3.1 2.4.3-.6c.2-.2.4-.3.7-.3.3 0 .5.1.7.3.2.2.2.4.2.6 0 .3 0 .5-.2.7a1 1 0 0 1-.7.2 1 1 0 0 1-.7-.2.9.9 0 0 1-.3-.7Zm7.9-7.8-3 8.7h-1.8l3.8-10h1.1l-.1 1.3Zm2.5 8.7-3-8.7-.1-1.3h1.1l3.8 10h-1.8Zm-.2-3.7v1.3h-5.4v-1.3h5.4Zm9.4 3.7h-2v-1.4h2c.7 0 1.2-.1 1.6-.4a4 4 0 0 0 1-1.2c.1-.5.3-1 .3-1.7v-.6l-.2-1.4c-.1-.4-.3-.8-.6-1-.2-.3-.5-.6-.8-.7a3 3 0 0 0-1.2-.2H112v-1.4h2.2c.7 0 1.3.1 1.8.3.6.3 1 .6 1.4 1 .4.4.7 1 1 1.5.2.6.3 1.2.3 2v.5c0 .7-.1 1.3-.3 1.9l-1 1.5a5 5 0 0 1-1.4 1 5 5 0 0 1-1.9.3Zm-1.1-10v10h-1.7v-10h1.7Zm9 2.6v7.4h-1.7v-7.4h1.7Zm-1.8-2 .3-.6c.1-.2.4-.2.7-.2.3 0 .5 0 .7.2l.2.6c0 .3 0 .5-.2.6a1 1 0 0 1-.7.3 1 1 0 0 1-.7-.3.8.8 0 0 1-.3-.6Zm7.7 7.4v-.5a1 1 0 0 0-.6-.4l-1-.3c-.4 0-.7-.1-1-.3-.4 0-.6-.2-.9-.4l-.5-.6-.2-.8c0-.3 0-.6.2-.9.1-.3.3-.5.6-.7l.8-.5 1.2-.2c.7 0 1.2.1 1.6.3.5.2.8.5 1 .9.3.3.4.7.4 1.2h-1.6c0-.2 0-.4-.2-.6a1 1 0 0 0-.4-.4l-.8-.2c-.2 0-.5 0-.7.2a1 1 0 0 0-.4.3.9.9 0 0 0 0 .8c0 .1 0 .2.2.3l.5.2.7.2 1.5.5c.4.1.7.4 1 .7l.2 1a2 2 0 0 1-.8 1.7 3 3 0 0 1-1 .4l-1.1.2c-.7 0-1.3-.1-1.7-.4a2 2 0 0 1-1.1-.9c-.2-.4-.4-.8-.4-1.2h1.6c0 .3.1.6.3.8l.6.4h1.4l.5-.4.1-.4Zm6.5-5.4V56H130v-1.2h4.2Zm-3-1.8h1.7v7.6l.3.3h.4a2.5 2.5 0 0 0 .6 0V62a4.2 4.2 0 0 1-1 .2c-.4 0-.8 0-1-.2-.4-.1-.6-.4-.7-.7-.2-.3-.3-.7-.3-1.2V53Zm5.9 3.2v6h-1.6v-7.4h1.5v1.4Zm2.3-1.5v1.5a3.2 3.2 0 0 0-1.5.1 1.4 1.4 0 0 0-.8.9l-.2.7h-.4c0-.4 0-.9.2-1.3 0-.4.2-.7.4-1l.7-.7a1.9 1.9 0 0 1 1.3-.2h.3Zm2.7 0v7.5h-1.6v-7.4h1.6Zm-1.7-1.9c0-.2 0-.4.2-.6.2-.2.4-.2.7-.2.3 0 .5 0 .7.2l.3.6c0 .3-.1.5-.3.6a1 1 0 0 1-.7.3 1 1 0 0 1-.7-.3.8.8 0 0 1-.2-.6Zm3.6-1.1h1.6v8.9l-.2 1.6h-1.4V51.7Zm6.4 6.7v.1c0 .6 0 1-.2 1.5 0 .5-.3.9-.5 1.2-.3.4-.6.6-1 .8a2 2 0 0 1-1.1.3c-.5 0-1-.1-1.2-.3-.4-.1-.7-.4-1-.7a4 4 0 0 1-.5-1.1l-.3-1.5v-.5l.3-1.4.6-1.2a2.4 2.4 0 0 1 2-1c.5 0 1 .1 1.3.3.4.2.7.4.9.8l.5 1.2c.2.4.2 1 .2 1.5Zm-1.6.1v-.1l-.1-1-.3-.7-.5-.5c-.2-.2-.5-.2-.8-.2l-.7.1-.5.4a2 2 0 0 0-.4.6l-.1.8V59c0 .3 0 .6.2 1l.6.6c.2.2.6.3 1 .3l.7-.2.5-.5.3-.8v-1Zm7.5 2v-5.7h1.6v7.4h-1.5l-.1-1.8Zm.2-1.6h.5l-.1 1.3-.5 1.1c-.3.3-.5.6-.9.7a3 3 0 0 1-1.3.3 3 3 0 0 1-1-.2 2 2 0 0 1-.7-.5c-.3-.2-.4-.5-.5-.8a4 4 0 0 1-.2-1.3v-4.7h1.6v4.8l.1.6c0 .2.2.3.3.5l.4.2h.4c.5 0 .9 0 1.1-.2.3-.2.5-.5.6-.8l.2-1Zm6.5-4.1V56h-4.2v-1.2h4.2Zm-3-1.8h1.7v7.6l.3.3h.5a2.5 2.5 0 0 0 .5 0V62a4.2 4.2 0 0 1-1 .2c-.4 0-.8 0-1-.2-.3-.1-.6-.4-.7-.7-.2-.3-.3-.7-.3-1.2V53Zm3.8 5.5v-.1c0-.5 0-1 .2-1.5s.4-.9.7-1.2a3 3 0 0 1 1-.8l1.5-.3c.5 0 1 .1 1.4.3.5.2.8.5 1.1.8.3.3.6.7.7 1.2.2.5.2 1 .2 1.5v.1c0 .6 0 1-.2 1.5-.1.5-.4.9-.7 1.2a3.1 3.1 0 0 1-2.5 1c-.5 0-1 0-1.4-.2-.5-.2-.8-.4-1.1-.8-.3-.3-.5-.7-.7-1.2-.2-.4-.2-1-.2-1.5Zm1.6-.1v.1l.1 1c0 .3.2.5.3.8l.6.5.8.2a1.6 1.6 0 0 0 1.4-.7l.3-.8v-2.1l-.3-.7a1.6 1.6 0 0 0-1.4-.8l-.8.2-.6.6-.3.8v.9Zm8.3-2.2v6H172v-7.4h1.6v1.4Zm2.2-1.5v1.5a3.2 3.2 0 0 0-1.4.1 1.4 1.4 0 0 0-.9.9l-.1.7h-.4c0-.4 0-.9.2-1.3 0-.4.2-.7.4-1l.7-.7a1.9 1.9 0 0 1 1.3-.2h.2Zm5.2 5.5-.1-.5a1 1 0 0 0-.5-.4l-1-.3c-.4 0-.8-.1-1-.3-.4 0-.7-.2-1-.4l-.5-.6-.1-.8c0-.3 0-.6.2-.9 0-.3.3-.5.5-.7l1-.5 1.1-.2c.6 0 1.2.1 1.6.3.4.2.8.5 1 .9.3.3.4.7.4 1.2H181l-.1-.6a1 1 0 0 0-.5-.4l-.7-.2c-.3 0-.5 0-.7.2a1 1 0 0 0-.4.3.9.9 0 0 0 0 .8c0 .1 0 .2.2.3l.4.2.8.2c.6.1 1 .3 1.4.5.5.1.8.4 1 .7a2 2 0 0 1-.5 2.7 3 3 0 0 1-1 .4l-1.2.2c-.6 0-1.2-.1-1.7-.4-.4-.2-.8-.5-1-.9a2 2 0 0 1-.4-1.2h1.6c0 .3.1.6.3.8l.5.4h1.5l.4-.4c.2-.1.2-.3.2-.4Z"/>
  <path fill="#fff" d="M73 69.5h1l2.5 6.4 2.5-6.4h1l-3 7.8h-1l-3.2-7.8Zm-.4 0h.9l.1 4.8v3h-1v-7.8Zm6.9 0h.9v7.8h-1v-7.8Zm6 6.8v-3c0-.2 0-.4-.2-.5a1 1 0 0 0-.4-.4l-.7-.2c-.2 0-.4 0-.6.2-.2 0-.4.2-.5.3l-.1.4h-1c0-.2 0-.4.2-.6 0-.2.2-.4.4-.5l.7-.4 1-.2c.4 0 .8 0 1.1.2l.8.7c.2.3.3.6.3 1v3.4l.2.6h-1l-.2-.4v-.6Zm.1-2.5v.7H84l-.6.3a.9.9 0 0 0-.5.8l.2.5.4.4h.6a1.6 1.6 0 0 0 1.3-.6l.3-.5.4.4-.2.5a2.4 2.4 0 0 1-1.1 1l-.9.1c-.4 0-.7 0-1-.2-.3-.1-.5-.3-.7-.6-.2-.3-.2-.6-.2-.9l.1-.8.6-.6.8-.4h2.2Zm3.4-1.4v5h-1v-5.9h1v1Zm1.8-.9v1l-.2-.1h-.9l-.4.4-.3.4-.1.6-.3.2v-1l.4-.8.6-.6a1.6 1.6 0 0 1 1.2-.1Zm3.2 5.1.6-.1.5-.4.2-.6h1c0 .3-.2.7-.4 1a2.4 2.4 0 0 1-2 1c-.4 0-.8-.1-1-.3-.4-.1-.7-.3-.9-.6l-.5-1-.1-1v-.3l.1-1 .5-1c.2-.3.5-.5.8-.6.3-.2.7-.3 1.2-.3l1.2.3c.3.2.6.4.8.8.2.3.3.6.3 1h-1c0-.2 0-.4-.2-.6 0-.2-.2-.4-.4-.5l-.7-.2-.8.2-.5.5-.2.7-.1.7v1l.3.7.5.5.8.1Zm4.4-7.5v8.2h-1v-8.2h1Zm-.2 5.1h-.5l.2-1.1.5-.9a2.2 2.2 0 0 1 1.7-.8l.8.1.6.4c.1.2.3.4.3.7l.2 1v3.7h-1v-3.8c0-.3 0-.5-.2-.7 0-.2-.2-.3-.4-.4l-.6-.1a1.5 1.5 0 0 0-1.2.5 2.2 2.2 0 0 0-.4 1.4Zm11.1-4.7v7.8h-1v-6.6l-2 .8v-1l2.9-1h.1Zm8.3 5.2v.8h-5.7V75l3.5-5.4h.8l-.9 1.6-2.3 3.6h4.6Zm-1.1-5.2v7.8h-1v-7.8h1Zm3 6.7v.8l-.3 1c-.1.4-.4.7-.7 1l-.5-.5a3 3 0 0 0 .4-1v-1.3h1Zm9 .3v.8h-5.1v-.7l2.5-2.8.8-1 .3-.6.1-.6-.1-.7-.5-.5-.7-.2-1 .2-.4.6-.2.8h-1l.3-1.2c.2-.4.5-.6.9-.9.3-.2.8-.3 1.4-.3.5 0 .9.1 1.2.3.4.1.6.4.8.7a2.2 2.2 0 0 1 .2 1.8l-.3.7-.5.7-.5.7-2.1 2.2h3.9Zm6-3.7V74l-.2 1.6c-.1.5-.3.8-.5 1-.2.4-.5.6-.8.7l-1 .1a3 3 0 0 1-.8 0 2 2 0 0 1-.7-.4l-.6-.7-.3-1a7 7 0 0 1 0-1.3v-2.8l.6-1c.2-.3.5-.5.8-.6l1-.2.8.1a1.9 1.9 0 0 1 1.2 1c.2.3.3.6.3 1l.1 1.3Zm-1 1.4v-1.6l-.1-.9-.2-.7c0-.2-.2-.3-.3-.4a1 1 0 0 0-.4-.3h-1.2l-.4.5-.3.7v3.6c0 .3 0 .5.2.7 0 .2.1.3.3.5l.4.2.5.1.6-.1.5-.4.3-.8v-1.1Zm7.4 2.3v.8h-5.2v-.7l2.6-2.8.7-1 .4-.6.1-.6c0-.2 0-.5-.2-.7 0-.2-.2-.4-.4-.5l-.8-.2-.8.2-.6.6-.1.8h-1c0-.4 0-.8.3-1.2.2-.4.5-.6.8-.9.4-.2.9-.3 1.4-.3.5 0 1 .1 1.3.3.4.1.6.4.8.7a2.2 2.2 0 0 1 .2 1.8l-.3.7-.5.7-.6.7-2 2.2h3.9Zm6.1 0v.8h-5v-.7l2.5-2.8.7-1 .4-.6V71l-.5-.5-.8-.2-.8.2-.6.6-.1.8h-1c0-.4 0-.8.3-1.2.2-.4.4-.6.8-.9.4-.2.9-.3 1.4-.3.5 0 1 .1 1.3.3.3.1.6.4.8.7.2.3.3.7.3 1.1l-.1.7-.4.7-.4.7-.6.7-2 2.2h3.8Z" opacity=".6"/>
  <rect width="25.2" height="21.9" x="274" y="55.1" fill="#344152" rx="3.4"/>
  <path fill="#FBFBFB" d="m290.2 66.7.5-.5c.2-.2.2-.6 0-.8l-4.3-4.3a.5.5 0 0 0-.8 0l-4.3 4.3c-.2.2-.2.6 0 .8l.5.5c.3.2.6.2.8 0l2.5-2.7v6.4c0 .3.3.5.6.5h.7c.3 0 .5-.2.5-.5V64l2.5 2.7c.2.2.6.2.8 0Z"/>
  <g filter="url(#m)">
    <g clip-path="url(#n)">
      <rect width="257.5" height="220.9" x="56.7" y="105" fill="#fff" rx="5.9"/>
      <path fill="#D9E6FC" fill-opacity=".4" d="M56.7 105.6h257.5v61.8H56.7z"/>
      <rect width="35.3" height="35.3" x="73.6" y="118.8" fill="#4181FA" fill-opacity=".1" rx="17.7"/>
      <path fill="#4181F2" fill-rule="evenodd" d="m85.7 133.1 3.8 3.4c1 1 2.5 1 3.5 0l3.9-3.4c.2.3.3.7.3 1.2v4.4c0 .5-.1.8-.3 1.2l-3-2.7-.4.3 3 2.9c-.4.4-1 .7-1.5.7h-7.4c-.5 0-1-.2-1.4-.5l3.2-2.9-.2-.1-.1-.1-.2-.2-3.1 2.8a2 2 0 0 1-.4-1.3v-4.5c0-.5.1-.9.3-1.2Zm9.3-1.2c.6 0 1.1.3 1.5.7l-3.8 3.4a2 2 0 0 1-2.8 0l-3.8-3.4c.4-.4.9-.7 1.5-.7H95Z" clip-rule="evenodd"/>
      <rect width="35.3" height="35.3" x="120.7" y="118.8" fill="#4181FA" fill-opacity=".1" rx="17.7"/>
      <path fill="#4181F2" fill-rule="evenodd" d="M141.7 142.3a13.2 13.2 0 0 1-9.1-9.1c-.4-1.4.5-2 1.7-2.5.3-.2.7-.1 1 .4l1.4 2.2c.3.6 0 1-.5 1.4v.1c-.3.3-.3.8.1 1.3a16.4 16.4 0 0 0 2.5 2.4c.5.4 1 .5 1.3.2.5-.4 1-.8 1.4-.5l2.3 1.3c.5.3.5.8.4 1.1-.5 1-1 1.8-2 1.8l-.5-.1Z" clip-rule="evenodd"/>
      <rect width="35.3" height="35.3" x="167.8" y="118.8" fill="#4181FA" fill-opacity=".1" rx="17.7"/>
      <path fill="#4181FA" fill-rule="evenodd" d="M185.2 139.3v3c-1-.1-1.7-1.2-2.1-2.7.6-.1 1.3-.3 2-.3Zm.6 0c.7 0 1.4.2 2 .3-.4 1.5-1.2 2.6-2 2.8v-3Zm-3.3.5c.3 1 .7 1.8 1.2 2.4a9 9 0 0 1-2.5-1.6l1.3-.8Zm6 0 1.3.8c-.7.7-1.6 1.2-2.5 1.5a6 6 0 0 0 1.1-2.2Zm-8.9-2.8h2.5c0 .8 0 1.5.3 2.2-.6.3-1.2.5-1.6.9a6 6 0 0 1-1.2-3.1Zm11.7 0a6 6 0 0 1-1.1 3l-1.6-.8.3-2.2h2.4Zm-6.1 0v1.7a9 9 0 0 0-2.3.3l-.2-2h2.5Zm3 0c0 .7 0 1.4-.2 2a9 9 0 0 0-2.2-.3V137h2.4Zm-7.6-3.9 1.7 1-.2 2.2h-2.5a6 6 0 0 1 1-3.1Zm2.3 1.2a9 9 0 0 0 2.3.3v1.7h-2.5c0-.7 0-1.4.2-2Zm5.2 0 .2 2h-2.5v-1.7a9 9 0 0 0 2.2-.3Zm2.2-1.2c.6 1 1 2 1 3.2H189c0-.8-.1-1.5-.3-2.2.6-.3 1.2-.6 1.6-1h.1Zm-5.1-2.5v3.4c-.8 0-1.5-.1-2.2-.3.4-1.7 1.2-2.9 2.2-3Zm.6 0c.9.2 1.7 1.4 2.1 3a5 5 0 0 1-2.1.4v-3.4Zm-2.1.3c-.6.6-1 1.5-1.3 2.6-.5-.3-1-.5-1.4-.9.7-.8 1.6-1.4 2.7-1.7Zm3.5 0c1 .3 2 1 2.7 1.7-.4.4-.8.6-1.4.9a7 7 0 0 0-1.2-2.6Z" clip-rule="evenodd"/>
      <rect width="35.3" height="35.3" x="214.9" y="118.8" fill="#4181FA" fill-opacity=".1" rx="17.7"/>
      <path fill="#4181FA" fill-rule="evenodd" d="M232.6 142.4c1.8 0 4-3.5 4-6.5 0-2.9-1.8-5.3-4-5.3-2.3 0-4.2 2.4-4.2 5.3 0 3 2.3 6.5 4.2 6.5Zm0-5.3c1.3 0 2.3-1 2.3-2.4 0-1.3-1-2.3-2.3-2.3a2.3 2.3 0 1 0 0 4.7Z" clip-rule="evenodd"/>
      <rect width="35.3" height="35.3" x="262" y="118.8" fill="#4181FA" rx="17.7"/>
      <path fill="#fff" fill-rule="evenodd" d="M281 142.4c.2 0 .5-.1.8-.4l4.6-4.6a1.3 1.3 0 0 0 0-1.8l-4.6-4.6c-.3-.3-.6-.4-.8-.4-.8 0-1.2.5-1.2 1.2 0 .3.1.6.3.8l1.7 1.7 1.2 1h-9.2c-.7 0-1.3.5-1.3 1.2s.6 1.2 1.3 1.2h9.2l-1.2 1-1.7 1.7c-.2.2-.3.5-.3.8 0 .7.4 1.2 1.2 1.2Z" clip-rule="evenodd"/>
      <path fill="#fff" d="M56.7 167.4h257.5v124H56.7z"/>
      <rect width="111.1" height="44.3" x="69.9" y="180.7" fill="#EDEFF3" fill-opacity=".5" rx="5.9"/>
      <path fill="#2E394C" d="m85.2 194-2.4 6.4h-1l2.8-7h.6v.5Zm2 6.4-2.4-6.5v-.6h.6l2.7 7.1h-1Zm-.2-2.6v.8h-4v-.8h4Zm2.8-1.6v4.2H89v-5.3h.9v1Zm-.2 1.4h-.4c0-.4 0-.7.2-1 0-.3.2-.6.4-.8.1-.3.4-.4.6-.6l1-.2c.2 0 .4 0 .6.2a1.4 1.4 0 0 1 1 .9v4.3h-.8V197c0-.3 0-.5-.2-.7 0-.2-.2-.3-.4-.4h-1.2l-.5.4-.2.6v.7Zm3.5-.5-.6.2v-.9l.5-.7.7-.5.9-.2c.2 0 .5 0 .7.2l.6.3.3.6.1.9v3.4h-.9V197l-.1-.6-.4-.4a1.6 1.6 0 0 0-1.1 0 1 1 0 0 0-.4.3l-.3.4v.5Zm4.4.7.1-1.1c.1-.4.3-.6.5-.9l.8-.5c.3-.2.6-.3 1-.3.3 0 .7.1 1 .3.3 0 .5.3.7.5.2.3.4.5.5.9l.2 1v.1c0 .4 0 .8-.2 1.1l-.5.9a2.2 2.2 0 0 1-1.7.7c-.4 0-.7 0-1-.2a2.3 2.3 0 0 1-1.3-1.4l-.1-1Zm.9 0v.8l.3.6.5.4.7.2c.2 0 .4 0 .6-.2.2 0 .4-.2.5-.4l.3-.6V197l-.3-.6-.5-.5-.6-.1a1.3 1.3 0 0 0-1.2.6 2 2 0 0 0-.3.6v.7Zm8.2 1.4v-4h1v5.2h-1v-1.2Zm.2-1.1h.4l-.1 1-.4.7c-.2.3-.4.4-.6.5-.3.2-.6.2-1 .2h-.7a1.4 1.4 0 0 1-.9-1 3 3 0 0 1-.1-1v-3.4h.9v4.1l.3.3.3.2h.4c.3 0 .6 0 .9-.2.2-.1.3-.3.4-.6l.2-.8Zm3-1.8v4.1h-.9v-5.3h.9v1.2Zm-.2 1.3h-.4c0-.4 0-.7.2-1 0-.3.2-.6.4-.8a2 2 0 0 1 1.6-.8c.2 0 .5 0 .7.2.2 0 .4.1.5.3.2.1.3.3.4.6v4.3h-.8V197c0-.3 0-.5-.2-.7 0-.2-.2-.3-.3-.4h-.6a1.3 1.3 0 0 0-1 .4 2 2 0 0 0-.5 1.3Zm7-2.5v.7h-2.8v-.7h2.9Zm-1.8-1.2h.9v5.6l.3.2h.2a1.5 1.5 0 0 0 .5 0v.7h-.3l-.4.1-.6-.1a1 1 0 0 1-.5-.4l-.1-.9V194Z" opacity=".6"/>
      <rect width="52.2" height="5.9" x="81.7" y="207.3" fill="#DEE2E9" rx="2.9"/>
      <rect width="111.1" height="44.3" x="69.9" y="233.8" fill="#F5F6F8" rx="5.9"/>
      <path fill="#2E394C" d="m85.2 247.1-2.4 6.5h-1l2.8-7.1h.6v.6Zm2 6.5-2.4-6.5v-.6h.6l2.7 7h-1Zm-.2-2.7v.8h-4v-.8h4Zm5 1.3v-.4l-.4-.3-.8-.2-.8-.3-.6-.3c-.2 0-.3-.2-.4-.4l-.1-.6.1-.5.4-.5.6-.4.8-.1c.5 0 .8 0 1.1.2l.7.6c.2.3.2.5.2.8H92v-.4a1 1 0 0 0-.5-.3l-.6-.2c-.2 0-.4 0-.6.2l-.3.2a.7.7 0 0 0 0 .7l.1.2.4.2.6.1c.4.1.8.2 1 .4.4.1.6.3.7.5l.2.7a1.4 1.4 0 0 1-.6 1.1 2 2 0 0 1-.6.4H91c-.5 0-.9 0-1.2-.2l-.8-.6-.2-.9h1l.1.6c.2.2.3.3.5.3a2 2 0 0 0 1.2 0l.4-.2.1-.4Zm5.2 0-.1-.4-.4-.3-.8-.2-.7-.3c-.3 0-.5-.1-.6-.3-.2 0-.3-.2-.4-.4l-.2-.6c0-.2 0-.4.2-.5 0-.2.2-.4.4-.5.1-.2.4-.3.6-.4l.8-.1c.4 0 .8 0 1 .2l.8.6.2.8h-.9l-.1-.4a1 1 0 0 0-.4-.3l-.6-.2c-.2 0-.5 0-.6.2-.2 0-.3.1-.3.2a.7.7 0 0 0-.1.7l.2.2.4.2.6.1c.4.1.8.2 1 .4l.7.5.2.7a1.4 1.4 0 0 1-.6 1.1 2 2 0 0 1-.6.4H96c-.4 0-.8 0-1.2-.2-.3-.1-.5-.4-.7-.6-.2-.3-.2-.6-.2-.9h.9c0 .3 0 .5.2.6.1.2.3.3.5.3a2 2 0 0 0 1.1 0l.4-.2.2-.4Zm3-3.9v5.3h-.9v-5.3h1Zm-1-1.4.2-.4.4-.1.4.1.1.4-.1.4-.4.1-.4-.1-.1-.4Zm6 1.4h.7v5.2c0 .4 0 .8-.3 1.2-.1.3-.4.5-.7.7a2.5 2.5 0 0 1-1.9.2l-.7-.3-.6-.6.5-.5.7.6.7.1.8-.1.5-.5.1-.8v-4l.1-1.2Zm-3.7 2.7v-.1l.1-1.1.4-.9a1.9 1.9 0 0 1 1.6-.7c.3 0 .6 0 .8.2.3 0 .5.3.7.5l.4.8.2 1v.5l-.2 1-.4.8-.7.5a2.1 2.1 0 0 1-1.7 0 2 2 0 0 1-.7-.6l-.4-.8-.1-1.1Zm.9-.1v.8l.3.6.4.5.7.1c.3 0 .5 0 .7-.2l.5-.5.2-.7v-1.1l-.1-.6-.3-.4-.4-.3-.6-.1-.7.1-.4.4a2 2 0 0 0-.2.7l-.1.7Zm5.8-1.5v4.2h-.9v-5.3h.9v1.1Zm-.2 1.3h-.4c0-.3 0-.7.2-1 0-.3.2-.6.4-.8a2 2 0 0 1 1.6-.7l.7.1c.2 0 .4.2.5.3l.3.6.2 1v3.4h-1v-4.2l-.4-.3-.6-.1-.6.1-.5.4a2 2 0 0 0-.4 1.2Zm7 3c-.3 0-.7 0-1-.2a2.3 2.3 0 0 1-1.2-1.4 3 3 0 0 1-.2-1v-.2c0-.4 0-.8.2-1.1a2.2 2.2 0 0 1 3.1-1.4l.7.5.4.9v1.4h-3.9v-.7h3v-.8l-.5-.5c-.1-.2-.4-.3-.7-.3a1.2 1.2 0 0 0-1 .6 2 2 0 0 0-.3.6l-.1.8v.2l.1.7.3.6.5.4.7.1c.3 0 .6 0 .8-.2.2 0 .4-.3.6-.5l.5.5-.4.4a2 2 0 0 1-.7.4l-.9.2Zm6.5-1.1V246h.9v7.5h-.9v-1Zm-3.6-1.6v-.1c0-.4 0-.8.2-1.1 0-.3.2-.6.4-.9l.6-.5.9-.2c.3 0 .6 0 .9.2.2 0 .4.3.6.5l.4.8.2 1v.5c0 .4 0 .7-.2 1 0 .3-.2.6-.4.8l-.6.5a2.1 2.1 0 0 1-1.8 0 2 2 0 0 1-.6-.6l-.4-.8-.2-1.1Zm1-.1v.8l.2.6.5.5.6.1c.3 0 .6 0 .7-.2l.5-.5.3-.7v-1.1l-.2-.6-.3-.4-.4-.3-.6-.1-.6.1-.5.4a2 2 0 0 0-.2.7v.7Zm9.6-2.6v.7h-2.9v-.7h2.9Zm-2-1.3h1v5.7l.3.2h.3a1.5 1.5 0 0 0 .4 0v.7h-1.3a1 1 0 0 1-.5-.5l-.1-.8V247Zm2.7 4v-.1c0-.4 0-.8.2-1 0-.4.2-.7.4-1l.8-.5 1-.2c.4 0 .7 0 1 .2l.8.6.4.8.2 1v.2c0 .4 0 .7-.2 1 0 .4-.2.7-.4 1a2.2 2.2 0 0 1-1.8.7c-.4 0-.7 0-1-.2a2.3 2.3 0 0 1-1.2-1.4c-.2-.4-.2-.7-.2-1.1Zm.9-.1v.8l.4.7.4.4.7.1.6-.1.5-.4.3-.7v-1.6l-.3-.6-.5-.4-.6-.2a1.3 1.3 0 0 0-1.1.6 2 2 0 0 0-.3.6l-.1.8Z" opacity=".6"/>
      <rect width="87.6" height="5.9" x="81.7" y="260.5" fill="#DEE2E9" rx="2.9"/>
      <rect width="111.1" height="44.3" x="189.9" y="180.7" fill="#F5F6F8" rx="5.9"/>
      <path fill="#2E394C" d="M205.1 197.6h-1.9v-.7h1.9c.4 0 .7 0 .9-.2l.5-.5.2-.7-.2-.7-.5-.5-.9-.2h-1.7v6.3h-1v-7h2.7c.5 0 1 0 1.4.2.3.2.6.4.8.8.2.3.3.7.3 1 0 .5-.1 1-.3 1.3l-.8.7c-.4.2-.9.2-1.4.2Zm4.5-1.6v4.4h-1v-5.3h1v.9Zm1.6-.9v.9h-1c-.2 0-.3.2-.4.3l-.3.4v.5l-.3.2v-1l.4-.7c0-.2.3-.3.5-.5a1.4 1.4 0 0 1 1.1 0Zm.5 2.7c0-.4 0-.8.2-1.1 0-.4.2-.6.4-.9l.8-.5c.3-.2.6-.3 1-.3s.7.1 1 .3c.3 0 .6.3.8.5l.4.9c.2.3.2.7.2 1v.1c0 .4 0 .8-.2 1.1 0 .3-.2.6-.4.9a2.2 2.2 0 0 1-1.8.7c-.4 0-.7 0-1-.2l-.8-.5-.4-.9-.2-1Zm1 0v.8l.3.6.5.4.6.2c.3 0 .5 0 .7-.2l.4-.4.3-.6.1-.8v-.8l-.4-.6-.4-.5-.7-.1a1.3 1.3 0 0 0-1.1.6 2 2 0 0 0-.3.6v.7Zm5-4.9h.8v7.5h-.9V193Zm4.4 4.8v.1l-.1 1.1-.4.9-.7.5c-.2.2-.5.2-.8.2l-1-.1-.6-.5-.4-.8a5 5 0 0 1-.2-1v-.5l.2-1 .4-.9.7-.5.9-.2.8.2.7.6.4.8.1 1.1Zm-.9.1v-.8a2 2 0 0 0-.3-.6 1.2 1.2 0 0 0-1-.6l-.7.1-.4.3-.3.5-.1.5v1.2c0 .2 0 .4.2.6.1.3.3.4.5.6l.7.2c.3 0 .5 0 .7-.2l.4-.4.2-.6.1-.8Zm5.2 1.7v-2.7c0-.2 0-.4-.2-.5 0-.2-.2-.3-.3-.4l-.6-.1h-.6a1 1 0 0 0-.4.4l-.2.4h-.9c0-.2 0-.4.2-.6l.4-.5.6-.3 1-.2 1 .2.6.6c.2.3.3.6.3 1v3l.2.5v.1h-1v-.4l-.1-.5Zm.1-2.3v.7H225l-.5.2-.3.3v.9l.4.3.5.1a1.5 1.5 0 0 0 1.3-.6l.2-.5.3.5-.1.4a2.2 2.2 0 0 1-1 .9 2 2 0 0 1-.8.1 2 2 0 0 1-1-.2l-.6-.5-.2-.8c0-.3 0-.6.2-.8 0-.2.2-.4.4-.5l.8-.4a4 4 0 0 1 1 0h1Zm2.2-4.3h.9v7.5h-1V193Zm4.5 4.8v.1c0 .4 0 .8-.2 1.1 0 .3-.2.6-.4.9l-.6.5c-.3.2-.6.2-.9.2l-.9-.1-.6-.5-.4-.8a5 5 0 0 1-.2-1v-.5c0-.4 0-.8.2-1 0-.4.2-.7.4-.9l.6-.5 1-.2.8.2.6.6.4.8.2 1.1Zm-1 .1v-.8a2 2 0 0 0-.2-.6 1.2 1.2 0 0 0-1.1-.6l-.6.1-.4.3c-.2.2-.3.3-.3.5l-.2.5v1.2l.3.6c0 .3.2.4.4.6l.8.2c.2 0 .4 0 .6-.2.2 0 .3-.2.4-.4l.3-.6v-.8Zm3.1-2.7v5.3h-1v-5.3h1Zm-1-1.4c0-.1 0-.2.2-.3l.4-.2c.1 0 .3 0 .3.2l.2.3c0 .2 0 .3-.2.4l-.3.2-.4-.2-.2-.4Zm3.4-.8v7.5h-.9V193h1Zm2.5 2.2v5.3h-1v-5.3h1Zm-1-1.4.1-.3.4-.2c.2 0 .3 0 .4.2l.2.3c0 .2 0 .3-.2.4l-.4.2-.4-.2-.1-.4Zm4.6 1.4v.7H241v-.7h2.8ZM242 194h1v5.5l.2.2h.3a1.5 1.5 0 0 0 .4 0v.7h-.2l-.5.1-.6-.1a1 1 0 0 1-.4-.4l-.2-.9V194Zm4.5 6 1.4-4.8h1l-2.1 6.1a3.2 3.2 0 0 1-.5.9 1.4 1.4 0 0 1-1 .5h-.4l-.2-.1v-.7a2 2 0 0 0 .2 0l.6-.1.3-.3.3-.5.4-1Zm-1.1-4.8 1.4 4.1.2 1-.7.3-1.9-5.4h1Z" opacity=".6"/>
      <rect width="20.6" height="5.9" x="201.7" y="207.3" fill="#DEE2E9" rx="2.9"/>
      <rect width="111.1" height="44.3" x="189.9" y="233.8" fill="#F5F6F8" rx="5.9"/>
      <path fill="#2E394C" d="M207 252.8v.8h-3.8v-.8h3.8Zm-3.6-6.3v7h-1v-7h1Zm3.1 3v.8h-3.3v-.8h3.3Zm.4-3v.7h-3.7v-.7h3.7Zm4.2 5.7v-.4l-.4-.3-.8-.2-.8-.3-.6-.3c-.2 0-.3-.2-.4-.4l-.1-.6.1-.5.4-.5.6-.4.8-.1c.5 0 .8 0 1.1.2l.7.6c.2.3.3.5.3.8h-1v-.4a1 1 0 0 0-.5-.3l-.6-.2c-.2 0-.4 0-.6.2l-.3.2a.7.7 0 0 0 0 .7l.1.2.4.2.6.1c.4.1.8.2 1 .4.4.1.6.3.7.5l.2.7a1.4 1.4 0 0 1-.6 1.1 2 2 0 0 1-.6.4h-.8c-.5 0-.9 0-1.2-.2-.3-.1-.6-.4-.7-.6l-.3-.9h1l.1.6c.2.2.3.3.5.3a2 2 0 0 0 1.2 0l.4-.2.1-.4Zm4.3-3.9v.7h-2.9v-.7h2.9Zm-1.9-1.3h1v5.7l.2.2h.3a1.5 1.5 0 0 0 .4 0v.7a2.2 2.2 0 0 1-.7 0h-.6a1 1 0 0 1-.4-.5l-.2-.8V247Zm4 1.3v5.3h-1v-5.3h1Zm-1-1.4.1-.4.4-.1.4.1.1.4-.1.4-.4.1-.4-.1-.1-.4Zm3.3 2.4v4.3h-1v-5.3h1v1Zm-.2 1.4h-.4l.1-1 .4-.8.7-.5 1-.2.6.1a1.4 1.4 0 0 1 1 1v4.3h-.9V250l-.1-.7-.4-.3-.6-.1-.7.1-.4.4-.2.6v.6Zm3.4-.5-.6.2c0-.3 0-.5.2-.8 0-.3.2-.5.4-.7l.6-.5 1-.2.7.1c.2 0 .4.2.5.4l.4.5.1 1v3.4h-1v-4.2c-.1-.2-.3-.3-.4-.3a1.6 1.6 0 0 0-1.2 0 1.2 1.2 0 0 0-.6.7v.4Zm7.8 2.5V250l-.1-.6-.4-.3-.6-.2-.6.1a1 1 0 0 0-.4.4l-.2.4h-.9c0-.2 0-.4.2-.6 0-.2.2-.4.4-.5l.7-.4.8-.1c.4 0 .7 0 1 .2.3.1.6.3.7.6.2.2.3.6.3 1v3l.2.5h-1v-.3l-.1-.5Zm.1-2.3v.6h-1.6l-.5.3-.3.3v.8l.4.4h.5a1.5 1.5 0 0 0 1.3-.5l.2-.5.4.4-.2.5a2.2 2.2 0 0 1-1 .8 2 2 0 0 1-.8.2 2 2 0 0 1-1-.2l-.6-.6-.2-.8c0-.3 0-.5.2-.7 0-.3.2-.4.5-.6l.7-.3a4 4 0 0 1 1-.1h1Zm4.4-2.1v.7h-2.8v-.7h2.8Zm-1.9-1.3h1v5.7l.2.2h.3a1.5 1.5 0 0 0 .4 0v.7a2.2 2.2 0 0 1-.7 0h-.6a1 1 0 0 1-.4-.5l-.2-.8V247Zm5.2 6.7c-.4 0-.7 0-1-.2a2.3 2.3 0 0 1-1.3-1.4 3 3 0 0 1-.2-1v-.2l.2-1.1.5-.9a2.2 2.2 0 0 1 2.6-.5l.7.5.4.9.1 1v.4h-4v-.7h3.1v-.1l-.1-.7-.4-.5a1 1 0 0 0-.7-.3 1.2 1.2 0 0 0-1 .6 2 2 0 0 0-.3.6l-.1.8v.9l.4.6.5.4.6.1c.3 0 .6 0 .8-.2.2 0 .4-.3.6-.5l.6.5-.5.4a2 2 0 0 1-.6.4l-1 .2Zm6.4-1.1V246h1v7.5h-1v-1Zm-3.5-1.6v-.1l.1-1.1.4-.9.7-.5.8-.2c.4 0 .7 0 1 .2.2 0 .4.3.5.5l.5.8.2 1v.5l-.2 1-.5.8a1 1 0 0 1-.6.5 2.1 2.1 0 0 1-1.7 0 2 2 0 0 1-.7-.6l-.4-.8-.1-1.1Zm.9-.1v.8l.3.6.4.5.7.1c.3 0 .5 0 .7-.2l.5-.5.2-.7v-1.1l-.1-.6-.3-.4-.4-.3-.6-.1-.7.1-.4.4a2 2 0 0 0-.3.7v.7Zm9.5 2 .6-.1c.2 0 .3-.2.5-.4l.2-.5h.8l-.3.9a2.2 2.2 0 0 1-1.8.9c-.4 0-.7 0-1-.2a2 2 0 0 1-.8-.6l-.4-.8-.1-1v-.3l.1-1 .4-.8c.2-.3.5-.5.8-.6l1-.2c.4 0 .8 0 1.1.3.3.1.6.3.7.6.2.3.3.6.3 1h-.8l-.2-.6-.5-.4-.6-.2-.7.2-.4.4a2 2 0 0 0-.3.7v1.5l.3.6c0 .2.2.4.4.5l.7.1Zm4.1-6.8v7.5h-.9V246h1Zm1.2 4.9v-.1c0-.4 0-.8.2-1l.5-1 .7-.5 1-.2c.4 0 .7 0 1 .2.3.1.6.3.8.6l.5.8.1 1v.2l-.1 1-.5 1a2.2 2.2 0 0 1-1.8.7c-.3 0-.7 0-1-.2a2.3 2.3 0 0 1-1.2-1.4l-.2-1.1Zm1-.1v.8c0 .3.2.5.3.7l.5.4.6.1.7-.1.5-.4.2-.7.1-.7v-.9l-.3-.6-.5-.4-.7-.2a1.3 1.3 0 0 0-1.1.6 2 2 0 0 0-.3.6v.8Zm8 1.3v-.4l-.4-.3-.8-.2-.8-.3-.6-.3c-.1 0-.3-.2-.3-.4l-.2-.6c0-.2 0-.4.2-.5 0-.2.2-.4.4-.5.1-.2.3-.3.6-.4l.8-.1c.4 0 .8 0 1 .2l.8.6.2.8h-1v-.4a1 1 0 0 0-.4-.3l-.6-.2c-.3 0-.5 0-.6.2l-.4.2a.7.7 0 0 0 0 .7l.2.2.3.2.7.1 1 .4c.3.1.5.3.6.5.2.2.3.4.3.7a1.4 1.4 0 0 1-.6 1.1 2 2 0 0 1-.7.4h-.8c-.5 0-.8 0-1.2-.2-.3-.1-.5-.4-.7-.6l-.3-.9h1c0 .3 0 .5.2.6.1.2.3.3.4.3a2 2 0 0 0 1.2 0l.4-.2.1-.4Zm3.1-3.9v5.3h-.9v-5.3h1Zm-1-1.4c0-.2 0-.3.2-.4l.4-.1.4.1.1.4-.1.4-.4.1-.4-.1-.2-.4Zm3.4 2.5v4.2h-1v-5.3h1v1.1Zm-.2 1.3h-.4l.1-1 .5-.8a2 2 0 0 1 1.5-.7l.7.1.6.3.3.6.1 1v3.4h-.9V250l-.1-.7-.4-.3-.5-.1-.7.1-.4.4a2 2 0 0 0-.4 1.2Zm8.2-2.4h.8v5.2c0 .4 0 .8-.2 1.2l-.8.7a2.5 2.5 0 0 1-1.8.2c-.3 0-.5-.2-.8-.3l-.6-.6.5-.5.7.6.7.1.8-.1.5-.5.1-.8v-4l.1-1.2Zm-3.6 2.7v-.1l.1-1.1.4-.9a1.9 1.9 0 0 1 1.6-.7c.3 0 .6 0 .8.2.3 0 .5.3.7.5l.4.8.2 1v.5l-.2 1-.4.8-.7.5a2.1 2.1 0 0 1-1.7 0 2 2 0 0 1-.7-.6l-.4-.8-.1-1.1Zm.9-.1v.8l.3.6.4.5.7.1c.3 0 .5 0 .7-.2l.5-.5.3-.7v-1.1l-.2-.6-.3-.4-.4-.3-.6-.1-.7.1-.4.4a2 2 0 0 0-.2.7l-.1.7Z" opacity=".6"/>
      <rect width="53.7" height="5.9" x="201.7" y="260.5" fill="#DEE2E9" rx="2.9"/>
      <g fill-rule="evenodd" clip-path="url(#o)" clip-rule="evenodd">
        <path fill="#4181FA" d="M109.7 291.4c.4 0 .7.2.9.5l5.1 10.1v1l-5.1 10a1 1 0 0 1-.9.6H70.6a1 1 0 0 1-1-1v-20.2c0-.6.4-1 1-1h39.1Zm46.8 0c.4 0 .8.2 1 .6l4.6 10v.9l-4.7 10a1 1 0 0 1-.9.7h-39a1 1 0 0 1-.9-1.5l4.3-9.2a1 1 0 0 0 0-.9l-4.3-9.2a1 1 0 0 1 1-1.4h39Z"/>
        <path fill="#EDEFF3" d="M202.4 291.4c.4 0 .7.2 1 .5l5 10.1c.2.3.2.6 0 1l-5 10a1 1 0 0 1-1 .6H164a1 1 0 0 1-1-1.5l4.8-9.2a1 1 0 0 0 0-.9l-4.7-9.2a1 1 0 0 1 .9-1.4h38.4Zm46.2 0c.4 0 .7.2.9.5l5.3 10.1v1l-5.3 10a1 1 0 0 1-.9.6h-38.3a1 1 0 0 1-.9-1.5l4.8-9.2a1 1 0 0 0 0-.9l-4.8-9.2a1 1 0 0 1 1-1.4h38.2Zm51.8 0c.5 0 1 .4 1 1v20.2c0 .5-.5 1-1 1h-43.7a1 1 0 0 1-1-1.5l4.9-9.2a1 1 0 0 0 0-.9l-4.8-9.2a1 1 0 0 1 .9-1.4h43.7Z"/>
      </g>
    </g>
    <rect width="256.8" height="220.1" x="57.1" y="105.4" stroke="#EDEFF3" stroke-width=".7" rx="5.5"/>
  </g>
  <defs>
    <filter id="a" width="166" height="69.7" x="330" y="38.7" color-interpolation-filters="sRGB" filterUnits="userSpaceOnUse">
      <feFlood flood-opacity="0" result="BackgroundImageFix"/>
      <feColorMatrix in="SourceAlpha" result="hardAlpha" values="0 0 0 0 0 0 0 0 0 0 0 0 0 0 0 0 0 0 127 0"/>
      <feOffset dy="5.7"/>
      <feGaussianBlur stdDeviation="2.8"/>
      <feColorMatrix values="0 0 0 0 0.828212 0 0 0 0 0.83526 0 0 0 0 0.845833 0 0 0 0.3 0"/>
      <feBlend in2="BackgroundImageFix" result="effect1_dropShadow_1178_48978"/>
      <feBlend in="SourceGraphic" in2="effect1_dropShadow_1178_48978" result="shape"/>
    </filter>
    <filter id="c" width="166" height="69.7" x="330" y="38.7" color-interpolation-filters="sRGB" filterUnits="userSpaceOnUse">
      <feFlood flood-opacity="0" result="BackgroundImageFix"/>
      <feColorMatrix in="SourceAlpha" result="hardAlpha" values="0 0 0 0 0 0 0 0 0 0 0 0 0 0 0 0 0 0 127 0"/>
      <feOffset dy="5.7"/>
      <feGaussianBlur stdDeviation="2.8"/>
      <feColorMatrix values="0 0 0 0 0.828212 0 0 0 0 0.83526 0 0 0 0 0.845833 0 0 0 0.3 0"/>
      <feBlend in2="BackgroundImageFix" result="effect1_dropShadow_1178_48978"/>
      <feBlend in="SourceGraphic" in2="effect1_dropShadow_1178_48978" result="shape"/>
    </filter>
    <filter id="d" width="166" height="72.6" x="330" y="113" color-interpolation-filters="sRGB" filterUnits="userSpaceOnUse">
      <feFlood flood-opacity="0" result="BackgroundImageFix"/>
      <feColorMatrix in="SourceAlpha" result="hardAlpha" values="0 0 0 0 0 0 0 0 0 0 0 0 0 0 0 0 0 0 127 0"/>
      <feOffset dy="5.7"/>
      <feGaussianBlur stdDeviation="2.8"/>
      <feColorMatrix values="0 0 0 0 0.828212 0 0 0 0 0.83526 0 0 0 0 0.845833 0 0 0 0.3 0"/>
      <feBlend in2="BackgroundImageFix" result="effect1_dropShadow_1178_48978"/>
      <feBlend in="SourceGraphic" in2="effect1_dropShadow_1178_48978" result="shape"/>
    </filter>
    <filter id="f" width="166" height="72.6" x="330" y="113" color-interpolation-filters="sRGB" filterUnits="userSpaceOnUse">
      <feFlood flood-opacity="0" result="BackgroundImageFix"/>
      <feColorMatrix in="SourceAlpha" result="hardAlpha" values="0 0 0 0 0 0 0 0 0 0 0 0 0 0 0 0 0 0 127 0"/>
      <feOffset dy="5.7"/>
      <feGaussianBlur stdDeviation="2.8"/>
      <feColorMatrix values="0 0 0 0 0.828212 0 0 0 0 0.83526 0 0 0 0 0.845833 0 0 0 0.3 0"/>
      <feBlend in2="BackgroundImageFix" result="effect1_dropShadow_1178_48978"/>
      <feBlend in="SourceGraphic" in2="effect1_dropShadow_1178_48978" result="shape"/>
    </filter>
    <filter id="g" width="166" height="69.7" x="330" y="267.5" color-interpolation-filters="sRGB" filterUnits="userSpaceOnUse">
      <feFlood flood-opacity="0" result="BackgroundImageFix"/>
      <feColorMatrix in="SourceAlpha" result="hardAlpha" values="0 0 0 0 0 0 0 0 0 0 0 0 0 0 0 0 0 0 127 0"/>
      <feOffset dy="5.7"/>
      <feGaussianBlur stdDeviation="2.8"/>
      <feColorMatrix values="0 0 0 0 0.828212 0 0 0 0 0.83526 0 0 0 0 0.845833 0 0 0 0.3 0"/>
      <feBlend in2="BackgroundImageFix" result="effect1_dropShadow_1178_48978"/>
      <feBlend in="SourceGraphic" in2="effect1_dropShadow_1178_48978" result="shape"/>
    </filter>
    <filter id="i" width="164.7" height="69.4" x="331" y="267.4" color-interpolation-filters="sRGB" filterUnits="userSpaceOnUse">
      <feFlood flood-opacity="0" result="BackgroundImageFix"/>
      <feColorMatrix in="SourceAlpha" result="hardAlpha" values="0 0 0 0 0 0 0 0 0 0 0 0 0 0 0 0 0 0 127 0"/>
      <feOffset dy="5.7"/>
      <feGaussianBlur stdDeviation="2.8"/>
      <feColorMatrix values="0 0 0 0 0.828212 0 0 0 0 0.83526 0 0 0 0 0.845833 0 0 0 0.3 0"/>
      <feBlend in2="BackgroundImageFix" result="effect1_dropShadow_1178_48978"/>
      <feBlend in="SourceGraphic" in2="effect1_dropShadow_1178_48978" result="shape"/>
    </filter>
    <filter id="j" width="166" height="72.6" x="330" y="190.3" color-interpolation-filters="sRGB" filterUnits="userSpaceOnUse">
      <feFlood flood-opacity="0" result="BackgroundImageFix"/>
      <feColorMatrix in="SourceAlpha" result="hardAlpha" values="0 0 0 0 0 0 0 0 0 0 0 0 0 0 0 0 0 0 127 0"/>
      <feOffset dy="5.7"/>
      <feGaussianBlur stdDeviation="2.8"/>
      <feColorMatrix values="0 0 0 0 0.828212 0 0 0 0 0.83526 0 0 0 0 0.845833 0 0 0 0.3 0"/>
      <feBlend in2="BackgroundImageFix" result="effect1_dropShadow_1178_48978"/>
      <feBlend in="SourceGraphic" in2="effect1_dropShadow_1178_48978" result="shape"/>
    </filter>
    <filter id="l" width="166" height="72.6" x="330" y="190.3" color-interpolation-filters="sRGB" filterUnits="userSpaceOnUse">
      <feFlood flood-opacity="0" result="BackgroundImageFix"/>
      <feColorMatrix in="SourceAlpha" result="hardAlpha" values="0 0 0 0 0 0 0 0 0 0 0 0 0 0 0 0 0 0 127 0"/>
      <feOffset dy="5.7"/>
      <feGaussianBlur stdDeviation="2.8"/>
      <feColorMatrix values="0 0 0 0 0.828212 0 0 0 0 0.83526 0 0 0 0 0.845833 0 0 0 0.3 0"/>
      <feBlend in2="BackgroundImageFix" result="effect1_dropShadow_1178_48978"/>
      <feBlend in="SourceGraphic" in2="effect1_dropShadow_1178_48978" result="shape"/>
    </filter>
    <filter id="m" width="268.7" height="232" x="51.1" y="105" color-interpolation-filters="sRGB" filterUnits="userSpaceOnUse">
      <feFlood flood-opacity="0" result="BackgroundImageFix"/>
      <feColorMatrix in="SourceAlpha" result="hardAlpha" values="0 0 0 0 0 0 0 0 0 0 0 0 0 0 0 0 0 0 127 0"/>
      <feOffset dy="5.6"/>
      <feGaussianBlur stdDeviation="2.8"/>
      <feColorMatrix values="0 0 0 0 0.828212 0 0 0 0 0.83526 0 0 0 0 0.845833 0 0 0 0.3 0"/>
      <feBlend in2="BackgroundImageFix" result="effect1_dropShadow_1178_48978"/>
      <feBlend in="SourceGraphic" in2="effect1_dropShadow_1178_48978" result="shape"/>
    </filter>
    <clipPath id="b">
      <rect width="154.7" height="58.4" x="335.7" y="38.7" fill="#fff" rx="8.8"/>
    </clipPath>
    <clipPath id="e">
      <rect width="154.7" height="61.3" x="335.7" y="113" fill="#fff" rx="8.8"/>
    </clipPath>
    <clipPath id="h">
      <rect width="154.7" height="58.4" x="335.7" y="267.5" fill="#fff" rx="8.8"/>
    </clipPath>
    <clipPath id="k">
      <rect width="154.7" height="61.3" x="335.7" y="190.3" fill="#fff" rx="8.8"/>
    </clipPath>
    <clipPath id="n">
      <rect width="257.5" height="220.9" x="56.7" y="105" fill="#fff" rx="5.9"/>
    </clipPath>
    <clipPath id="o">
      <rect width="231.8" height="22.2" x="69.6" y="291.4" fill="#fff" rx="5.9"/>
    </clipPath>
  </defs>
</svg>
