<svg xmlns="http://www.w3.org/2000/svg" fill="none" viewBox="0 0 547 365">
  <path fill="#F3F4F6" d="M.1.3H547v364.6H.1z"/>
  <g clip-path="url(#a)">
    <rect width="195.8" height="244.6" x="71.5" y="54.5" fill="#DEE2E9" rx="7.1"/>
    <path fill="#1F2937" d="M85.7 69.7v10.2h-1.8V69.7h1.8Zm3.2 0V71h-8.2v-1.4H89Zm-.2 6.5v-.1c0-.6.1-1.1.3-1.6.1-.4.4-.9.7-1.2.3-.4.7-.6 1-.8.5-.2 1-.3 1.6-.3.5 0 1 0 1.5.3.4.2.8.4 1.1.8.3.3.5.8.7 1.2.2.5.2 1 .2 1.6v.1c0 .6 0 1-.2 1.5s-.4 1-.7 1.3a3.2 3.2 0 0 1-2.6 1c-.6 0-1 0-1.5-.2l-1.1-.8c-.3-.4-.6-.8-.7-1.3-.2-.4-.3-1-.3-1.5Zm1.7-.1v.1l.1 1 .4.8c.1.2.3.4.6.5.2.2.5.2.8.2a1.6 1.6 0 0 0 1.4-.7c.1-.2.3-.5.3-.8l.1-1v-1.1l-.4-.8a1.6 1.6 0 0 0-1.4-.8l-.8.2-.6.6-.4.8v1Zm15.1 2.3V69h1.7v11h-1.5l-.2-1.5Zm-5-2.2v-.1l.2-1.6.6-1.2c.3-.4.6-.7 1-.8l1.2-.3c.5 0 .9 0 1.2.2l1 .8.5 1.2.3 1.5v.5l-.3 1.5a4 4 0 0 1-.6 1.2 2.5 2.5 0 0 1-2 1 2.7 2.7 0 0 1-2.3-1.1l-.6-1.2-.2-1.6Zm1.7-.1v.1l.1 1 .3.8c.2.2.3.4.6.5l.8.2c.3 0 .7 0 .9-.2l.6-.7.3-1v-1.3l-.2-.7a2 2 0 0 0-.3-.7l-.6-.4-.7-.2-.8.2-.6.6-.3.8v1Zm6.5.1v-.1c0-.6 0-1.1.2-1.6.2-.4.4-.9.7-1.2.3-.4.7-.6 1.1-.8.4-.2 1-.3 1.5-.3.6 0 1 0 1.5.3.4.2.8.4 1.1.8.3.3.5.8.7 1.2.2.5.2 1 .2 1.6v.1c0 .6 0 1-.2 1.5s-.4 1-.7 1.3a3.2 3.2 0 0 1-2.6 1c-.5 0-1 0-1.5-.2l-1.1-.8-.7-1.3c-.2-.4-.2-1-.2-1.5Zm1.7-.1v1.1l.4.8c.1.2.3.4.6.5.2.2.5.2.8.2a1.6 1.6 0 0 0 1.4-.7c.2-.2.3-.5.3-.8l.1-1v-1.1l-.4-.8a1.6 1.6 0 0 0-1.4-.8l-.8.2-.6.6c-.2.2-.3.5-.3.8l-.1 1Z"/>
    <g filter="url(#b)">
      <rect width="178.1" height="57.7" x="80.4" y="94.6" fill="#fff" rx="9.6"/>
      <circle cx="95.5" cy="113.9" r="4.8" fill="#6297FA"/>
      <rect width="71" height="7.2" x="114.7" y="110.3" fill="#DEE2E9" rx="3.6"/>
      <path stroke="#111827" stroke-linecap="round" stroke-linejoin="round" stroke-width="1.2" d="M95.5 131v2.1l1.6 1.6m3.2-1.6a4.8 4.8 0 1 1-9.6 0 4.8 4.8 0 0 1 9.6 0Z"/>
      <rect width="36.1" height="7.2" x="114.7" y="129.5" fill="#DEE2E9" rx="3.6"/>
      <rect width="28.9" height="28.9" x="219.3" y="109.1" fill="#7C3AED" rx="9.6"/>
      <path fill="#FBFBFB" d="M236.2 124.7h1.7a4 4 0 0 1-.5 1.8c-.4.5-.8 1-1.4 1.2a4.8 4.8 0 0 1-3.8.2c-.5-.3-1-.6-1.3-1-.4-.4-.6-1-.8-1.5-.2-.6-.3-1.3-.3-2v-.9c0-.7 0-1.4.3-2 .2-.6.5-1.1.8-1.5a3 3 0 0 1 1.3-1c.6-.2 1.1-.3 1.8-.3a4 4 0 0 1 2 .4 3.5 3.5 0 0 1 1.9 3.1h-1.7c0-.5-.2-.8-.3-1.2l-.7-.7-1.2-.2c-.4 0-.8 0-1 .2a2 2 0 0 0-.8.7l-.5 1-.1 1.5v2.3l.5 1 .7.7c.3.2.7.3 1.1.3.5 0 1 0 1.2-.2.3-.2.6-.4.7-.7l.4-1.2Z"/>
      <rect width="176.9" height="56.5" x="81" y="95.2" stroke="#DEE2E9" stroke-width="1.2" rx="9"/>
    </g>
    <g filter="url(#c)">
      <rect width="178.1" height="57.7" x="80.4" y="166.8" fill="#fff" rx="9.6"/>
      <circle cx="95.5" cy="186" r="4.8" fill="#EC4899"/>
      <rect width="71" height="7.2" x="114.7" y="182.4" fill="#DEE2E9" rx="3.6"/>
      <path stroke="#111827" stroke-linecap="round" stroke-linejoin="round" stroke-width="1.2" d="M95.5 203.1v2.2l1.6 1.6m3.2-1.6a4.8 4.8 0 1 1-9.6 0 4.8 4.8 0 0 1 9.6 0Z"/>
      <rect width="36.1" height="7.2" x="114.7" y="201.7" fill="#DEE2E9" rx="3.6"/>
      <rect width="28.9" height="28.9" x="219.3" y="181.2" fill="#059669" rx="9.6"/>
      <path fill="#FBFBFB" d="M235.8 197.6v-.6l-.4-.4c-.1-.2-.4-.3-.7-.4a9 9 0 0 0-1-.4l-1.4-.5c-.4-.2-.8-.4-1-.7-.4-.2-.6-.5-.8-.8-.2-.4-.2-.7-.2-1.2a2.5 2.5 0 0 1 1-2l1.1-.6 1.5-.2c.8 0 1.4.2 2 .4.5.3 1 .7 1.3 1.2.3.4.4 1 .4 1.5h-1.8c0-.3 0-.6-.2-.9l-.6-.6-1.1-.2c-.4 0-.8 0-1 .2l-.7.5-.2.7c0 .2 0 .4.2.6l.4.4.7.4 1 .3 1.4.6c.4.2.8.4 1 .7a2.6 2.6 0 0 1 1 2c0 .4-.2.8-.3 1.1l-.8 1-1.1.5a5.5 5.5 0 0 1-4.3-.6l-1-1-.3-1.5h1.8c0 .3 0 .6.2.9 0 .2.3.4.5.5l.7.4a3.6 3.6 0 0 0 1.9-.1c.3-.1.5-.3.6-.5.2-.2.2-.5.2-.7Z"/>
      <rect width="176.9" height="56.5" x="81" y="167.4" stroke="#DEE2E9" stroke-width="1.2" rx="9"/>
    </g>
  </g>
  <rect width="195.8" height="244.6" x="279.8" y="54.5" fill="#DEE2E9" rx="7.1"/>
  <path fill="#1F2937" d="M292.6 80h-2.2v-1.5h2.2c.7 0 1.2 0 1.6-.4.5-.2.8-.6 1-1.2.2-.5.3-1 .3-1.8v-.6c0-.5 0-1-.2-1.4 0-.5-.3-.8-.5-1.1-.2-.3-.5-.5-.9-.7a3 3 0 0 0-1.2-.2h-2.3v-1.4h2.3c.7 0 1.3.1 1.9.3l1.4 1c.4.4.8 1 1 1.5.2.6.3 1.3.3 2v.6c0 .7-.1 1.4-.3 2a4 4 0 0 1-1 1.5 3 3 0 0 1-1.5 1c-.5.2-1.2.3-1.9.3Zm-1.2-10.3v10.2h-1.7V69.7h1.7Zm7.2 6.5v-.1c0-.6 0-1.1.2-1.6.2-.4.4-.9.7-1.2.3-.4.7-.6 1.1-.8l1.5-.3c.6 0 1 0 1.5.3.5.2.8.4 1.1.8.3.3.6.8.7 1.2.2.5.3 1 .3 1.6v.1c0 .6-.1 1-.3 1.5-.1.5-.4 1-.7 1.3a3.2 3.2 0 0 1-2.6 1c-.5 0-1 0-1.5-.2a3.7 3.7 0 0 1-1.8-2l-.2-1.6Zm1.7-.1v1.1l.4.8.6.5c.2.2.5.2.8.2a1.6 1.6 0 0 0 1.4-.7l.4-.8V75l-.4-.8a1.6 1.6 0 0 0-1.4-.8l-.8.2-.6.6-.3.8-.1 1Zm8.5-2.2v6H307v-7.6h1.6V74Zm-.3 2h-.6c0-.6.1-1 .3-1.5.1-.5.3-.9.6-1.2a2.7 2.7 0 0 1 2.2-1l1 .1.7.5c.3.2.4.5.5.9l.2 1.3v5h-1.7v-5c0-.4 0-.6-.2-.9a1 1 0 0 0-.4-.4l-.8-.2a1.6 1.6 0 0 0-1.3.7l-.4.8-.1.9Zm10 4.2c-.6 0-1-.1-1.5-.3a3.4 3.4 0 0 1-2-2l-.2-1.4V76c0-.6.1-1.1.3-1.6.2-.5.4-1 .7-1.2.3-.4.7-.7 1.1-.8.4-.2.9-.3 1.4-.3.5 0 1 0 1.4.3.4.1.8.4 1 .7l.6 1.2c.2.5.2 1 .2 1.5v.7h-5.8v-1.2h4.2v-.1l-.2-.9-.5-.6c-.2-.2-.5-.3-1-.3-.2 0-.4 0-.7.2l-.5.5-.4.8v2.5l.5.7.6.5.9.1a2.4 2.4 0 0 0 2-.9l.8.9-.6.7-1 .5-1.3.2Z"/>
  <g opacity=".1">
    <rect width="176.9" height="56.5" x="289.2" y="95.2" fill="#DEE2E9" rx="9"/>
    <circle cx="303.7" cy="113.9" r="4.8" fill="#000"/>
    <rect width="71" height="7.2" x="322.9" y="110.3" fill="#000" rx="3.6"/>
    <path stroke="#000" stroke-linecap="round" stroke-linejoin="round" stroke-width="1.2" d="M303.7 131v2.1l1.6 1.6m3.2-1.6a4.8 4.8 0 1 1-9.6 0 4.8 4.8 0 0 1 9.6 0Z"/>
    <rect width="36.1" height="7.2" x="322.9" y="129.5" fill="#000" rx="3.6"/>
    <rect width="28.9" height="28.9" x="427.6" y="109.1" fill="#000" rx="9.6"/>
    <path fill="#000" d="M444.4 124.7h1.8a4 4 0 0 1-.6 1.8c-.3.5-.8 1-1.4 1.2a4.8 4.8 0 0 1-3.8.2c-.5-.3-1-.6-1.3-1l-.8-1.5c-.2-.6-.3-1.3-.3-2v-.9a5.3 5.3 0 0 1 1.1-3.5c.4-.5.8-.8 1.4-1 .5-.2 1-.3 1.7-.3a4 4 0 0 1 2 .4c.6.3 1 .7 1.4 1.3.3.5.5 1 .6 1.8h-1.8c0-.5-.2-.8-.3-1.2l-.7-.7-1.2-.2c-.4 0-.8 0-1 .2a2 2 0 0 0-.8.7l-.5 1-.1 1.5v.9l.1 1.4.4 1c.2.3.5.6.8.7.3.2.6.3 1 .3.5 0 1 0 1.3-.2l.7-.7.3-1.2Z"/>
    <rect width="176.9" height="56.5" x="289.2" y="95.2" stroke="#000" stroke-dasharray="8.4 8.4" stroke-width="1.2" rx="9"/>
  </g>
  <rect width="28.9" height="28.9" x="86" y="256.2" fill="#4181FA" rx="14.4"/>
  <path fill="#FBFBFB" d="M106 270h-4.6v-4.5c0-.3-.2-.5-.5-.5h-1c-.3 0-.5.2-.5.5v4.6h-4.6c-.3 0-.5.2-.5.5v1c0 .3.2.5.5.5h4.6v4.6c0 .3.2.5.5.5h1c.3 0 .5-.2.5-.5V272h4.6c.2 0 .5-.2.5-.5v-1c0-.3-.3-.5-.5-.5Z"/>
  <g filter="url(#d)">
    <g clip-path="url(#e)">
      <rect width="186.4" height="57.7" x="192.3" y="254.8" fill="#fff" rx="9.6" transform="rotate(-15 192.3 254.8)"/>
      <circle cx="215.9" cy="268.4" r="4.8" fill="#6297FA" transform="rotate(-15 215.9 268.4)"/>
      <rect width="71" height="7.2" x="233.5" y="260" fill="#DEE2E9" rx="3.6" transform="rotate(-15 233.5 260)"/>
      <path stroke="#111827" stroke-linecap="round" stroke-linejoin="round" stroke-width="1.2" d="m220.3 285 .6 2 2 1.2m2.6-2.4a4.8 4.8 0 1 1-9.3 2.5 4.8 4.8 0 0 1 9.3-2.5Z"/>
      <rect width="36.1" height="7.2" x="238.5" y="278.6" fill="#EDEFF3" rx="3.6" transform="rotate(-15 238.5 278.6)"/>
      <rect width="28.9" height="28.9" x="334.3" y="231.7" fill="#0284C7" rx="9.6" transform="rotate(-15 334.3 231.7)"/>
      <path fill="#FBFBFB" d="m356.2 244 .4 1.4-5 1.4-.4-1.4 5-1.3Zm-6.8-7.3 2.7 10-1.7.4-2.7-10 1.7-.4Z"/>
    </g>
    <rect width="185.2" height="56.5" x="193" y="255.3" stroke="#EDEFF3" stroke-width="1.2" rx="9" transform="rotate(-15 193 255.3)"/>
  </g>
  <defs>
    <filter id="b" width="196.3" height="76" x="71.3" y="94.6" color-interpolation-filters="sRGB" filterUnits="userSpaceOnUse">
      <feFlood flood-opacity="0" result="BackgroundImageFix"/>
      <feColorMatrix in="SourceAlpha" result="hardAlpha" values="0 0 0 0 0 0 0 0 0 0 0 0 0 0 0 0 0 0 127 0"/>
      <feOffset dy="9.1"/>
      <feGaussianBlur stdDeviation="4.6"/>
      <feColorMatrix values="0 0 0 0 0.828212 0 0 0 0 0.83526 0 0 0 0 0.845833 0 0 0 0.3 0"/>
      <feBlend in2="BackgroundImageFix" result="effect1_dropShadow_659_57064"/>
      <feBlend in="SourceGraphic" in2="effect1_dropShadow_659_57064" result="shape"/>
    </filter>
    <filter id="c" width="196.3" height="76" x="71.3" y="166.8" color-interpolation-filters="sRGB" filterUnits="userSpaceOnUse">
      <feFlood flood-opacity="0" result="BackgroundImageFix"/>
      <feColorMatrix in="SourceAlpha" result="hardAlpha" values="0 0 0 0 0 0 0 0 0 0 0 0 0 0 0 0 0 0 127 0"/>
      <feOffset dy="9.1"/>
      <feGaussianBlur stdDeviation="4.6"/>
      <feColorMatrix values="0 0 0 0 0.828212 0 0 0 0 0.83526 0 0 0 0 0.845833 0 0 0 0.3 0"/>
      <feBlend in2="BackgroundImageFix" result="effect1_dropShadow_659_57064"/>
      <feBlend in="SourceGraphic" in2="effect1_dropShadow_659_57064" result="shape"/>
    </filter>
    <filter id="d" width="213.2" height="122.2" x="183.2" y="206.6" color-interpolation-filters="sRGB" filterUnits="userSpaceOnUse">
      <feFlood flood-opacity="0" result="BackgroundImageFix"/>
      <feColorMatrix in="SourceAlpha" result="hardAlpha" values="0 0 0 0 0 0 0 0 0 0 0 0 0 0 0 0 0 0 127 0"/>
      <feOffset dy="9.1"/>
      <feGaussianBlur stdDeviation="4.6"/>
      <feColorMatrix values="0 0 0 0 0.828212 0 0 0 0 0.83526 0 0 0 0 0.845833 0 0 0 0.3 0"/>
      <feBlend in2="BackgroundImageFix" result="effect1_dropShadow_659_57064"/>
      <feBlend in="SourceGraphic" in2="effect1_dropShadow_659_57064" result="shape"/>
    </filter>
    <clipPath id="a">
      <rect width="195.8" height="244.6" x="71.5" y="54.5" fill="#fff" rx="7.1"/>
    </clipPath>
    <clipPath id="e">
      <rect width="186.4" height="57.7" x="192.3" y="254.8" fill="#fff" rx="9.6" transform="rotate(-15 192.3 254.8)"/>
    </clipPath>
  </defs>
</svg>
